M48
METRIC,LZ,000.000
;FILE_FORMAT=3:3
;TYPE=PLATED
;Layer: PTH_Through
;EasyEDA v6.5.42, 2024-03-15 07:08:18
;07cce05110d743cda764b2ea28b01f41,76978c21ee6b45f5ab94bb382069c2cd,10
;Gerber Generator version 0.2
;Holesize 1 = 0.889 mm
T01C0.889
;Holesize 2 = 0.915 mm
T02C0.915
;Holesize 3 = 1.040 mm
T03C1.040
;Holesize 4 = 1.101 mm
T04C1.101
;Holesize 5 = 1.200 mm
T05C1.200
;Holesize 6 = 1.301 mm
T06C1.301
;Holesize 7 = 2.301 mm
T07C2.301
%
G05
G90
T01
X065659Y-063627
X063119Y-063627
X060579Y-063627
X058039Y-063627
T02
X004572Y-010668
X007112Y-010668
X009652Y-010668
X012192Y-010668
T03
X051689Y-060325
X051689Y-057785
X051689Y-055245
X051689Y-052705
X051689Y-050165
X051689Y-047625
X051689Y-045085
X051689Y-042545
X051689Y-040005
X051689Y-037465
X051689Y-034925
X051689Y-032385
X051689Y-029845
X051689Y-027305
X051689Y-024765
X051689Y-022225
X051689Y-019685
X051689Y-017145
X051689Y-014605
X077089Y-057785
X077089Y-055245
X077089Y-052705
X077089Y-050165
X077089Y-047625
X077089Y-045085
X077089Y-042545
X077089Y-040005
X077089Y-037465
X077089Y-034925
X077089Y-032385
X077089Y-029845
X077089Y-027305
X077089Y-024765
X077089Y-022225
X077089Y-019685
X077089Y-060325
X077089Y-017145
X077089Y-014605
T04
X080264Y-067945
X082804Y-067945
X060960Y-066802
X058420Y-066802
T05
X084896Y-037592
X084896Y-035052
X084896Y-032512
X016250Y-061540
X016250Y-059000
X016250Y-056460
X016250Y-037540
X016250Y-035000
X016250Y-032460
X016250Y-013540
X016250Y-011000
X016250Y-008460
T06
X095021Y-016250
X095021Y-003750
X090021Y-003750
X090021Y-016250
X090021Y-053750
X090021Y-066250
X095021Y-066250
X095021Y-053750
T07
X092396Y-040652
X092396Y-029452
X023750Y-064600
X023750Y-053400
X023750Y-040600
X023750Y-029400
X023750Y-016600
X023750Y-005400
M30
