G04 Layer: TopSilkscreenLayer*
G04 EasyEDA v6.5.42, 2024-03-15 07:08:18*
G04 07cce05110d743cda764b2ea28b01f41,76978c21ee6b45f5ab94bb382069c2cd,10*
G04 Gerber Generator version 0.2*
G04 Scale: 100 percent, Rotated: No, Reflected: No *
G04 Dimensions in millimeters *
G04 leading zeros omitted , absolute positions ,4 integer and 5 decimal *
%FSLAX45Y45*%
%MOMM*%

%ADD10C,0.1524*%
%ADD11C,0.2030*%
%ADD12C,0.2032*%

%LPD*%
D10*
X8192770Y-6539484D02*
G01*
X8192770Y-6622542D01*
X8187436Y-6638289D01*
X8182356Y-6643370D01*
X8171941Y-6648450D01*
X8161527Y-6648450D01*
X8151113Y-6643370D01*
X8145779Y-6638289D01*
X8140700Y-6622542D01*
X8140700Y-6612128D01*
X8237220Y-6539484D02*
G01*
X8294370Y-6539484D01*
X8263381Y-6581139D01*
X8278875Y-6581139D01*
X8289290Y-6586220D01*
X8294370Y-6591300D01*
X8299704Y-6607047D01*
X8299704Y-6617462D01*
X8294370Y-6632955D01*
X8284209Y-6643370D01*
X8268461Y-6648450D01*
X8252968Y-6648450D01*
X8237220Y-6643370D01*
X8232140Y-6638289D01*
X8227059Y-6627876D01*
X4215891Y-5827521D02*
G01*
X4205477Y-5832855D01*
X4195063Y-5843270D01*
X4189984Y-5853429D01*
X4189984Y-5874257D01*
X4195063Y-5884671D01*
X4205477Y-5895086D01*
X4215891Y-5900420D01*
X4231640Y-5905500D01*
X4257547Y-5905500D01*
X4273041Y-5900420D01*
X4283456Y-5895086D01*
X4293870Y-5884671D01*
X4298950Y-5874257D01*
X4298950Y-5853429D01*
X4293870Y-5843270D01*
X4283456Y-5832855D01*
X4273041Y-5827521D01*
X4210811Y-5793231D02*
G01*
X4205477Y-5782818D01*
X4189984Y-5767323D01*
X4298950Y-5767323D01*
X4114291Y-4786121D02*
G01*
X4103877Y-4791455D01*
X4093463Y-4801870D01*
X4088384Y-4812029D01*
X4088384Y-4832857D01*
X4093463Y-4843271D01*
X4103877Y-4853686D01*
X4114291Y-4859020D01*
X4130040Y-4864100D01*
X4155947Y-4864100D01*
X4171441Y-4859020D01*
X4181856Y-4853686D01*
X4192270Y-4843271D01*
X4197350Y-4832857D01*
X4197350Y-4812029D01*
X4192270Y-4801870D01*
X4181856Y-4791455D01*
X4171441Y-4786121D01*
X4114291Y-4746752D02*
G01*
X4109211Y-4746752D01*
X4098797Y-4741418D01*
X4093463Y-4736337D01*
X4088384Y-4725923D01*
X4088384Y-4705095D01*
X4093463Y-4694681D01*
X4098797Y-4689602D01*
X4109211Y-4684268D01*
X4119625Y-4684268D01*
X4130040Y-4689602D01*
X4145534Y-4700015D01*
X4197350Y-4751831D01*
X4197350Y-4679187D01*
X3975100Y-6008115D02*
G01*
X3975100Y-5899150D01*
X3975100Y-6008115D02*
G01*
X3928363Y-6008115D01*
X3912870Y-6003036D01*
X3907536Y-5997702D01*
X3902456Y-5987287D01*
X3902456Y-5976873D01*
X3907536Y-5966460D01*
X3912870Y-5961379D01*
X3928363Y-5956300D01*
X3975100Y-5956300D01*
X3938777Y-5956300D02*
G01*
X3902456Y-5899150D01*
X3868165Y-5987287D02*
G01*
X3857752Y-5992621D01*
X3842004Y-6008115D01*
X3842004Y-5899150D01*
X3937000Y-5271515D02*
G01*
X3937000Y-5162550D01*
X3937000Y-5271515D02*
G01*
X3890263Y-5271515D01*
X3874770Y-5266436D01*
X3869436Y-5261102D01*
X3864356Y-5250687D01*
X3864356Y-5240273D01*
X3869436Y-5229860D01*
X3874770Y-5224779D01*
X3890263Y-5219700D01*
X3937000Y-5219700D01*
X3900677Y-5219700D02*
G01*
X3864356Y-5162550D01*
X3824731Y-5245607D02*
G01*
X3824731Y-5250687D01*
X3819652Y-5261102D01*
X3814318Y-5266436D01*
X3803904Y-5271515D01*
X3783329Y-5271515D01*
X3772915Y-5266436D01*
X3767581Y-5261102D01*
X3762502Y-5250687D01*
X3762502Y-5240273D01*
X3767581Y-5229860D01*
X3777995Y-5214365D01*
X3830065Y-5162550D01*
X3757168Y-5162550D01*
X3719322Y-3734307D02*
G01*
X3724656Y-3744721D01*
X3735070Y-3755136D01*
X3745229Y-3760215D01*
X3766058Y-3760215D01*
X3776472Y-3755136D01*
X3786886Y-3744721D01*
X3792220Y-3734307D01*
X3797300Y-3718560D01*
X3797300Y-3692652D01*
X3792220Y-3677157D01*
X3786886Y-3666744D01*
X3776472Y-3656329D01*
X3766058Y-3651250D01*
X3745229Y-3651250D01*
X3735070Y-3656329D01*
X3724656Y-3666744D01*
X3719322Y-3677157D01*
X3674618Y-3760215D02*
G01*
X3617468Y-3760215D01*
X3648709Y-3718560D01*
X3633215Y-3718560D01*
X3622802Y-3713479D01*
X3617468Y-3708400D01*
X3612388Y-3692652D01*
X3612388Y-3682237D01*
X3617468Y-3666744D01*
X3627881Y-3656329D01*
X3643629Y-3651250D01*
X3659124Y-3651250D01*
X3674618Y-3656329D01*
X3679952Y-3661410D01*
X3685031Y-3671823D01*
X3849877Y-3758692D02*
G01*
X3844543Y-3748278D01*
X3834129Y-3737863D01*
X3823970Y-3732784D01*
X3803141Y-3732784D01*
X3792727Y-3737863D01*
X3782313Y-3748278D01*
X3776979Y-3758692D01*
X3771900Y-3774439D01*
X3771900Y-3800347D01*
X3776979Y-3815842D01*
X3782313Y-3826255D01*
X3792727Y-3836670D01*
X3803141Y-3841750D01*
X3823970Y-3841750D01*
X3834129Y-3836670D01*
X3844543Y-3826255D01*
X3849877Y-3815842D01*
X3935984Y-3732784D02*
G01*
X3884168Y-3805428D01*
X3962145Y-3805428D01*
X3935984Y-3732784D02*
G01*
X3935984Y-3841750D01*
X3376422Y-1435607D02*
G01*
X3381756Y-1446021D01*
X3392170Y-1456436D01*
X3402329Y-1461515D01*
X3423158Y-1461515D01*
X3433572Y-1456436D01*
X3443986Y-1446021D01*
X3449320Y-1435607D01*
X3454400Y-1419860D01*
X3454400Y-1393952D01*
X3449320Y-1378457D01*
X3443986Y-1368044D01*
X3433572Y-1357629D01*
X3423158Y-1352550D01*
X3402329Y-1352550D01*
X3392170Y-1357629D01*
X3381756Y-1368044D01*
X3376422Y-1378457D01*
X3279902Y-1461515D02*
G01*
X3331718Y-1461515D01*
X3337052Y-1414779D01*
X3331718Y-1419860D01*
X3316224Y-1425194D01*
X3300729Y-1425194D01*
X3284981Y-1419860D01*
X3274568Y-1409700D01*
X3269488Y-1393952D01*
X3269488Y-1383537D01*
X3274568Y-1368044D01*
X3284981Y-1357629D01*
X3300729Y-1352550D01*
X3316224Y-1352550D01*
X3331718Y-1357629D01*
X3337052Y-1362710D01*
X3342131Y-1373123D01*
X3456177Y-2564892D02*
G01*
X3450843Y-2554478D01*
X3440429Y-2544063D01*
X3430270Y-2538984D01*
X3409441Y-2538984D01*
X3399027Y-2544063D01*
X3388613Y-2554478D01*
X3383279Y-2564892D01*
X3378200Y-2580639D01*
X3378200Y-2606547D01*
X3383279Y-2622042D01*
X3388613Y-2632455D01*
X3399027Y-2642870D01*
X3409441Y-2647950D01*
X3430270Y-2647950D01*
X3440429Y-2642870D01*
X3450843Y-2632455D01*
X3456177Y-2622042D01*
X3552697Y-2554478D02*
G01*
X3547618Y-2544063D01*
X3531870Y-2538984D01*
X3521709Y-2538984D01*
X3505961Y-2544063D01*
X3495547Y-2559812D01*
X3490468Y-2585720D01*
X3490468Y-2611628D01*
X3495547Y-2632455D01*
X3505961Y-2642870D01*
X3521709Y-2647950D01*
X3526790Y-2647950D01*
X3542284Y-2642870D01*
X3552697Y-2632455D01*
X3558031Y-2616962D01*
X3558031Y-2611628D01*
X3552697Y-2596134D01*
X3542284Y-2585720D01*
X3526790Y-2580639D01*
X3521709Y-2580639D01*
X3505961Y-2585720D01*
X3495547Y-2596134D01*
X3490468Y-2611628D01*
X3657600Y-3518915D02*
G01*
X3657600Y-3409950D01*
X3657600Y-3518915D02*
G01*
X3610863Y-3518915D01*
X3595370Y-3513836D01*
X3590036Y-3508502D01*
X3584956Y-3498087D01*
X3584956Y-3487673D01*
X3590036Y-3477260D01*
X3595370Y-3472179D01*
X3610863Y-3467100D01*
X3657600Y-3467100D01*
X3621277Y-3467100D02*
G01*
X3584956Y-3409950D01*
X3540252Y-3518915D02*
G01*
X3483102Y-3518915D01*
X3514090Y-3477260D01*
X3498595Y-3477260D01*
X3488181Y-3472179D01*
X3483102Y-3467100D01*
X3477768Y-3451352D01*
X3477768Y-3440937D01*
X3483102Y-3425444D01*
X3493515Y-3415029D01*
X3509009Y-3409950D01*
X3524504Y-3409950D01*
X3540252Y-3415029D01*
X3545331Y-3420110D01*
X3550665Y-3430523D01*
X3797300Y-4585715D02*
G01*
X3797300Y-4476750D01*
X3797300Y-4585715D02*
G01*
X3750563Y-4585715D01*
X3735070Y-4580636D01*
X3729736Y-4575302D01*
X3724656Y-4564887D01*
X3724656Y-4554473D01*
X3729736Y-4544060D01*
X3735070Y-4538979D01*
X3750563Y-4533900D01*
X3797300Y-4533900D01*
X3760977Y-4533900D02*
G01*
X3724656Y-4476750D01*
X3638295Y-4585715D02*
G01*
X3690365Y-4513071D01*
X3612388Y-4513071D01*
X3638295Y-4585715D02*
G01*
X3638295Y-4476750D01*
X3365500Y-1105915D02*
G01*
X3365500Y-996950D01*
X3365500Y-1105915D02*
G01*
X3318763Y-1105915D01*
X3303270Y-1100836D01*
X3297936Y-1095502D01*
X3292856Y-1085087D01*
X3292856Y-1074673D01*
X3297936Y-1064260D01*
X3303270Y-1059179D01*
X3318763Y-1054100D01*
X3365500Y-1054100D01*
X3329177Y-1054100D02*
G01*
X3292856Y-996950D01*
X3196081Y-1105915D02*
G01*
X3248152Y-1105915D01*
X3253231Y-1059179D01*
X3248152Y-1064260D01*
X3232404Y-1069594D01*
X3216909Y-1069594D01*
X3201415Y-1064260D01*
X3191002Y-1054100D01*
X3185668Y-1038352D01*
X3185668Y-1027937D01*
X3191002Y-1012444D01*
X3201415Y-1002029D01*
X3216909Y-996950D01*
X3232404Y-996950D01*
X3248152Y-1002029D01*
X3253231Y-1007110D01*
X3258565Y-1017523D01*
X3340100Y-2718815D02*
G01*
X3340100Y-2609850D01*
X3340100Y-2718815D02*
G01*
X3293363Y-2718815D01*
X3277870Y-2713736D01*
X3272536Y-2708402D01*
X3267456Y-2697987D01*
X3267456Y-2687573D01*
X3272536Y-2677160D01*
X3277870Y-2672079D01*
X3293363Y-2667000D01*
X3340100Y-2667000D01*
X3303777Y-2667000D02*
G01*
X3267456Y-2609850D01*
X3170681Y-2703321D02*
G01*
X3176015Y-2713736D01*
X3191509Y-2718815D01*
X3201924Y-2718815D01*
X3217418Y-2713736D01*
X3227831Y-2697987D01*
X3233165Y-2672079D01*
X3233165Y-2646171D01*
X3227831Y-2625344D01*
X3217418Y-2614929D01*
X3201924Y-2609850D01*
X3196590Y-2609850D01*
X3181095Y-2614929D01*
X3170681Y-2625344D01*
X3165602Y-2640837D01*
X3165602Y-2646171D01*
X3170681Y-2661665D01*
X3181095Y-2672079D01*
X3196590Y-2677160D01*
X3201924Y-2677160D01*
X3217418Y-2672079D01*
X3227831Y-2661665D01*
X3233165Y-2646171D01*
X8875522Y-5017007D02*
G01*
X8880856Y-5027421D01*
X8891270Y-5037836D01*
X8901429Y-5042915D01*
X8922258Y-5042915D01*
X8932672Y-5037836D01*
X8943086Y-5027421D01*
X8948420Y-5017007D01*
X8953500Y-5001260D01*
X8953500Y-4975352D01*
X8948420Y-4959857D01*
X8943086Y-4949444D01*
X8932672Y-4939029D01*
X8922258Y-4933950D01*
X8901429Y-4933950D01*
X8891270Y-4939029D01*
X8880856Y-4949444D01*
X8875522Y-4959857D01*
X8768588Y-5042915D02*
G01*
X8820404Y-4933950D01*
X8841231Y-5042915D02*
G01*
X8768588Y-5042915D01*
X8357108Y-4459478D02*
G01*
X8367522Y-4454144D01*
X8377936Y-4443729D01*
X8383015Y-4433570D01*
X8383015Y-4412742D01*
X8377936Y-4402328D01*
X8367522Y-4391913D01*
X8357108Y-4386579D01*
X8341359Y-4381500D01*
X8315452Y-4381500D01*
X8299958Y-4386579D01*
X8289543Y-4391913D01*
X8279129Y-4402328D01*
X8274050Y-4412742D01*
X8274050Y-4433570D01*
X8279129Y-4443729D01*
X8289543Y-4454144D01*
X8299958Y-4459478D01*
X8383015Y-4519676D02*
G01*
X8377936Y-4504181D01*
X8367522Y-4498847D01*
X8357108Y-4498847D01*
X8346693Y-4504181D01*
X8341359Y-4514595D01*
X8336279Y-4535170D01*
X8331200Y-4550918D01*
X8320786Y-4561331D01*
X8310372Y-4566412D01*
X8294624Y-4566412D01*
X8284209Y-4561331D01*
X8279129Y-4555997D01*
X8274050Y-4540504D01*
X8274050Y-4519676D01*
X8279129Y-4504181D01*
X8284209Y-4498847D01*
X8294624Y-4493768D01*
X8310372Y-4493768D01*
X8320786Y-4498847D01*
X8331200Y-4509262D01*
X8336279Y-4525010D01*
X8341359Y-4545584D01*
X8346693Y-4555997D01*
X8357108Y-4561331D01*
X8367522Y-4561331D01*
X8377936Y-4555997D01*
X8383015Y-4540504D01*
X8383015Y-4519676D01*
X8228584Y-4597400D02*
G01*
X8337550Y-4597400D01*
X8228584Y-4597400D02*
G01*
X8228584Y-4550663D01*
X8233663Y-4535170D01*
X8238997Y-4529836D01*
X8249411Y-4524755D01*
X8259825Y-4524755D01*
X8270240Y-4529836D01*
X8275320Y-4535170D01*
X8280400Y-4550663D01*
X8280400Y-4597400D01*
X8280400Y-4561078D02*
G01*
X8337550Y-4524755D01*
X8228584Y-4417568D02*
G01*
X8337550Y-4469637D01*
X8228584Y-4490465D02*
G01*
X8228584Y-4417568D01*
X7834884Y-3771900D02*
G01*
X7943850Y-3771900D01*
X7834884Y-3771900D02*
G01*
X7834884Y-3725163D01*
X7839963Y-3709670D01*
X7845297Y-3704336D01*
X7855711Y-3699255D01*
X7866125Y-3699255D01*
X7876540Y-3704336D01*
X7881620Y-3709670D01*
X7886700Y-3725163D01*
X7886700Y-3771900D01*
X7886700Y-3735578D02*
G01*
X7943850Y-3699255D01*
X7834884Y-3638804D02*
G01*
X7839963Y-3654552D01*
X7850377Y-3659631D01*
X7860791Y-3659631D01*
X7871206Y-3654552D01*
X7876540Y-3644137D01*
X7881620Y-3623310D01*
X7886700Y-3607815D01*
X7897113Y-3597402D01*
X7907527Y-3592068D01*
X7923275Y-3592068D01*
X7933690Y-3597402D01*
X7938770Y-3602481D01*
X7943850Y-3618229D01*
X7943850Y-3638804D01*
X7938770Y-3654552D01*
X7933690Y-3659631D01*
X7923275Y-3664965D01*
X7907527Y-3664965D01*
X7897113Y-3659631D01*
X7886700Y-3649218D01*
X7881620Y-3633723D01*
X7876540Y-3612895D01*
X7871206Y-3602481D01*
X7860791Y-3597402D01*
X7850377Y-3597402D01*
X7839963Y-3602481D01*
X7834884Y-3618229D01*
X7834884Y-3638804D01*
D11*
X8407400Y-6667500D02*
G01*
X8089900Y-6667500D01*
D12*
X8407400Y-6667500D02*
G01*
X8407400Y-6921500D01*
X7899400Y-6921500D01*
X7899400Y-6667500D01*
X8089900Y-6667500D01*
D10*
X4348439Y-5638980D02*
G01*
X4348439Y-5787478D01*
X4566960Y-5787478D02*
G01*
X4566960Y-5638980D01*
X4551720Y-5623740D02*
G01*
X4363679Y-5623740D01*
X4348439Y-6121219D02*
G01*
X4348439Y-5972721D01*
X4566960Y-5972721D02*
G01*
X4566960Y-6121219D01*
X4551720Y-6136459D02*
G01*
X4363679Y-6136459D01*
X4246839Y-4597580D02*
G01*
X4246839Y-4746078D01*
X4465360Y-4746078D02*
G01*
X4465360Y-4597580D01*
X4450120Y-4582340D02*
G01*
X4262079Y-4582340D01*
X4246839Y-5079819D02*
G01*
X4246839Y-4931321D01*
X4465360Y-4931321D02*
G01*
X4465360Y-5079819D01*
X4450120Y-5095059D02*
G01*
X4262079Y-5095059D01*
X3879979Y-5632490D02*
G01*
X3743987Y-5632490D01*
X3743987Y-5848309D01*
X3879979Y-5848309D01*
X4070220Y-5632490D02*
G01*
X4206212Y-5632490D01*
X4206212Y-5848309D01*
X4070220Y-5848309D01*
X3841879Y-4895890D02*
G01*
X3705887Y-4895890D01*
X3705887Y-5111709D01*
X3841879Y-5111709D01*
X4032120Y-4895890D02*
G01*
X4168112Y-4895890D01*
X4168112Y-5111709D01*
X4032120Y-5111709D01*
X3530780Y-3601760D02*
G01*
X3679278Y-3601760D01*
X3679278Y-3383239D02*
G01*
X3530780Y-3383239D01*
X3515540Y-3398479D02*
G01*
X3515540Y-3586520D01*
X4013019Y-3601760D02*
G01*
X3864521Y-3601760D01*
X3864521Y-3383239D02*
G01*
X4013019Y-3383239D01*
X4028259Y-3398479D02*
G01*
X4028259Y-3586520D01*
X4038419Y-3891239D02*
G01*
X3889921Y-3891239D01*
X3889921Y-4109760D02*
G01*
X4038419Y-4109760D01*
X4053659Y-4094520D02*
G01*
X4053659Y-3906479D01*
X3556180Y-3891239D02*
G01*
X3704678Y-3891239D01*
X3704678Y-4109760D02*
G01*
X3556180Y-4109760D01*
X3540940Y-4094520D02*
G01*
X3540940Y-3906479D01*
X3187880Y-1303060D02*
G01*
X3336378Y-1303060D01*
X3336378Y-1084539D02*
G01*
X3187880Y-1084539D01*
X3172640Y-1099779D02*
G01*
X3172640Y-1287820D01*
X3670119Y-1303060D02*
G01*
X3521621Y-1303060D01*
X3521621Y-1084539D02*
G01*
X3670119Y-1084539D01*
X3685359Y-1099779D02*
G01*
X3685359Y-1287820D01*
X3644719Y-2697439D02*
G01*
X3496221Y-2697439D01*
X3496221Y-2915960D02*
G01*
X3644719Y-2915960D01*
X3659959Y-2900720D02*
G01*
X3659959Y-2712679D01*
X3162480Y-2697439D02*
G01*
X3310978Y-2697439D01*
X3310978Y-2915960D02*
G01*
X3162480Y-2915960D01*
X3147240Y-2900720D02*
G01*
X3147240Y-2712679D01*
X3562479Y-3143290D02*
G01*
X3426487Y-3143290D01*
X3426487Y-3359109D01*
X3562479Y-3359109D01*
X3752720Y-3143290D02*
G01*
X3888712Y-3143290D01*
X3888712Y-3359109D01*
X3752720Y-3359109D01*
X3702179Y-4210090D02*
G01*
X3566187Y-4210090D01*
X3566187Y-4425909D01*
X3702179Y-4425909D01*
X3892420Y-4210090D02*
G01*
X4028412Y-4210090D01*
X4028412Y-4425909D01*
X3892420Y-4425909D01*
X3270379Y-730290D02*
G01*
X3134387Y-730290D01*
X3134387Y-946109D01*
X3270379Y-946109D01*
X3460620Y-730290D02*
G01*
X3596612Y-730290D01*
X3596612Y-946109D01*
X3460620Y-946109D01*
X3244979Y-2343190D02*
G01*
X3108987Y-2343190D01*
X3108987Y-2559009D01*
X3244979Y-2559009D01*
X3435220Y-2343190D02*
G01*
X3571212Y-2343190D01*
X3571212Y-2559009D01*
X3435220Y-2559009D01*
X8686980Y-4884460D02*
G01*
X8835478Y-4884460D01*
X8835478Y-4665939D02*
G01*
X8686980Y-4665939D01*
X8671740Y-4681179D02*
G01*
X8671740Y-4869220D01*
X9169219Y-4884460D02*
G01*
X9020721Y-4884460D01*
X9020721Y-4665939D02*
G01*
X9169219Y-4665939D01*
X9184459Y-4681179D02*
G01*
X9184459Y-4869220D01*
X8224560Y-4648019D02*
G01*
X8224560Y-4499521D01*
X8006039Y-4499521D02*
G01*
X8006039Y-4648019D01*
X8021279Y-4663259D02*
G01*
X8209320Y-4663259D01*
X8224560Y-4165780D02*
G01*
X8224560Y-4314278D01*
X8006039Y-4314278D02*
G01*
X8006039Y-4165780D01*
X8021279Y-4150540D02*
G01*
X8209320Y-4150540D01*
X8604209Y-4502279D02*
G01*
X8604209Y-4366287D01*
X8388390Y-4366287D01*
X8388390Y-4502279D01*
X8604209Y-4692520D02*
G01*
X8604209Y-4828512D01*
X8388390Y-4828512D01*
X8388390Y-4692520D01*
X8210509Y-3676779D02*
G01*
X8210509Y-3540787D01*
X7994690Y-3540787D01*
X7994690Y-3676779D01*
X8210509Y-3867020D02*
G01*
X8210509Y-4003012D01*
X7994690Y-4003012D01*
X7994690Y-3867020D01*
G75*
G01*
X4566961Y-5638980D02*
G03*
X4551721Y-5623740I-15240J0D01*
G75*
G01*
X4363679Y-5623740D02*
G03*
X4348439Y-5638980I0J-15240D01*
G75*
G01*
X4566961Y-6121220D02*
G02*
X4551721Y-6136460I-15240J0D01*
G75*
G01*
X4363679Y-6136460D02*
G02*
X4348439Y-6121220I0J15240D01*
G75*
G01*
X4465361Y-4597580D02*
G03*
X4450121Y-4582340I-15240J0D01*
G75*
G01*
X4262079Y-4582340D02*
G03*
X4246839Y-4597580I0J-15240D01*
G75*
G01*
X4465361Y-5079820D02*
G02*
X4450121Y-5095060I-15240J0D01*
G75*
G01*
X4262079Y-5095060D02*
G02*
X4246839Y-5079820I0J15240D01*
G75*
G01*
X3530780Y-3383239D02*
G03*
X3515540Y-3398479I0J-15240D01*
G75*
G01*
X3515540Y-3586521D02*
G03*
X3530780Y-3601761I15240J0D01*
G75*
G01*
X4013020Y-3383239D02*
G02*
X4028260Y-3398479I0J-15240D01*
G75*
G01*
X4028260Y-3586521D02*
G02*
X4013020Y-3601761I-15240J0D01*
G75*
G01*
X4038420Y-4109761D02*
G03*
X4053660Y-4094521I0J15240D01*
G75*
G01*
X4053660Y-3906479D02*
G03*
X4038420Y-3891239I-15240J0D01*
G75*
G01*
X3556180Y-4109761D02*
G02*
X3540940Y-4094521I0J15240D01*
G75*
G01*
X3540940Y-3906479D02*
G02*
X3556180Y-3891239I15240J0D01*
G75*
G01*
X3187880Y-1084539D02*
G03*
X3172640Y-1099779I0J-15240D01*
G75*
G01*
X3172640Y-1287821D02*
G03*
X3187880Y-1303061I15240J0D01*
G75*
G01*
X3670120Y-1084539D02*
G02*
X3685360Y-1099779I0J-15240D01*
G75*
G01*
X3685360Y-1287821D02*
G02*
X3670120Y-1303061I-15240J0D01*
G75*
G01*
X3644720Y-2915961D02*
G03*
X3659960Y-2900721I0J15240D01*
G75*
G01*
X3659960Y-2712679D02*
G03*
X3644720Y-2697439I-15240J0D01*
G75*
G01*
X3162480Y-2915961D02*
G02*
X3147240Y-2900721I0J15240D01*
G75*
G01*
X3147240Y-2712679D02*
G02*
X3162480Y-2697439I15240J0D01*
G75*
G01*
X8686980Y-4665939D02*
G03*
X8671740Y-4681179I0J-15240D01*
G75*
G01*
X8671740Y-4869221D02*
G03*
X8686980Y-4884461I15240J0D01*
G75*
G01*
X9169220Y-4665939D02*
G02*
X9184460Y-4681179I0J-15240D01*
G75*
G01*
X9184460Y-4869221D02*
G02*
X9169220Y-4884461I-15240J0D01*
G75*
G01*
X8006039Y-4648020D02*
G03*
X8021279Y-4663260I15240J0D01*
G75*
G01*
X8209321Y-4663260D02*
G03*
X8224561Y-4648020I0J15240D01*
G75*
G01*
X8006039Y-4165780D02*
G02*
X8021279Y-4150540I15240J0D01*
G75*
G01*
X8209321Y-4150540D02*
G02*
X8224561Y-4165780I0J-15240D01*
M02*
