G04 Layer: TopSolderMaskLayer*
G04 EasyEDA v6.5.42, 2024-03-15 07:08:18*
G04 07cce05110d743cda764b2ea28b01f41,76978c21ee6b45f5ab94bb382069c2cd,10*
G04 Gerber Generator version 0.2*
G04 Scale: 100 percent, Rotated: No, Reflected: No *
G04 Dimensions in millimeters *
G04 leading zeros omitted , absolute positions ,4 integer and 5 decimal *
%FSLAX45Y45*%
%MOMM*%

%AMMACRO1*1,1,$1,$2,$3*1,1,$1,$4,$5*1,1,$1,0-$2,0-$3*1,1,$1,0-$4,0-$5*20,1,$1,$2,$3,$4,$5,0*20,1,$1,$4,$5,0-$2,0-$3,0*20,1,$1,0-$2,0-$3,0-$4,0-$5,0*20,1,$1,0-$4,0-$5,$2,$3,0*4,1,4,$2,$3,$4,$5,0-$2,0-$3,0-$4,0-$5,$2,$3,0*%
%ADD10O,1.8015966X2.601595*%
%ADD11R,1.8296X1.5866*%
%ADD12MACRO1,0.1016X0.6038X0.8505X0.6038X-0.8505*%
%ADD13MACRO1,0.1016X-0.6038X0.8505X-0.6038X-0.8505*%
%ADD14MACRO1,0.1016X0.7425X0.864X0.7425X-0.864*%
%ADD15MACRO1,0.1016X-0.7425X0.864X-0.7425X-0.864*%
%ADD16MACRO1,0.1016X-0.7425X-0.864X-0.7425X0.864*%
%ADD17MACRO1,0.1016X0.7425X-0.864X0.7425X0.864*%
%ADD18MACRO1,0.1016X-0.864X0.7425X0.864X0.7425*%
%ADD19MACRO1,0.1016X-0.864X-0.7425X0.864X-0.7425*%
%ADD20R,1.8026X1.3091*%
%ADD21O,2.601595X1.9015964*%
%ADD22O,3.6015930000000003X3.4015934000000003*%
%ADD23O,2.601595X1.6616680000000001*%
%ADD24C,1.6256*%
%ADD25R,1.6256X1.6256*%
%ADD26C,2.7000*%
%ADD27C,2.6016*%
%ADD28MACRO1,0.1016X0.7874X0.7874X-0.7874X0.7874*%
%ADD29C,1.6764*%

%LPD*%
D10*
G01*
X8026400Y-6794500D03*
G01*
X8280400Y-6794500D03*
D11*
G01*
X4457700Y-5720842D03*
G01*
X4457700Y-6039357D03*
G01*
X4356100Y-4679442D03*
G01*
X4356100Y-4997957D03*
D12*
G01*
X3827223Y-5740400D03*
D13*
G01*
X4122976Y-5740400D03*
D12*
G01*
X3789123Y-5003800D03*
D13*
G01*
X4084876Y-5003800D03*
D14*
G01*
X3612649Y-3492500D03*
D15*
G01*
X3931150Y-3492500D03*
D16*
G01*
X3956550Y-4000500D03*
D17*
G01*
X3638049Y-4000500D03*
D14*
G01*
X3269749Y-1193800D03*
D15*
G01*
X3588250Y-1193800D03*
D16*
G01*
X3562850Y-2806700D03*
D17*
G01*
X3244349Y-2806700D03*
D12*
G01*
X3509723Y-3251200D03*
D13*
G01*
X3805476Y-3251200D03*
D12*
G01*
X3649423Y-4318000D03*
D13*
G01*
X3945176Y-4318000D03*
D12*
G01*
X3217623Y-838200D03*
D13*
G01*
X3513376Y-838200D03*
D12*
G01*
X3192223Y-2451100D03*
D13*
G01*
X3487976Y-2451100D03*
D14*
G01*
X8768849Y-4775200D03*
D15*
G01*
X9087350Y-4775200D03*
D18*
G01*
X8115300Y-4566150D03*
D19*
G01*
X8115300Y-4247649D03*
D20*
G01*
X8496300Y-4449521D03*
G01*
X8496300Y-4745278D03*
G01*
X8102600Y-3624021D03*
G01*
X8102600Y-3919778D03*
D21*
G01*
X8489594Y-3759200D03*
G01*
X8489594Y-3505200D03*
G01*
X8489594Y-3251200D03*
D22*
G01*
X9239605Y-4065193D03*
G01*
X9239605Y-2945206D03*
D21*
G01*
X1624990Y-6153988D03*
G01*
X1624990Y-5899988D03*
G01*
X1624990Y-5645988D03*
D22*
G01*
X2375001Y-6459981D03*
G01*
X2375001Y-5339994D03*
D21*
G01*
X1624990Y-3753993D03*
G01*
X1624990Y-3499993D03*
G01*
X1624990Y-3245993D03*
D22*
G01*
X2375001Y-4059986D03*
G01*
X2375001Y-2939999D03*
D21*
G01*
X1624990Y-1353997D03*
G01*
X1624990Y-1099997D03*
G01*
X1624990Y-845997D03*
D22*
G01*
X2375001Y-1659991D03*
G01*
X2375001Y-540004D03*
D23*
G01*
X5168900Y-6032500D03*
G01*
X5168900Y-5778500D03*
G01*
X5168900Y-5524500D03*
G01*
X5168900Y-5270500D03*
G01*
X5168900Y-5016500D03*
G01*
X5168900Y-4762500D03*
G01*
X5168900Y-4508500D03*
G01*
X5168900Y-4254500D03*
G01*
X5168900Y-4000500D03*
G01*
X5168900Y-3746500D03*
G01*
X5168900Y-3492500D03*
G01*
X5168900Y-3238500D03*
G01*
X5168900Y-2984500D03*
G01*
X5168900Y-2730500D03*
G01*
X5168900Y-2476500D03*
G01*
X5168900Y-2222500D03*
G01*
X5168900Y-1968500D03*
G01*
X5168900Y-1714500D03*
G01*
X5168900Y-1460500D03*
G01*
X7708900Y-5778500D03*
G01*
X7708900Y-5524500D03*
G01*
X7708900Y-5270500D03*
G01*
X7708900Y-5016500D03*
G01*
X7708900Y-4762500D03*
G01*
X7708900Y-4508500D03*
G01*
X7708900Y-4254500D03*
G01*
X7708900Y-4000500D03*
G01*
X7708900Y-3746500D03*
G01*
X7708900Y-3492500D03*
G01*
X7708900Y-3238500D03*
G01*
X7708900Y-2984500D03*
G01*
X7708900Y-2730500D03*
G01*
X7708900Y-2476500D03*
G01*
X7708900Y-2222500D03*
G01*
X7708900Y-1968500D03*
G01*
X7708900Y-6032500D03*
G01*
X7708900Y-1714500D03*
G01*
X7708900Y-1460500D03*
D24*
G01*
X457200Y-1066800D03*
G01*
X711200Y-1066800D03*
G01*
X965200Y-1066800D03*
D25*
G01*
X1219200Y-1066800D03*
D26*
G01*
X9502063Y-1624990D03*
G01*
X9502063Y-375005D03*
G01*
X9002064Y-375005D03*
D27*
G01*
X9002064Y-1624990D03*
D26*
G01*
X9002090Y-5374995D03*
G01*
X9002090Y-6624980D03*
G01*
X9502089Y-6624980D03*
D27*
G01*
X9502089Y-5374995D03*
D10*
G01*
X6096000Y-6680200D03*
G01*
X5842000Y-6680200D03*
D28*
G01*
X6565900Y-6362700D03*
D29*
G01*
X6311900Y-6362700D03*
G01*
X6057900Y-6362700D03*
G01*
X5803900Y-6362700D03*
M02*
