G04 Layer: TopLayer*
G04 EasyEDA v6.5.42, 2024-03-15 07:08:18*
G04 07cce05110d743cda764b2ea28b01f41,76978c21ee6b45f5ab94bb382069c2cd,10*
G04 Gerber Generator version 0.2*
G04 Scale: 100 percent, Rotated: No, Reflected: No *
G04 Dimensions in millimeters *
G04 leading zeros omitted , absolute positions ,4 integer and 5 decimal *
%FSLAX45Y45*%
%MOMM*%

%AMMACRO1*21,1,$1,$2,0,0,$3*%
%ADD10C,0.6000*%
%ADD11MACRO1,1.728X1.485X0.0000*%
%ADD12R,1.7280X1.4850*%
%ADD13MACRO1,1.701X1.2075X-90.0000*%
%ADD14MACRO1,1.728X1.485X-90.0000*%
%ADD15MACRO1,1.728X1.485X90.0000*%
%ADD16MACRO1,1.701X1.2075X0.0000*%
%ADD17R,1.7010X1.2075*%
%ADD18O,1.6999966X2.4999949999999997*%
%ADD19O,2.4999949999999997X1.7999964*%
%ADD20O,3.4999930000000004X3.2999934000000004*%
%ADD21O,2.4999949999999997X1.560068*%
%ADD22C,1.5240*%
%ADD23MACRO1,1.524X1.524X-90.0000*%
%ADD24C,2.5000*%
%ADD25MACRO1,1.5748X1.5748X0.0000*%
%ADD26C,1.5748*%
%ADD27C,0.0104*%

%LPD*%
G36*
X36068Y-7022592D02*
G01*
X32156Y-7021830D01*
X28905Y-7019594D01*
X26670Y-7016343D01*
X25908Y-7012431D01*
X25908Y-36068D01*
X26670Y-32156D01*
X28905Y-28905D01*
X32156Y-26670D01*
X36068Y-25908D01*
X621588Y-25908D01*
X625449Y-26670D01*
X628700Y-28803D01*
X630936Y-32054D01*
X631748Y-35915D01*
X631088Y-39776D01*
X628954Y-43078D01*
X625754Y-45313D01*
X618845Y-48412D01*
X612394Y-52476D01*
X604672Y-59029D01*
X414629Y-249072D01*
X408076Y-256794D01*
X402945Y-265328D01*
X399897Y-272643D01*
X397510Y-282346D01*
X397205Y-284429D01*
X396697Y-292404D01*
X396697Y-973785D01*
X395782Y-978001D01*
X393192Y-981456D01*
X381762Y-991362D01*
X372567Y-1001877D01*
X364794Y-1013460D01*
X358648Y-1025956D01*
X354126Y-1039164D01*
X351434Y-1052880D01*
X350520Y-1066800D01*
X351434Y-1080719D01*
X354126Y-1094435D01*
X358648Y-1107643D01*
X364794Y-1120140D01*
X372567Y-1131722D01*
X381762Y-1142238D01*
X392277Y-1151432D01*
X403860Y-1159205D01*
X416356Y-1165352D01*
X429564Y-1169873D01*
X443280Y-1172565D01*
X457200Y-1173480D01*
X471119Y-1172565D01*
X484835Y-1169873D01*
X498043Y-1165352D01*
X510540Y-1159205D01*
X522122Y-1151432D01*
X532638Y-1142238D01*
X541832Y-1131722D01*
X549605Y-1120140D01*
X555752Y-1107643D01*
X560273Y-1094435D01*
X562965Y-1080719D01*
X563880Y-1066800D01*
X562965Y-1052880D01*
X560273Y-1039164D01*
X555752Y-1025956D01*
X549605Y-1013460D01*
X541832Y-1001877D01*
X532638Y-991362D01*
X521208Y-981456D01*
X518617Y-978001D01*
X517702Y-973785D01*
X517702Y-321360D01*
X518464Y-317500D01*
X520700Y-314198D01*
X669798Y-165100D01*
X673100Y-162864D01*
X676960Y-162102D01*
X4144619Y-162102D01*
X4146956Y-162407D01*
X4386122Y-219354D01*
X4388713Y-220319D01*
X4390948Y-222046D01*
X5549900Y-1380998D01*
X5552135Y-1384300D01*
X5552897Y-1388160D01*
X5552897Y-1897837D01*
X5552135Y-1901698D01*
X5549900Y-1905000D01*
X5546598Y-1907235D01*
X5542737Y-1907997D01*
X5310936Y-1907997D01*
X5307787Y-1907489D01*
X5304993Y-1906066D01*
X5302707Y-1903780D01*
X5299506Y-1899361D01*
X5290159Y-1889404D01*
X5279644Y-1880717D01*
X5268163Y-1873453D01*
X5255818Y-1867611D01*
X5242864Y-1863394D01*
X5229504Y-1860854D01*
X5215585Y-1859991D01*
X5122214Y-1859991D01*
X5108295Y-1860854D01*
X5094935Y-1863394D01*
X5081981Y-1867611D01*
X5069636Y-1873453D01*
X5058156Y-1880717D01*
X5047640Y-1889404D01*
X5038293Y-1899361D01*
X5030317Y-1910384D01*
X5023713Y-1922322D01*
X5018735Y-1934972D01*
X5015331Y-1948180D01*
X5013604Y-1961692D01*
X5013604Y-1975307D01*
X5015331Y-1988820D01*
X5018735Y-2002028D01*
X5023713Y-2014677D01*
X5030317Y-2026615D01*
X5038293Y-2037638D01*
X5047640Y-2047595D01*
X5058156Y-2056282D01*
X5069636Y-2063546D01*
X5081981Y-2069388D01*
X5094935Y-2073605D01*
X5108295Y-2076145D01*
X5122214Y-2077008D01*
X5215585Y-2077008D01*
X5229504Y-2076145D01*
X5242864Y-2073605D01*
X5255818Y-2069388D01*
X5268163Y-2063546D01*
X5279644Y-2056282D01*
X5290159Y-2047595D01*
X5299506Y-2037638D01*
X5302707Y-2033219D01*
X5304993Y-2030933D01*
X5307787Y-2029510D01*
X5310936Y-2029002D01*
X5613196Y-2029002D01*
X5618378Y-2028799D01*
X5623356Y-2028189D01*
X5628233Y-2027123D01*
X5633059Y-2025700D01*
X5637682Y-2023922D01*
X5642203Y-2021687D01*
X5646470Y-2019147D01*
X5650534Y-2016252D01*
X5654395Y-2013000D01*
X5657900Y-2009495D01*
X5661152Y-2005634D01*
X5664047Y-2001570D01*
X5666587Y-1997303D01*
X5668822Y-1992782D01*
X5670600Y-1988159D01*
X5672023Y-1983333D01*
X5673090Y-1978456D01*
X5673699Y-1973478D01*
X5673902Y-1968296D01*
X5673902Y-1359204D01*
X5673394Y-1351229D01*
X5673090Y-1349146D01*
X5670702Y-1339443D01*
X5667654Y-1332128D01*
X5662523Y-1323594D01*
X5655970Y-1315872D01*
X4460036Y-120091D01*
X4454652Y-115773D01*
X4452061Y-114046D01*
X4446066Y-110693D01*
X4443222Y-109423D01*
X4436719Y-107086D01*
X4180433Y-45974D01*
X4176623Y-44145D01*
X4173880Y-40995D01*
X4172661Y-36982D01*
X4173118Y-32816D01*
X4175251Y-29209D01*
X4178655Y-26771D01*
X4182770Y-25908D01*
X10015982Y-25908D01*
X10019893Y-26670D01*
X10023144Y-28905D01*
X10025380Y-32156D01*
X10026142Y-36068D01*
X10026142Y-7012431D01*
X10025380Y-7016343D01*
X10023144Y-7019594D01*
X10019893Y-7021830D01*
X10015982Y-7022592D01*
G37*

%LPC*%
G36*
X9502089Y-530504D02*
G01*
X9519158Y-529539D01*
X9536074Y-526745D01*
X9552584Y-522071D01*
X9568434Y-515620D01*
X9583521Y-507441D01*
X9597593Y-497687D01*
X9610496Y-486460D01*
X9622078Y-473862D01*
X9632238Y-460044D01*
X9640824Y-445211D01*
X9647682Y-429514D01*
X9652812Y-413156D01*
X9656114Y-396341D01*
X9657486Y-379272D01*
X9657029Y-362153D01*
X9654692Y-345186D01*
X9650476Y-328574D01*
X9644481Y-312521D01*
X9636760Y-297230D01*
X9627362Y-282905D01*
X9616490Y-269697D01*
X9604197Y-257759D01*
X9590684Y-247192D01*
X9576104Y-238252D01*
X9560610Y-230936D01*
X9544405Y-225348D01*
X9527692Y-221640D01*
X9510623Y-219760D01*
X9493504Y-219760D01*
X9476486Y-221640D01*
X9459772Y-225348D01*
X9443567Y-230936D01*
X9428073Y-238252D01*
X9413494Y-247192D01*
X9399981Y-257759D01*
X9387687Y-269697D01*
X9376765Y-282905D01*
X9367418Y-297230D01*
X9359696Y-312521D01*
X9353651Y-328574D01*
X9349486Y-345186D01*
X9347098Y-362153D01*
X9346641Y-379272D01*
X9348063Y-396341D01*
X9351365Y-413156D01*
X9356445Y-429514D01*
X9363354Y-445211D01*
X9371888Y-460044D01*
X9382048Y-473862D01*
X9393631Y-486460D01*
X9406585Y-497687D01*
X9420656Y-507441D01*
X9435693Y-515620D01*
X9451594Y-522071D01*
X9468053Y-526745D01*
X9484969Y-529539D01*
G37*
G36*
X9002064Y-530504D02*
G01*
X9019184Y-529539D01*
X9036100Y-526745D01*
X9052560Y-522071D01*
X9068460Y-515620D01*
X9083497Y-507441D01*
X9097568Y-497687D01*
X9110522Y-486460D01*
X9122105Y-473862D01*
X9132265Y-460044D01*
X9140799Y-445211D01*
X9147708Y-429514D01*
X9152788Y-413156D01*
X9156090Y-396341D01*
X9157512Y-379272D01*
X9157055Y-362153D01*
X9154668Y-345186D01*
X9150502Y-328574D01*
X9144457Y-312521D01*
X9136735Y-297230D01*
X9127388Y-282905D01*
X9116466Y-269697D01*
X9104172Y-257759D01*
X9090660Y-247192D01*
X9076080Y-238252D01*
X9060586Y-230936D01*
X9044381Y-225348D01*
X9027668Y-221640D01*
X9010650Y-219760D01*
X8993530Y-219760D01*
X8976461Y-221640D01*
X8959748Y-225348D01*
X8943543Y-230936D01*
X8928049Y-238252D01*
X8913469Y-247192D01*
X8899956Y-257759D01*
X8887663Y-269697D01*
X8876792Y-282905D01*
X8867394Y-297230D01*
X8859672Y-312521D01*
X8853678Y-328574D01*
X8849461Y-345186D01*
X8847124Y-362153D01*
X8846667Y-379272D01*
X8848039Y-396341D01*
X8851341Y-413156D01*
X8856472Y-429514D01*
X8863330Y-445211D01*
X8871915Y-460044D01*
X8882075Y-473862D01*
X8893657Y-486460D01*
X8906560Y-497687D01*
X8920632Y-507441D01*
X8935720Y-515620D01*
X8951569Y-522071D01*
X8968079Y-526745D01*
X8984996Y-529539D01*
G37*
G36*
X8329269Y-6939127D02*
G01*
X8342274Y-6932015D01*
X8354009Y-6923481D01*
X8364575Y-6913575D01*
X8373821Y-6902399D01*
X8381593Y-6890156D01*
X8387791Y-6876999D01*
X8392210Y-6863334D01*
X8329269Y-6863334D01*
G37*
G36*
X8231530Y-6939127D02*
G01*
X8231530Y-6863334D01*
X8168589Y-6863334D01*
X8173008Y-6876999D01*
X8179206Y-6890156D01*
X8186978Y-6902399D01*
X8196224Y-6913575D01*
X8206790Y-6923481D01*
X8218525Y-6932015D01*
G37*
G36*
X1590294Y-966520D02*
G01*
X1659686Y-966520D01*
X1674520Y-965606D01*
X1681835Y-964285D01*
X1686001Y-964437D01*
X1688236Y-963168D01*
X1702714Y-958646D01*
X1715973Y-952703D01*
X1728419Y-945134D01*
X1739900Y-936193D01*
X1750161Y-925880D01*
X1759356Y-914196D01*
X1761591Y-912114D01*
X1764284Y-910742D01*
X1767281Y-910285D01*
X3116478Y-899515D01*
X3120390Y-900277D01*
X3123742Y-902462D01*
X3125978Y-905764D01*
X3126740Y-909675D01*
X3126740Y-922731D01*
X3127349Y-929182D01*
X3129127Y-934923D01*
X3131921Y-940155D01*
X3135731Y-944778D01*
X3140303Y-948588D01*
X3145586Y-951382D01*
X3151327Y-953109D01*
X3157728Y-953769D01*
X3277514Y-953769D01*
X3283965Y-953109D01*
X3289655Y-951382D01*
X3294938Y-948588D01*
X3299561Y-944778D01*
X3303320Y-940155D01*
X3306114Y-934923D01*
X3307892Y-929182D01*
X3308502Y-922731D01*
X3308502Y-753668D01*
X3307892Y-747217D01*
X3306114Y-741476D01*
X3303320Y-736244D01*
X3299561Y-731621D01*
X3294938Y-727811D01*
X3289655Y-725017D01*
X3283965Y-723290D01*
X3277514Y-722630D01*
X3157728Y-722630D01*
X3151327Y-723290D01*
X3145586Y-725017D01*
X3140303Y-727811D01*
X3135731Y-731621D01*
X3131921Y-736244D01*
X3129127Y-741476D01*
X3127349Y-747217D01*
X3126740Y-753668D01*
X3126740Y-768350D01*
X3125978Y-772210D01*
X3123793Y-775512D01*
X3120542Y-777697D01*
X3116681Y-778510D01*
X1772005Y-789228D01*
X1768551Y-788670D01*
X1765554Y-786942D01*
X1763217Y-784301D01*
X1759153Y-777544D01*
X1750161Y-766114D01*
X1739900Y-755802D01*
X1728419Y-746861D01*
X1715973Y-739292D01*
X1702714Y-733348D01*
X1688846Y-729030D01*
X1674520Y-726389D01*
X1659686Y-725474D01*
X1590294Y-725474D01*
X1575460Y-726389D01*
X1561134Y-729030D01*
X1547266Y-733348D01*
X1534007Y-739292D01*
X1521561Y-746861D01*
X1510080Y-755802D01*
X1499819Y-766114D01*
X1490827Y-777544D01*
X1483309Y-789990D01*
X1477314Y-803249D01*
X1472996Y-817168D01*
X1470355Y-831494D01*
X1469491Y-846023D01*
X1470355Y-860501D01*
X1472996Y-874826D01*
X1477314Y-888746D01*
X1483309Y-902004D01*
X1490827Y-914450D01*
X1499819Y-925880D01*
X1510080Y-936193D01*
X1521561Y-945134D01*
X1534007Y-952703D01*
X1547266Y-958646D01*
X1561744Y-963168D01*
X1563979Y-964437D01*
X1568145Y-964285D01*
X1575460Y-965606D01*
G37*
G36*
X5834735Y-6835444D02*
G01*
X5849264Y-6835444D01*
X5863640Y-6833666D01*
X5877712Y-6830059D01*
X5891174Y-6824675D01*
X5903874Y-6817715D01*
X5915609Y-6809181D01*
X5926175Y-6799275D01*
X5935421Y-6788099D01*
X5943193Y-6775856D01*
X5949391Y-6762699D01*
X5953861Y-6748932D01*
X5956554Y-6734657D01*
X5957519Y-6719874D01*
X5957519Y-6640525D01*
X5956554Y-6625742D01*
X5953861Y-6611467D01*
X5949391Y-6597700D01*
X5943193Y-6584543D01*
X5935421Y-6572300D01*
X5926175Y-6561124D01*
X5915609Y-6551218D01*
X5903874Y-6542684D01*
X5891174Y-6535724D01*
X5877712Y-6530340D01*
X5872022Y-6528917D01*
X5868111Y-6526885D01*
X5865368Y-6523380D01*
X5864402Y-6519062D01*
X5864402Y-6458712D01*
X5864910Y-6455511D01*
X5866434Y-6452616D01*
X5868771Y-6450380D01*
X5872022Y-6448094D01*
X5882386Y-6438696D01*
X5891428Y-6428028D01*
X5899048Y-6416294D01*
X5905144Y-6403695D01*
X5909564Y-6390386D01*
X5912205Y-6376670D01*
X5913120Y-6362700D01*
X5912205Y-6348730D01*
X5909564Y-6335014D01*
X5905144Y-6321704D01*
X5899048Y-6309106D01*
X5891428Y-6297371D01*
X5882386Y-6286703D01*
X5872022Y-6277305D01*
X5868771Y-6275019D01*
X5866434Y-6272784D01*
X5864910Y-6269888D01*
X5864402Y-6266688D01*
X5864402Y-5020360D01*
X5865164Y-5016500D01*
X5867400Y-5013198D01*
X6646570Y-4234027D01*
X6653123Y-4226306D01*
X6658254Y-4217771D01*
X6661302Y-4210456D01*
X6663690Y-4200753D01*
X6663994Y-4198670D01*
X6664502Y-4190695D01*
X6664502Y-3563162D01*
X6665264Y-3559301D01*
X6667500Y-3556000D01*
X6670802Y-3553764D01*
X6674662Y-3553002D01*
X7566863Y-3553002D01*
X7570012Y-3553510D01*
X7572806Y-3554933D01*
X7575092Y-3557219D01*
X7578293Y-3561638D01*
X7587640Y-3571595D01*
X7598156Y-3580282D01*
X7609636Y-3587546D01*
X7621981Y-3593388D01*
X7634935Y-3597605D01*
X7648295Y-3600145D01*
X7662214Y-3601008D01*
X7755585Y-3601008D01*
X7769504Y-3600145D01*
X7782864Y-3597605D01*
X7795818Y-3593388D01*
X7808163Y-3587546D01*
X7819644Y-3580282D01*
X7830159Y-3571595D01*
X7839506Y-3561638D01*
X7847482Y-3550615D01*
X7854086Y-3538677D01*
X7859064Y-3526028D01*
X7862468Y-3512820D01*
X7864195Y-3499307D01*
X7864195Y-3485692D01*
X7862468Y-3472179D01*
X7859064Y-3458972D01*
X7854086Y-3446322D01*
X7847482Y-3434384D01*
X7839506Y-3423361D01*
X7830159Y-3413404D01*
X7819644Y-3404717D01*
X7808163Y-3397453D01*
X7795818Y-3391611D01*
X7782864Y-3387394D01*
X7769504Y-3384854D01*
X7755585Y-3383991D01*
X7662214Y-3383991D01*
X7648295Y-3384854D01*
X7634935Y-3387394D01*
X7621981Y-3391611D01*
X7609636Y-3397453D01*
X7598156Y-3404717D01*
X7587640Y-3413404D01*
X7578293Y-3423361D01*
X7575092Y-3427780D01*
X7572806Y-3430066D01*
X7570012Y-3431489D01*
X7566863Y-3431997D01*
X6604203Y-3431997D01*
X6599021Y-3432200D01*
X6594043Y-3432810D01*
X6589166Y-3433876D01*
X6584340Y-3435299D01*
X6579717Y-3437077D01*
X6575196Y-3439312D01*
X6570929Y-3441852D01*
X6566865Y-3444748D01*
X6563004Y-3447999D01*
X6559499Y-3451504D01*
X6556248Y-3455365D01*
X6553352Y-3459429D01*
X6550812Y-3463696D01*
X6548577Y-3468217D01*
X6546799Y-3472840D01*
X6545376Y-3477666D01*
X6544309Y-3482543D01*
X6543700Y-3487521D01*
X6543497Y-3492703D01*
X6543497Y-4161739D01*
X6542735Y-4165600D01*
X6540500Y-4168901D01*
X5761329Y-4948072D01*
X5754776Y-4955794D01*
X5749645Y-4964328D01*
X5746597Y-4971643D01*
X5744210Y-4981346D01*
X5743905Y-4983429D01*
X5743397Y-4991404D01*
X5743397Y-6266637D01*
X5742940Y-6269634D01*
X5741619Y-6272377D01*
X5739587Y-6274562D01*
X5730443Y-6281826D01*
X5720740Y-6291884D01*
X5712358Y-6303111D01*
X5705500Y-6315303D01*
X5700217Y-6328257D01*
X5696712Y-6341821D01*
X5694883Y-6355689D01*
X5694883Y-6369710D01*
X5696712Y-6383578D01*
X5700217Y-6397142D01*
X5705500Y-6410096D01*
X5712358Y-6422288D01*
X5720740Y-6433515D01*
X5730443Y-6443573D01*
X5739587Y-6450838D01*
X5741619Y-6453022D01*
X5742940Y-6455765D01*
X5743397Y-6458762D01*
X5743397Y-6577533D01*
X5742990Y-6580378D01*
X5740806Y-6584543D01*
X5734608Y-6597700D01*
X5730138Y-6611467D01*
X5727446Y-6625742D01*
X5726480Y-6640525D01*
X5726480Y-6719874D01*
X5727446Y-6734657D01*
X5730138Y-6748932D01*
X5734608Y-6762699D01*
X5740806Y-6775856D01*
X5748578Y-6788099D01*
X5757824Y-6799275D01*
X5768390Y-6809181D01*
X5780125Y-6817715D01*
X5792825Y-6824675D01*
X5806287Y-6830059D01*
X5820359Y-6833666D01*
G37*
G36*
X6144869Y-6824827D02*
G01*
X6157874Y-6817715D01*
X6169609Y-6809181D01*
X6180175Y-6799275D01*
X6189421Y-6788099D01*
X6197193Y-6775856D01*
X6203391Y-6762699D01*
X6207810Y-6749034D01*
X6144869Y-6749034D01*
G37*
G36*
X6047130Y-6824827D02*
G01*
X6047130Y-6749034D01*
X5984189Y-6749034D01*
X5988608Y-6762699D01*
X5994806Y-6775856D01*
X6002578Y-6788099D01*
X6011824Y-6799275D01*
X6022390Y-6809181D01*
X6034125Y-6817715D01*
G37*
G36*
X8993530Y-6780225D02*
G01*
X9010650Y-6780225D01*
X9027668Y-6778345D01*
X9044381Y-6774637D01*
X9060586Y-6769049D01*
X9076080Y-6761734D01*
X9090660Y-6752793D01*
X9104172Y-6742226D01*
X9116466Y-6730288D01*
X9127388Y-6717080D01*
X9136735Y-6702755D01*
X9144457Y-6687464D01*
X9150502Y-6671411D01*
X9154668Y-6654800D01*
X9157055Y-6637832D01*
X9157512Y-6620713D01*
X9156090Y-6603644D01*
X9152788Y-6586829D01*
X9147708Y-6570472D01*
X9140799Y-6554774D01*
X9132265Y-6539941D01*
X9122105Y-6526123D01*
X9110522Y-6513525D01*
X9097568Y-6502298D01*
X9083497Y-6492544D01*
X9068460Y-6484366D01*
X9052560Y-6477914D01*
X9036100Y-6473240D01*
X9019184Y-6470446D01*
X9002064Y-6469481D01*
X8984996Y-6470446D01*
X8968079Y-6473240D01*
X8951569Y-6477914D01*
X8935720Y-6484366D01*
X8920632Y-6492544D01*
X8906560Y-6502298D01*
X8893657Y-6513525D01*
X8882075Y-6526123D01*
X8871915Y-6539941D01*
X8863330Y-6554774D01*
X8856472Y-6570472D01*
X8851341Y-6586829D01*
X8848039Y-6603644D01*
X8846667Y-6620713D01*
X8847124Y-6637832D01*
X8849461Y-6654800D01*
X8853678Y-6671411D01*
X8859672Y-6687464D01*
X8867394Y-6702755D01*
X8876792Y-6717080D01*
X8887663Y-6730288D01*
X8899956Y-6742226D01*
X8913469Y-6752793D01*
X8928049Y-6761734D01*
X8943543Y-6769049D01*
X8959748Y-6774637D01*
X8976461Y-6778345D01*
G37*
G36*
X9493504Y-6780225D02*
G01*
X9510623Y-6780225D01*
X9527692Y-6778345D01*
X9544405Y-6774637D01*
X9560610Y-6769049D01*
X9576104Y-6761734D01*
X9590684Y-6752793D01*
X9604197Y-6742226D01*
X9616490Y-6730288D01*
X9627362Y-6717080D01*
X9636760Y-6702755D01*
X9644481Y-6687464D01*
X9650476Y-6671411D01*
X9654692Y-6654800D01*
X9657029Y-6637832D01*
X9657486Y-6620713D01*
X9656114Y-6603644D01*
X9652812Y-6586829D01*
X9647682Y-6570472D01*
X9640824Y-6554774D01*
X9632238Y-6539941D01*
X9622078Y-6526123D01*
X9610496Y-6513525D01*
X9597593Y-6502298D01*
X9583521Y-6492544D01*
X9568434Y-6484366D01*
X9552584Y-6477914D01*
X9536074Y-6473240D01*
X9519158Y-6470446D01*
X9502089Y-6469481D01*
X9484969Y-6470446D01*
X9468053Y-6473240D01*
X9451594Y-6477914D01*
X9435693Y-6484366D01*
X9420656Y-6492544D01*
X9406585Y-6502298D01*
X9393631Y-6513525D01*
X9382048Y-6526123D01*
X9371888Y-6539941D01*
X9363354Y-6554774D01*
X9356445Y-6570472D01*
X9351365Y-6586829D01*
X9348063Y-6603644D01*
X9346641Y-6620713D01*
X9347098Y-6637832D01*
X9349486Y-6654800D01*
X9353651Y-6671411D01*
X9359696Y-6687464D01*
X9367418Y-6702755D01*
X9376765Y-6717080D01*
X9387687Y-6730288D01*
X9399981Y-6742226D01*
X9413494Y-6752793D01*
X9428073Y-6761734D01*
X9443567Y-6769049D01*
X9459772Y-6774637D01*
X9476486Y-6778345D01*
G37*
G36*
X1263650Y-1022350D02*
G01*
X1325930Y-1022350D01*
X1325930Y-991108D01*
X1325270Y-984656D01*
X1323543Y-978966D01*
X1320749Y-973683D01*
X1316939Y-969060D01*
X1312316Y-965250D01*
X1307033Y-962456D01*
X1301343Y-960729D01*
X1294892Y-960069D01*
X1263650Y-960069D01*
G37*
G36*
X8329269Y-6725666D02*
G01*
X8392210Y-6725666D01*
X8387791Y-6712000D01*
X8381593Y-6698843D01*
X8373821Y-6686600D01*
X8364575Y-6675424D01*
X8354009Y-6665518D01*
X8342274Y-6656984D01*
X8329269Y-6649872D01*
G37*
G36*
X8168589Y-6725666D02*
G01*
X8231530Y-6725666D01*
X8231530Y-6649872D01*
X8218525Y-6656984D01*
X8206790Y-6665518D01*
X8196224Y-6675424D01*
X8186978Y-6686600D01*
X8179206Y-6698843D01*
X8173008Y-6712000D01*
G37*
G36*
X2365248Y-6655511D02*
G01*
X2384755Y-6655511D01*
X2404160Y-6654546D01*
X2423160Y-6651701D01*
X2441752Y-6647078D01*
X2459837Y-6640575D01*
X2477160Y-6632397D01*
X2493619Y-6622542D01*
X2509012Y-6611112D01*
X2523236Y-6598208D01*
X2536139Y-6583984D01*
X2547569Y-6568592D01*
X2557424Y-6552133D01*
X2565603Y-6534810D01*
X2572054Y-6516725D01*
X2576728Y-6498132D01*
X2579573Y-6479133D01*
X2580487Y-6459982D01*
X2579573Y-6440830D01*
X2576728Y-6421831D01*
X2572054Y-6403238D01*
X2565603Y-6385153D01*
X2557424Y-6367830D01*
X2547569Y-6351371D01*
X2536139Y-6335979D01*
X2523236Y-6321755D01*
X2509012Y-6308852D01*
X2493619Y-6297422D01*
X2477160Y-6287566D01*
X2459837Y-6279388D01*
X2441752Y-6272885D01*
X2423160Y-6268262D01*
X2404160Y-6265418D01*
X2384755Y-6264452D01*
X2365248Y-6264452D01*
X2345842Y-6265418D01*
X2326843Y-6268262D01*
X2308250Y-6272885D01*
X2290165Y-6279388D01*
X2272842Y-6287566D01*
X2256383Y-6297422D01*
X2240991Y-6308852D01*
X2226767Y-6321755D01*
X2213864Y-6335979D01*
X2202434Y-6351371D01*
X2192578Y-6367830D01*
X2184400Y-6385153D01*
X2177948Y-6403238D01*
X2173274Y-6421831D01*
X2170430Y-6440830D01*
X2169515Y-6459982D01*
X2170430Y-6479133D01*
X2173274Y-6498132D01*
X2177948Y-6516725D01*
X2184400Y-6534810D01*
X2192578Y-6552133D01*
X2202434Y-6568592D01*
X2213864Y-6583984D01*
X2226767Y-6598208D01*
X2240991Y-6611112D01*
X2256383Y-6622542D01*
X2272842Y-6632397D01*
X2290165Y-6640575D01*
X2308250Y-6647078D01*
X2326843Y-6651701D01*
X2345842Y-6654546D01*
G37*
G36*
X1112469Y-1022350D02*
G01*
X1174750Y-1022350D01*
X1174750Y-960069D01*
X1143508Y-960069D01*
X1137056Y-960729D01*
X1131366Y-962456D01*
X1126083Y-965250D01*
X1121460Y-969060D01*
X1117650Y-973683D01*
X1114856Y-978966D01*
X1113129Y-984656D01*
X1112469Y-991108D01*
G37*
G36*
X6144869Y-6611366D02*
G01*
X6207810Y-6611366D01*
X6203391Y-6597700D01*
X6197193Y-6584543D01*
X6189421Y-6572300D01*
X6180175Y-6561124D01*
X6169609Y-6551218D01*
X6157874Y-6542684D01*
X6144869Y-6535572D01*
G37*
G36*
X5984189Y-6611366D02*
G01*
X6047130Y-6611366D01*
X6047130Y-6535572D01*
X6034125Y-6542684D01*
X6022390Y-6551218D01*
X6011824Y-6561124D01*
X6002578Y-6572300D01*
X5994806Y-6584543D01*
X5988608Y-6597700D01*
G37*
G36*
X6487668Y-6471970D02*
G01*
X6520180Y-6471970D01*
X6520180Y-6408420D01*
X6456629Y-6408420D01*
X6456629Y-6440932D01*
X6457289Y-6447383D01*
X6459016Y-6453073D01*
X6461810Y-6458356D01*
X6465620Y-6462979D01*
X6470243Y-6466789D01*
X6475526Y-6469583D01*
X6481216Y-6471310D01*
G37*
G36*
X6611620Y-6471970D02*
G01*
X6644131Y-6471970D01*
X6650583Y-6471310D01*
X6656273Y-6469583D01*
X6661556Y-6466789D01*
X6666179Y-6462979D01*
X6669989Y-6458356D01*
X6672783Y-6453073D01*
X6674510Y-6447383D01*
X6675170Y-6440932D01*
X6675170Y-6408420D01*
X6611620Y-6408420D01*
G37*
G36*
X6061405Y-6471869D02*
G01*
X6075324Y-6470548D01*
X6088989Y-6467398D01*
X6102096Y-6462572D01*
X6114542Y-6456121D01*
X6126022Y-6448094D01*
X6136386Y-6438696D01*
X6145428Y-6428028D01*
X6153048Y-6416294D01*
X6159144Y-6403695D01*
X6163564Y-6390386D01*
X6166205Y-6376670D01*
X6167120Y-6362700D01*
X6166205Y-6348730D01*
X6163564Y-6335014D01*
X6159144Y-6321704D01*
X6153048Y-6309106D01*
X6145428Y-6297371D01*
X6136386Y-6286703D01*
X6126022Y-6277305D01*
X6114542Y-6269278D01*
X6102096Y-6262827D01*
X6088989Y-6258001D01*
X6075324Y-6254851D01*
X6061405Y-6253530D01*
X6047435Y-6253988D01*
X6033617Y-6256223D01*
X6020155Y-6260185D01*
X6007354Y-6265875D01*
X5995416Y-6273139D01*
X5984443Y-6281826D01*
X5974740Y-6291884D01*
X5966358Y-6303111D01*
X5959500Y-6315303D01*
X5954217Y-6328257D01*
X5950712Y-6341821D01*
X5948883Y-6355689D01*
X5948883Y-6369710D01*
X5950712Y-6383578D01*
X5954217Y-6397142D01*
X5959500Y-6410096D01*
X5966358Y-6422288D01*
X5974740Y-6433515D01*
X5984443Y-6443573D01*
X5995416Y-6452260D01*
X6007354Y-6459524D01*
X6020155Y-6465214D01*
X6033617Y-6469176D01*
X6047435Y-6471412D01*
G37*
G36*
X6456629Y-6316980D02*
G01*
X6520180Y-6316980D01*
X6520180Y-6253429D01*
X6487668Y-6253429D01*
X6481216Y-6254089D01*
X6475526Y-6255816D01*
X6470243Y-6258610D01*
X6465620Y-6262420D01*
X6461810Y-6267043D01*
X6459016Y-6272326D01*
X6457289Y-6278016D01*
X6456629Y-6284468D01*
G37*
G36*
X6611620Y-6316980D02*
G01*
X6675170Y-6316980D01*
X6675170Y-6284468D01*
X6674510Y-6278016D01*
X6672783Y-6272326D01*
X6669989Y-6267043D01*
X6666179Y-6262420D01*
X6661556Y-6258610D01*
X6656273Y-6255816D01*
X6650583Y-6254089D01*
X6644131Y-6253429D01*
X6611620Y-6253429D01*
G37*
G36*
X1590294Y-6274511D02*
G01*
X1659686Y-6274511D01*
X1674520Y-6273596D01*
X1688846Y-6270955D01*
X1702714Y-6266637D01*
X1715973Y-6260693D01*
X1728419Y-6253124D01*
X1739900Y-6244183D01*
X1750161Y-6233871D01*
X1759153Y-6222441D01*
X1760778Y-6219698D01*
X1763064Y-6217107D01*
X1766112Y-6215380D01*
X1769516Y-6214821D01*
X3679240Y-6218885D01*
X3689502Y-6217767D01*
X3699103Y-6215024D01*
X3708146Y-6210757D01*
X3716375Y-6205067D01*
X3723538Y-6198108D01*
X3729685Y-6189726D01*
X3861308Y-5975654D01*
X3866032Y-5966358D01*
X3869029Y-5956757D01*
X3870299Y-5948375D01*
X3877360Y-5865266D01*
X3878275Y-5861862D01*
X3880256Y-5858967D01*
X3883101Y-5856935D01*
X3886504Y-5856020D01*
X3893565Y-5855309D01*
X3899255Y-5853582D01*
X3904538Y-5850788D01*
X3909161Y-5846978D01*
X3912920Y-5842355D01*
X3915714Y-5837123D01*
X3917492Y-5831382D01*
X3918102Y-5824931D01*
X3918102Y-5655868D01*
X3917492Y-5649417D01*
X3915714Y-5643676D01*
X3912920Y-5638444D01*
X3909161Y-5633821D01*
X3904538Y-5630011D01*
X3899255Y-5627217D01*
X3893565Y-5625490D01*
X3887114Y-5624830D01*
X3767328Y-5624830D01*
X3760927Y-5625490D01*
X3755186Y-5627217D01*
X3749903Y-5630011D01*
X3745331Y-5633821D01*
X3741521Y-5638444D01*
X3738727Y-5643676D01*
X3736949Y-5649417D01*
X3736340Y-5655868D01*
X3736340Y-5824931D01*
X3736949Y-5831382D01*
X3738727Y-5837123D01*
X3741521Y-5842355D01*
X3745331Y-5846978D01*
X3749903Y-5850788D01*
X3753967Y-5853785D01*
X3755847Y-5857240D01*
X3756253Y-5861151D01*
X3751122Y-5921756D01*
X3750665Y-5924092D01*
X3749649Y-5926226D01*
X3647135Y-6092952D01*
X3644849Y-6095542D01*
X3641851Y-6097219D01*
X3638448Y-6097828D01*
X1769821Y-6093815D01*
X1766468Y-6093206D01*
X1763420Y-6091478D01*
X1761185Y-6088888D01*
X1759153Y-6085535D01*
X1750161Y-6074105D01*
X1739900Y-6063792D01*
X1728419Y-6054852D01*
X1715973Y-6047282D01*
X1702714Y-6041339D01*
X1688236Y-6036818D01*
X1686001Y-6035548D01*
X1681835Y-6035700D01*
X1674520Y-6034379D01*
X1659686Y-6033465D01*
X1590294Y-6033465D01*
X1575460Y-6034379D01*
X1568145Y-6035700D01*
X1563979Y-6035548D01*
X1561744Y-6036818D01*
X1547266Y-6041339D01*
X1534007Y-6047282D01*
X1521561Y-6054852D01*
X1510080Y-6063792D01*
X1499819Y-6074105D01*
X1490827Y-6085535D01*
X1483309Y-6097981D01*
X1477314Y-6111240D01*
X1472996Y-6125159D01*
X1470355Y-6139484D01*
X1469491Y-6154013D01*
X1470355Y-6168491D01*
X1472996Y-6182817D01*
X1477314Y-6196736D01*
X1483309Y-6209995D01*
X1490827Y-6222441D01*
X1499819Y-6233871D01*
X1510080Y-6244183D01*
X1521561Y-6253124D01*
X1534007Y-6260693D01*
X1547266Y-6266637D01*
X1561134Y-6270955D01*
X1575460Y-6273596D01*
G37*
G36*
X1693824Y-1048664D02*
G01*
X1768754Y-1048664D01*
X1766671Y-1043990D01*
X1759153Y-1031544D01*
X1750161Y-1020114D01*
X1739900Y-1009802D01*
X1728419Y-1000861D01*
X1715973Y-993292D01*
X1702714Y-987348D01*
X1693824Y-984554D01*
G37*
G36*
X4371797Y-6144107D02*
G01*
X4408170Y-6144107D01*
X4408170Y-6082842D01*
X4340809Y-6082842D01*
X4340809Y-6113119D01*
X4341418Y-6119520D01*
X4343146Y-6125260D01*
X4345990Y-6130544D01*
X4349750Y-6135116D01*
X4354372Y-6138926D01*
X4359656Y-6141720D01*
X4365345Y-6143498D01*
G37*
G36*
X4507230Y-6144107D02*
G01*
X4543602Y-6144107D01*
X4550054Y-6143498D01*
X4555744Y-6141720D01*
X4561027Y-6138926D01*
X4565650Y-6135116D01*
X4569409Y-6130544D01*
X4572254Y-6125260D01*
X4573981Y-6119520D01*
X4574590Y-6113119D01*
X4574590Y-6082842D01*
X4507230Y-6082842D01*
G37*
G36*
X5122214Y-6141008D02*
G01*
X5215585Y-6141008D01*
X5229504Y-6140145D01*
X5242864Y-6137605D01*
X5255818Y-6133388D01*
X5268163Y-6127546D01*
X5279644Y-6120282D01*
X5290159Y-6111595D01*
X5299506Y-6101638D01*
X5307482Y-6090615D01*
X5314086Y-6078677D01*
X5319064Y-6066028D01*
X5322468Y-6052820D01*
X5324195Y-6039307D01*
X5324195Y-6025692D01*
X5322468Y-6012180D01*
X5319064Y-5998972D01*
X5314086Y-5986322D01*
X5307482Y-5974384D01*
X5299506Y-5963361D01*
X5290159Y-5953404D01*
X5279644Y-5944717D01*
X5268163Y-5937453D01*
X5255818Y-5931611D01*
X5242864Y-5927394D01*
X5229504Y-5924854D01*
X5215585Y-5923991D01*
X5122214Y-5923991D01*
X5108295Y-5924854D01*
X5094935Y-5927394D01*
X5081981Y-5931611D01*
X5069636Y-5937453D01*
X5058156Y-5944717D01*
X5047640Y-5953404D01*
X5038293Y-5963361D01*
X5030317Y-5974384D01*
X5023713Y-5986322D01*
X5018735Y-5998972D01*
X5015331Y-6012180D01*
X5013604Y-6025692D01*
X5013604Y-6039307D01*
X5015331Y-6052820D01*
X5018735Y-6066028D01*
X5023713Y-6078677D01*
X5030317Y-6090615D01*
X5038293Y-6101638D01*
X5047640Y-6111595D01*
X5058156Y-6120282D01*
X5069636Y-6127546D01*
X5081981Y-6133388D01*
X5094935Y-6137605D01*
X5108295Y-6140145D01*
G37*
G36*
X1481226Y-1048664D02*
G01*
X1556156Y-1048664D01*
X1556156Y-984554D01*
X1547266Y-987348D01*
X1534007Y-993292D01*
X1521561Y-1000861D01*
X1510080Y-1009802D01*
X1499819Y-1020114D01*
X1490827Y-1031544D01*
X1483309Y-1043990D01*
G37*
G36*
X3164992Y-1144270D02*
G01*
X3226257Y-1144270D01*
X3226257Y-1076909D01*
X3195980Y-1076909D01*
X3189579Y-1077518D01*
X3183839Y-1079246D01*
X3178556Y-1082090D01*
X3173984Y-1085850D01*
X3170174Y-1090472D01*
X3167380Y-1095756D01*
X3165602Y-1101445D01*
X3164992Y-1107897D01*
G37*
G36*
X3313226Y-1144270D02*
G01*
X3374491Y-1144270D01*
X3374491Y-1107897D01*
X3373882Y-1101445D01*
X3372154Y-1095756D01*
X3369310Y-1090472D01*
X3365550Y-1085850D01*
X3360928Y-1082090D01*
X3355644Y-1079246D01*
X3349955Y-1077518D01*
X3343503Y-1076909D01*
X3313226Y-1076909D01*
G37*
G36*
X1693824Y-6015431D02*
G01*
X1702714Y-6012637D01*
X1715973Y-6006693D01*
X1728419Y-5999124D01*
X1739900Y-5990183D01*
X1750161Y-5979871D01*
X1759153Y-5968441D01*
X1766671Y-5955995D01*
X1768754Y-5951321D01*
X1693824Y-5951321D01*
G37*
G36*
X1556156Y-6015431D02*
G01*
X1556156Y-5951321D01*
X1481226Y-5951321D01*
X1483309Y-5955995D01*
X1490827Y-5968441D01*
X1499819Y-5979871D01*
X1510080Y-5990183D01*
X1521561Y-5999124D01*
X1534007Y-6006693D01*
X1547266Y-6012637D01*
G37*
G36*
X4507230Y-5995873D02*
G01*
X4574590Y-5995873D01*
X4574590Y-5965596D01*
X4573981Y-5959144D01*
X4572254Y-5953455D01*
X4569409Y-5948172D01*
X4565650Y-5943549D01*
X4561027Y-5939790D01*
X4555744Y-5936945D01*
X4550054Y-5935218D01*
X4543602Y-5934608D01*
X4507230Y-5934608D01*
G37*
G36*
X4340809Y-5995873D02*
G01*
X4408170Y-5995873D01*
X4408170Y-5934608D01*
X4371797Y-5934608D01*
X4365345Y-5935218D01*
X4359656Y-5936945D01*
X4354372Y-5939790D01*
X4349750Y-5943549D01*
X4345990Y-5948172D01*
X4343146Y-5953455D01*
X4341418Y-5959144D01*
X4340809Y-5965596D01*
G37*
G36*
X5122214Y-5887008D02*
G01*
X5215585Y-5887008D01*
X5229504Y-5886145D01*
X5242864Y-5883605D01*
X5255818Y-5879388D01*
X5268163Y-5873546D01*
X5279644Y-5866282D01*
X5290159Y-5857595D01*
X5299506Y-5847638D01*
X5307482Y-5836615D01*
X5314086Y-5824677D01*
X5319064Y-5812028D01*
X5322468Y-5798820D01*
X5324195Y-5785307D01*
X5324195Y-5771692D01*
X5322468Y-5758180D01*
X5319064Y-5744972D01*
X5314086Y-5732322D01*
X5307482Y-5720384D01*
X5299506Y-5709361D01*
X5290159Y-5699404D01*
X5279644Y-5690717D01*
X5268163Y-5683453D01*
X5255818Y-5677611D01*
X5242864Y-5673394D01*
X5229504Y-5670854D01*
X5215585Y-5669991D01*
X5122214Y-5669991D01*
X5108295Y-5670854D01*
X5094935Y-5673394D01*
X5081981Y-5677611D01*
X5069636Y-5683453D01*
X5058156Y-5690717D01*
X5047640Y-5699404D01*
X5038293Y-5709361D01*
X5030317Y-5720384D01*
X5023713Y-5732322D01*
X5018735Y-5744972D01*
X5015331Y-5758180D01*
X5013604Y-5771692D01*
X5013604Y-5785307D01*
X5015331Y-5798820D01*
X5018735Y-5812028D01*
X5023713Y-5824677D01*
X5030317Y-5836615D01*
X5038293Y-5847638D01*
X5047640Y-5857595D01*
X5058156Y-5866282D01*
X5069636Y-5873546D01*
X5081981Y-5879388D01*
X5094935Y-5883605D01*
X5108295Y-5886145D01*
G37*
G36*
X7662214Y-5887008D02*
G01*
X7755585Y-5887008D01*
X7769504Y-5886145D01*
X7782864Y-5883605D01*
X7795818Y-5879388D01*
X7808163Y-5873546D01*
X7819644Y-5866282D01*
X7830159Y-5857595D01*
X7839506Y-5847638D01*
X7847482Y-5836615D01*
X7854086Y-5824677D01*
X7859064Y-5812028D01*
X7862468Y-5798820D01*
X7864195Y-5785307D01*
X7864195Y-5771692D01*
X7862468Y-5758180D01*
X7859064Y-5744972D01*
X7854086Y-5732322D01*
X7847482Y-5720384D01*
X7839506Y-5709361D01*
X7830159Y-5699404D01*
X7819644Y-5690717D01*
X7808163Y-5683453D01*
X7795818Y-5677611D01*
X7782864Y-5673394D01*
X7769504Y-5670854D01*
X7755585Y-5669991D01*
X7662214Y-5669991D01*
X7648295Y-5670854D01*
X7634935Y-5673394D01*
X7621981Y-5677611D01*
X7609636Y-5683453D01*
X7598156Y-5690717D01*
X7587640Y-5699404D01*
X7578293Y-5709361D01*
X7570317Y-5720384D01*
X7563713Y-5732322D01*
X7558735Y-5744972D01*
X7555331Y-5758180D01*
X7553604Y-5771692D01*
X7553604Y-5785307D01*
X7555331Y-5798820D01*
X7558735Y-5812028D01*
X7563713Y-5824677D01*
X7570317Y-5836615D01*
X7578293Y-5847638D01*
X7587640Y-5857595D01*
X7598156Y-5866282D01*
X7609636Y-5873546D01*
X7621981Y-5879388D01*
X7634935Y-5883605D01*
X7648295Y-5886145D01*
G37*
G36*
X4063085Y-5855970D02*
G01*
X4182872Y-5855970D01*
X4189272Y-5855309D01*
X4195013Y-5853582D01*
X4200296Y-5850788D01*
X4204868Y-5846978D01*
X4208678Y-5842355D01*
X4211472Y-5837123D01*
X4213250Y-5831382D01*
X4213860Y-5824931D01*
X4213860Y-5791504D01*
X4214622Y-5787644D01*
X4216857Y-5784342D01*
X4220108Y-5782106D01*
X4224020Y-5781344D01*
X4330649Y-5781344D01*
X4334510Y-5782106D01*
X4337812Y-5784342D01*
X4339996Y-5787644D01*
X4340809Y-5791504D01*
X4340809Y-5794603D01*
X4341418Y-5801055D01*
X4343146Y-5806744D01*
X4345990Y-5812028D01*
X4349750Y-5816650D01*
X4354372Y-5820410D01*
X4359656Y-5823254D01*
X4365345Y-5824982D01*
X4371797Y-5825591D01*
X4543602Y-5825591D01*
X4550054Y-5824982D01*
X4555744Y-5823254D01*
X4561027Y-5820410D01*
X4565650Y-5816650D01*
X4569409Y-5812028D01*
X4572254Y-5806744D01*
X4573981Y-5801055D01*
X4574590Y-5794603D01*
X4574590Y-5647080D01*
X4573981Y-5640679D01*
X4572254Y-5634939D01*
X4569409Y-5629656D01*
X4565650Y-5625084D01*
X4561027Y-5621274D01*
X4555744Y-5618480D01*
X4550054Y-5616702D01*
X4543602Y-5616092D01*
X4528362Y-5616092D01*
X4524502Y-5615330D01*
X4521200Y-5613095D01*
X4518964Y-5609844D01*
X4518202Y-5605932D01*
X4518202Y-5528360D01*
X4518964Y-5524500D01*
X4521200Y-5521198D01*
X4708398Y-5334000D01*
X4711700Y-5331764D01*
X4715560Y-5331002D01*
X5026863Y-5331002D01*
X5030012Y-5331510D01*
X5032806Y-5332933D01*
X5035092Y-5335219D01*
X5038293Y-5339638D01*
X5047640Y-5349595D01*
X5058156Y-5358282D01*
X5069636Y-5365546D01*
X5081981Y-5371388D01*
X5094935Y-5375605D01*
X5108295Y-5378145D01*
X5122214Y-5379008D01*
X5215585Y-5379008D01*
X5229504Y-5378145D01*
X5242864Y-5375605D01*
X5255818Y-5371388D01*
X5268163Y-5365546D01*
X5279644Y-5358282D01*
X5290159Y-5349595D01*
X5299506Y-5339638D01*
X5307482Y-5328615D01*
X5314086Y-5316677D01*
X5319064Y-5304028D01*
X5322468Y-5290820D01*
X5324195Y-5277307D01*
X5324195Y-5263692D01*
X5322468Y-5250180D01*
X5319064Y-5236972D01*
X5314086Y-5224322D01*
X5307482Y-5212384D01*
X5299506Y-5201361D01*
X5290159Y-5191404D01*
X5279644Y-5182717D01*
X5268163Y-5175453D01*
X5255818Y-5169611D01*
X5242864Y-5165394D01*
X5229504Y-5162854D01*
X5215585Y-5161991D01*
X5122214Y-5161991D01*
X5108295Y-5162854D01*
X5094935Y-5165394D01*
X5081981Y-5169611D01*
X5069636Y-5175453D01*
X5058156Y-5182717D01*
X5047640Y-5191404D01*
X5038293Y-5201361D01*
X5035092Y-5205780D01*
X5032806Y-5208066D01*
X5030012Y-5209489D01*
X5026863Y-5209997D01*
X4686604Y-5209997D01*
X4678629Y-5210505D01*
X4676546Y-5210810D01*
X4666843Y-5213197D01*
X4659528Y-5216245D01*
X4650994Y-5221376D01*
X4643272Y-5227929D01*
X4415129Y-5456072D01*
X4408576Y-5463794D01*
X4403445Y-5472328D01*
X4400397Y-5479643D01*
X4398010Y-5489346D01*
X4397705Y-5491429D01*
X4397197Y-5499404D01*
X4397197Y-5605932D01*
X4396435Y-5609844D01*
X4394200Y-5613095D01*
X4390898Y-5615330D01*
X4387037Y-5616092D01*
X4371797Y-5616092D01*
X4365345Y-5616702D01*
X4359656Y-5618480D01*
X4354372Y-5621274D01*
X4349750Y-5625084D01*
X4345990Y-5629656D01*
X4343146Y-5634939D01*
X4341418Y-5640679D01*
X4340809Y-5647080D01*
X4340809Y-5650179D01*
X4339996Y-5654040D01*
X4337812Y-5657342D01*
X4334510Y-5659577D01*
X4330649Y-5660339D01*
X4223512Y-5660339D01*
X4219854Y-5659678D01*
X4216704Y-5657697D01*
X4214418Y-5654751D01*
X4213250Y-5649417D01*
X4211472Y-5643676D01*
X4208678Y-5638444D01*
X4204868Y-5633821D01*
X4200296Y-5630011D01*
X4195013Y-5627217D01*
X4189272Y-5625490D01*
X4182872Y-5624830D01*
X4063085Y-5624830D01*
X4056634Y-5625490D01*
X4050944Y-5627217D01*
X4045661Y-5630011D01*
X4041038Y-5633821D01*
X4037279Y-5638444D01*
X4034485Y-5643676D01*
X4032707Y-5649417D01*
X4032097Y-5655868D01*
X4032097Y-5824931D01*
X4032707Y-5831382D01*
X4034485Y-5837123D01*
X4037279Y-5842355D01*
X4041038Y-5846978D01*
X4045661Y-5850788D01*
X4050944Y-5853582D01*
X4056634Y-5855309D01*
G37*
G36*
X1481226Y-5848654D02*
G01*
X1556156Y-5848654D01*
X1556156Y-5784545D01*
X1547266Y-5787339D01*
X1534007Y-5793282D01*
X1521561Y-5800852D01*
X1510080Y-5809792D01*
X1499819Y-5820105D01*
X1490827Y-5831535D01*
X1483309Y-5843981D01*
G37*
G36*
X1693824Y-5848654D02*
G01*
X1768754Y-5848654D01*
X1766671Y-5843981D01*
X1759153Y-5831535D01*
X1750161Y-5820105D01*
X1739900Y-5809792D01*
X1728419Y-5800852D01*
X1715973Y-5793282D01*
X1702714Y-5787339D01*
X1693824Y-5784545D01*
G37*
G36*
X1143508Y-1173530D02*
G01*
X1174750Y-1173530D01*
X1174750Y-1111250D01*
X1112469Y-1111250D01*
X1112469Y-1142492D01*
X1113129Y-1148943D01*
X1114856Y-1154633D01*
X1117650Y-1159916D01*
X1121460Y-1164539D01*
X1126083Y-1168349D01*
X1131366Y-1171143D01*
X1137056Y-1172870D01*
G37*
G36*
X1590294Y-5766511D02*
G01*
X1659686Y-5766511D01*
X1674520Y-5765596D01*
X1681835Y-5764276D01*
X1686001Y-5764428D01*
X1688236Y-5763158D01*
X1702714Y-5758637D01*
X1715973Y-5752693D01*
X1728419Y-5745124D01*
X1739900Y-5736183D01*
X1750161Y-5725871D01*
X1759153Y-5714441D01*
X1766671Y-5701995D01*
X1772666Y-5688736D01*
X1776984Y-5674817D01*
X1779625Y-5660491D01*
X1780489Y-5646013D01*
X1779625Y-5631484D01*
X1776984Y-5617159D01*
X1772666Y-5603240D01*
X1766671Y-5589981D01*
X1759153Y-5577535D01*
X1750161Y-5566105D01*
X1739900Y-5555792D01*
X1728419Y-5546852D01*
X1715973Y-5539282D01*
X1702714Y-5533339D01*
X1692757Y-5530240D01*
X1688998Y-5528106D01*
X1686509Y-5524703D01*
X1685594Y-5520537D01*
X1685594Y-5198668D01*
X1686356Y-5194808D01*
X1688592Y-5191506D01*
X1787753Y-5092293D01*
X1791004Y-5090160D01*
X1794814Y-5089347D01*
X3687927Y-5065572D01*
X3691890Y-5066334D01*
X3695242Y-5068519D01*
X3697478Y-5071821D01*
X3698240Y-5075732D01*
X3698240Y-5088331D01*
X3698849Y-5094782D01*
X3700627Y-5100523D01*
X3703421Y-5105755D01*
X3707231Y-5110378D01*
X3711803Y-5114188D01*
X3717086Y-5116982D01*
X3722827Y-5118709D01*
X3729228Y-5119370D01*
X3849014Y-5119370D01*
X3855465Y-5118709D01*
X3861155Y-5116982D01*
X3866438Y-5114188D01*
X3871061Y-5110378D01*
X3874820Y-5105755D01*
X3877614Y-5100523D01*
X3879392Y-5094782D01*
X3880002Y-5088331D01*
X3880002Y-4919268D01*
X3879392Y-4912817D01*
X3877614Y-4907076D01*
X3874820Y-4901844D01*
X3871061Y-4897221D01*
X3866438Y-4893411D01*
X3861155Y-4890617D01*
X3855465Y-4888890D01*
X3849014Y-4888230D01*
X3729228Y-4888230D01*
X3722827Y-4888890D01*
X3717086Y-4890617D01*
X3711803Y-4893411D01*
X3707231Y-4897221D01*
X3703421Y-4901844D01*
X3700627Y-4907076D01*
X3698849Y-4912817D01*
X3698240Y-4919268D01*
X3698240Y-4934407D01*
X3697478Y-4938268D01*
X3695293Y-4941519D01*
X3692042Y-4943754D01*
X3688232Y-4944567D01*
X1764842Y-4968697D01*
X1757680Y-4969205D01*
X1754733Y-4969611D01*
X1747875Y-4971237D01*
X1738579Y-4974894D01*
X1735988Y-4976266D01*
X1730044Y-4980025D01*
X1727657Y-4981854D01*
X1722323Y-4986629D01*
X1582521Y-5126380D01*
X1575968Y-5134102D01*
X1570837Y-5142636D01*
X1567789Y-5149951D01*
X1565402Y-5159654D01*
X1565097Y-5161737D01*
X1564589Y-5169712D01*
X1564589Y-5520436D01*
X1563674Y-5524601D01*
X1561185Y-5528056D01*
X1557426Y-5530138D01*
X1547266Y-5533339D01*
X1534007Y-5539282D01*
X1521561Y-5546852D01*
X1510080Y-5555792D01*
X1499819Y-5566105D01*
X1490827Y-5577535D01*
X1483309Y-5589981D01*
X1477314Y-5603240D01*
X1472996Y-5617159D01*
X1470355Y-5631484D01*
X1469491Y-5646013D01*
X1470355Y-5660491D01*
X1472996Y-5674817D01*
X1477314Y-5688736D01*
X1483309Y-5701995D01*
X1490827Y-5714441D01*
X1499819Y-5725871D01*
X1510080Y-5736183D01*
X1521561Y-5745124D01*
X1534007Y-5752693D01*
X1547266Y-5758637D01*
X1561744Y-5763158D01*
X1563979Y-5764428D01*
X1568145Y-5764276D01*
X1575460Y-5765596D01*
G37*
G36*
X1263650Y-1173530D02*
G01*
X1294892Y-1173530D01*
X1301343Y-1172870D01*
X1307033Y-1171143D01*
X1312316Y-1168349D01*
X1316939Y-1164539D01*
X1320749Y-1159916D01*
X1323543Y-1154633D01*
X1325270Y-1148943D01*
X1325930Y-1142492D01*
X1325930Y-1111250D01*
X1263650Y-1111250D01*
G37*
G36*
X1556156Y-1215440D02*
G01*
X1556156Y-1151331D01*
X1481226Y-1151331D01*
X1483309Y-1156004D01*
X1490827Y-1168450D01*
X1499819Y-1179880D01*
X1510080Y-1190193D01*
X1521561Y-1199134D01*
X1534007Y-1206703D01*
X1547266Y-1212646D01*
G37*
G36*
X1693824Y-1215440D02*
G01*
X1702714Y-1212646D01*
X1715973Y-1206703D01*
X1728419Y-1199134D01*
X1739900Y-1190193D01*
X1750161Y-1179880D01*
X1759153Y-1168450D01*
X1766671Y-1156004D01*
X1768754Y-1151331D01*
X1693824Y-1151331D01*
G37*
G36*
X5122214Y-5633008D02*
G01*
X5215585Y-5633008D01*
X5229504Y-5632145D01*
X5242864Y-5629605D01*
X5255818Y-5625388D01*
X5268163Y-5619546D01*
X5279644Y-5612282D01*
X5290159Y-5603595D01*
X5299506Y-5593638D01*
X5307482Y-5582615D01*
X5314086Y-5570677D01*
X5319064Y-5558028D01*
X5322468Y-5544820D01*
X5324195Y-5531307D01*
X5324195Y-5517692D01*
X5322468Y-5504180D01*
X5319064Y-5490972D01*
X5314086Y-5478322D01*
X5307482Y-5466384D01*
X5299506Y-5455361D01*
X5290159Y-5445404D01*
X5279644Y-5436717D01*
X5268163Y-5429453D01*
X5255818Y-5423611D01*
X5242864Y-5419394D01*
X5229504Y-5416854D01*
X5215585Y-5415991D01*
X5122214Y-5415991D01*
X5108295Y-5416854D01*
X5094935Y-5419394D01*
X5081981Y-5423611D01*
X5069636Y-5429453D01*
X5058156Y-5436717D01*
X5047640Y-5445404D01*
X5038293Y-5455361D01*
X5030317Y-5466384D01*
X5023713Y-5478322D01*
X5018735Y-5490972D01*
X5015331Y-5504180D01*
X5013604Y-5517692D01*
X5013604Y-5531307D01*
X5015331Y-5544820D01*
X5018735Y-5558028D01*
X5023713Y-5570677D01*
X5030317Y-5582615D01*
X5038293Y-5593638D01*
X5047640Y-5603595D01*
X5058156Y-5612282D01*
X5069636Y-5619546D01*
X5081981Y-5625388D01*
X5094935Y-5629605D01*
X5108295Y-5632145D01*
G37*
G36*
X7662214Y-5633008D02*
G01*
X7755585Y-5633008D01*
X7769504Y-5632145D01*
X7782864Y-5629605D01*
X7795818Y-5625388D01*
X7808163Y-5619546D01*
X7819644Y-5612282D01*
X7830159Y-5603595D01*
X7839506Y-5593638D01*
X7847482Y-5582615D01*
X7854086Y-5570677D01*
X7859064Y-5558028D01*
X7862468Y-5544820D01*
X7864195Y-5531307D01*
X7864195Y-5517692D01*
X7862468Y-5504180D01*
X7859064Y-5490972D01*
X7854086Y-5478322D01*
X7847482Y-5466384D01*
X7839506Y-5455361D01*
X7830159Y-5445404D01*
X7819644Y-5436717D01*
X7808163Y-5429453D01*
X7795818Y-5423611D01*
X7782864Y-5419394D01*
X7769504Y-5416854D01*
X7755585Y-5415991D01*
X7662214Y-5415991D01*
X7648295Y-5416854D01*
X7634935Y-5419394D01*
X7621981Y-5423611D01*
X7609636Y-5429453D01*
X7598156Y-5436717D01*
X7587640Y-5445404D01*
X7578293Y-5455361D01*
X7570317Y-5466384D01*
X7563713Y-5478322D01*
X7558735Y-5490972D01*
X7555331Y-5504180D01*
X7553604Y-5517692D01*
X7553604Y-5531307D01*
X7555331Y-5544820D01*
X7558735Y-5558028D01*
X7563713Y-5570677D01*
X7570317Y-5582615D01*
X7578293Y-5593638D01*
X7587640Y-5603595D01*
X7598156Y-5612282D01*
X7609636Y-5619546D01*
X7621981Y-5625388D01*
X7634935Y-5629605D01*
X7648295Y-5632145D01*
G37*
G36*
X2365248Y-5535523D02*
G01*
X2384755Y-5535523D01*
X2404160Y-5534558D01*
X2423160Y-5531713D01*
X2441752Y-5527090D01*
X2459837Y-5520588D01*
X2477160Y-5512409D01*
X2493619Y-5502554D01*
X2509012Y-5491124D01*
X2523236Y-5478221D01*
X2536139Y-5463997D01*
X2547569Y-5448604D01*
X2557424Y-5432145D01*
X2565603Y-5414822D01*
X2572054Y-5396738D01*
X2576728Y-5378145D01*
X2579573Y-5359146D01*
X2580487Y-5339994D01*
X2579573Y-5320842D01*
X2576728Y-5301843D01*
X2572054Y-5283250D01*
X2565603Y-5265166D01*
X2557424Y-5247843D01*
X2547569Y-5231384D01*
X2536139Y-5215991D01*
X2523236Y-5201767D01*
X2509012Y-5188864D01*
X2493619Y-5177434D01*
X2477160Y-5167579D01*
X2459837Y-5159400D01*
X2441752Y-5152898D01*
X2423160Y-5148275D01*
X2404160Y-5145430D01*
X2384755Y-5144465D01*
X2365248Y-5144465D01*
X2345842Y-5145430D01*
X2326843Y-5148275D01*
X2308250Y-5152898D01*
X2290165Y-5159400D01*
X2272842Y-5167579D01*
X2256383Y-5177434D01*
X2240991Y-5188864D01*
X2226767Y-5201767D01*
X2213864Y-5215991D01*
X2202434Y-5231384D01*
X2192578Y-5247843D01*
X2184400Y-5265166D01*
X2177948Y-5283250D01*
X2173274Y-5301843D01*
X2170430Y-5320842D01*
X2169515Y-5339994D01*
X2170430Y-5359146D01*
X2173274Y-5378145D01*
X2177948Y-5396738D01*
X2184400Y-5414822D01*
X2192578Y-5432145D01*
X2202434Y-5448604D01*
X2213864Y-5463997D01*
X2226767Y-5478221D01*
X2240991Y-5491124D01*
X2256383Y-5502554D01*
X2272842Y-5512409D01*
X2290165Y-5520588D01*
X2308250Y-5527090D01*
X2326843Y-5531713D01*
X2345842Y-5534558D01*
G37*
G36*
X9493504Y-5530240D02*
G01*
X9510623Y-5530240D01*
X9527692Y-5528360D01*
X9544405Y-5524601D01*
X9560610Y-5519064D01*
X9576104Y-5511749D01*
X9590684Y-5502757D01*
X9604197Y-5492242D01*
X9616490Y-5480304D01*
X9627362Y-5467096D01*
X9636760Y-5452719D01*
X9642703Y-5440984D01*
X9644938Y-5438038D01*
X9648088Y-5436057D01*
X9651746Y-5435396D01*
X9918496Y-5435396D01*
X9923678Y-5435193D01*
X9928656Y-5434584D01*
X9933533Y-5433517D01*
X9938359Y-5432094D01*
X9942982Y-5430316D01*
X9947503Y-5428081D01*
X9951770Y-5425541D01*
X9955834Y-5422646D01*
X9959695Y-5419394D01*
X9963200Y-5415889D01*
X9966452Y-5412028D01*
X9969347Y-5407964D01*
X9971887Y-5403697D01*
X9974122Y-5399176D01*
X9975900Y-5394553D01*
X9977323Y-5389727D01*
X9978390Y-5384850D01*
X9978999Y-5379872D01*
X9979202Y-5374690D01*
X9979202Y-2895904D01*
X9978694Y-2887929D01*
X9978390Y-2885846D01*
X9976002Y-2876143D01*
X9972954Y-2868828D01*
X9967823Y-2860294D01*
X9961270Y-2852572D01*
X9504578Y-2395931D01*
X9496653Y-2389174D01*
X9488068Y-2384094D01*
X9478772Y-2380437D01*
X9468459Y-2378303D01*
X7861046Y-2180285D01*
X7857998Y-2179421D01*
X7855356Y-2177592D01*
X7853375Y-2175103D01*
X7847482Y-2164384D01*
X7839506Y-2153361D01*
X7830159Y-2143404D01*
X7819644Y-2134717D01*
X7808163Y-2127453D01*
X7795818Y-2121611D01*
X7782864Y-2117394D01*
X7769504Y-2114854D01*
X7755585Y-2113991D01*
X7662214Y-2113991D01*
X7648295Y-2114854D01*
X7634935Y-2117394D01*
X7621981Y-2121611D01*
X7609636Y-2127453D01*
X7598156Y-2134717D01*
X7587640Y-2143404D01*
X7578293Y-2153361D01*
X7570317Y-2164384D01*
X7563713Y-2176322D01*
X7558735Y-2188972D01*
X7555331Y-2202180D01*
X7553604Y-2215692D01*
X7553604Y-2229307D01*
X7555331Y-2242820D01*
X7558735Y-2256028D01*
X7563713Y-2268677D01*
X7570317Y-2280615D01*
X7578293Y-2291638D01*
X7587640Y-2301595D01*
X7598156Y-2310282D01*
X7609636Y-2317546D01*
X7621981Y-2323388D01*
X7634935Y-2327605D01*
X7648295Y-2330145D01*
X7662214Y-2331008D01*
X7755585Y-2331008D01*
X7769504Y-2330145D01*
X7782864Y-2327605D01*
X7795818Y-2323388D01*
X7808163Y-2317546D01*
X7819644Y-2310282D01*
X7830159Y-2301595D01*
X7833766Y-2299665D01*
X7837881Y-2299360D01*
X9429953Y-2495499D01*
X9433204Y-2496413D01*
X9435896Y-2498394D01*
X9855200Y-2917698D01*
X9857435Y-2921000D01*
X9858197Y-2924860D01*
X9858197Y-5304231D01*
X9857435Y-5308092D01*
X9855200Y-5311394D01*
X9851898Y-5313629D01*
X9848037Y-5314391D01*
X9651644Y-5314391D01*
X9647834Y-5313629D01*
X9644583Y-5311495D01*
X9642348Y-5308295D01*
X9640824Y-5304790D01*
X9632238Y-5289956D01*
X9622078Y-5276138D01*
X9610496Y-5263540D01*
X9597593Y-5252262D01*
X9583521Y-5242509D01*
X9568434Y-5234381D01*
X9552584Y-5227929D01*
X9536074Y-5223256D01*
X9519158Y-5220462D01*
X9502089Y-5219496D01*
X9484969Y-5220462D01*
X9468053Y-5223256D01*
X9451594Y-5227929D01*
X9435693Y-5234381D01*
X9420656Y-5242509D01*
X9406585Y-5252262D01*
X9393631Y-5263540D01*
X9382048Y-5276138D01*
X9371888Y-5289956D01*
X9363354Y-5304790D01*
X9356445Y-5320487D01*
X9351365Y-5336844D01*
X9348063Y-5353608D01*
X9346641Y-5370728D01*
X9347098Y-5387848D01*
X9349486Y-5404815D01*
X9353651Y-5421426D01*
X9359696Y-5437428D01*
X9367418Y-5452719D01*
X9376765Y-5467096D01*
X9387687Y-5480304D01*
X9399981Y-5492242D01*
X9413494Y-5502757D01*
X9428073Y-5511749D01*
X9443567Y-5519064D01*
X9459772Y-5524601D01*
X9476486Y-5528360D01*
G37*
G36*
X8933230Y-5514187D02*
G01*
X8933230Y-5443829D01*
X8862923Y-5443829D01*
X8867394Y-5452719D01*
X8876792Y-5467096D01*
X8887663Y-5480304D01*
X8899956Y-5492242D01*
X8913469Y-5502757D01*
X8928049Y-5511749D01*
G37*
G36*
X9070949Y-5514187D02*
G01*
X9076080Y-5511749D01*
X9090660Y-5502757D01*
X9104172Y-5492242D01*
X9116466Y-5480304D01*
X9127388Y-5467096D01*
X9136735Y-5452719D01*
X9141256Y-5443829D01*
X9070949Y-5443829D01*
G37*
G36*
X7662214Y-5379008D02*
G01*
X7755585Y-5379008D01*
X7769504Y-5378145D01*
X7782864Y-5375605D01*
X7795818Y-5371388D01*
X7808163Y-5365546D01*
X7819644Y-5358282D01*
X7830159Y-5349595D01*
X7839506Y-5339638D01*
X7847482Y-5328615D01*
X7854086Y-5316677D01*
X7859064Y-5304028D01*
X7862468Y-5290820D01*
X7864195Y-5277307D01*
X7864195Y-5263692D01*
X7862468Y-5250180D01*
X7859064Y-5236972D01*
X7854086Y-5224322D01*
X7847482Y-5212384D01*
X7839506Y-5201361D01*
X7830159Y-5191404D01*
X7819644Y-5182717D01*
X7808163Y-5175453D01*
X7795818Y-5169611D01*
X7782864Y-5165394D01*
X7769504Y-5162854D01*
X7755585Y-5161991D01*
X7662214Y-5161991D01*
X7648295Y-5162854D01*
X7634935Y-5165394D01*
X7621981Y-5169611D01*
X7609636Y-5175453D01*
X7598156Y-5182717D01*
X7587640Y-5191404D01*
X7578293Y-5201361D01*
X7570317Y-5212384D01*
X7563713Y-5224322D01*
X7558735Y-5236972D01*
X7555331Y-5250180D01*
X7553604Y-5263692D01*
X7553604Y-5277307D01*
X7555331Y-5290820D01*
X7558735Y-5304028D01*
X7563713Y-5316677D01*
X7570317Y-5328615D01*
X7578293Y-5339638D01*
X7587640Y-5349595D01*
X7598156Y-5358282D01*
X7609636Y-5365546D01*
X7621981Y-5371388D01*
X7634935Y-5375605D01*
X7648295Y-5378145D01*
G37*
G36*
X3313226Y-1310690D02*
G01*
X3343503Y-1310690D01*
X3349955Y-1310081D01*
X3355644Y-1308354D01*
X3360928Y-1305509D01*
X3365550Y-1301750D01*
X3369310Y-1297127D01*
X3372154Y-1291844D01*
X3373882Y-1286154D01*
X3374491Y-1279702D01*
X3374491Y-1243330D01*
X3313226Y-1243330D01*
G37*
G36*
X3195980Y-1310690D02*
G01*
X3226257Y-1310690D01*
X3226257Y-1243330D01*
X3164992Y-1243330D01*
X3164992Y-1279702D01*
X3165602Y-1286154D01*
X3167380Y-1291844D01*
X3170174Y-1297127D01*
X3173984Y-1301750D01*
X3178556Y-1305509D01*
X3183839Y-1308354D01*
X3189579Y-1310081D01*
G37*
G36*
X8862720Y-5306161D02*
G01*
X8933230Y-5306161D01*
X8933230Y-5235702D01*
X8920632Y-5242509D01*
X8906560Y-5252262D01*
X8893657Y-5263540D01*
X8882075Y-5276138D01*
X8871915Y-5289956D01*
X8863330Y-5304790D01*
G37*
G36*
X9070949Y-5306161D02*
G01*
X9141409Y-5306161D01*
X9140799Y-5304790D01*
X9132265Y-5289956D01*
X9122105Y-5276138D01*
X9110522Y-5263540D01*
X9097568Y-5252262D01*
X9083497Y-5242509D01*
X9070949Y-5235702D01*
G37*
G36*
X5122214Y-5125008D02*
G01*
X5215585Y-5125008D01*
X5229504Y-5124145D01*
X5242864Y-5121605D01*
X5255818Y-5117388D01*
X5268163Y-5111546D01*
X5279644Y-5104282D01*
X5290159Y-5095595D01*
X5299506Y-5085638D01*
X5307482Y-5074615D01*
X5314086Y-5062677D01*
X5319064Y-5050028D01*
X5322468Y-5036820D01*
X5324195Y-5023307D01*
X5324195Y-5009692D01*
X5322468Y-4996180D01*
X5319064Y-4982972D01*
X5314086Y-4970322D01*
X5307482Y-4958384D01*
X5299506Y-4947361D01*
X5290159Y-4937404D01*
X5279644Y-4928717D01*
X5268163Y-4921453D01*
X5255818Y-4915611D01*
X5242864Y-4911394D01*
X5229504Y-4908854D01*
X5215585Y-4907991D01*
X5122214Y-4907991D01*
X5108295Y-4908854D01*
X5094935Y-4911394D01*
X5081981Y-4915611D01*
X5069636Y-4921453D01*
X5058156Y-4928717D01*
X5047640Y-4937404D01*
X5038293Y-4947361D01*
X5030317Y-4958384D01*
X5023713Y-4970322D01*
X5018735Y-4982972D01*
X5015331Y-4996180D01*
X5013604Y-5009692D01*
X5013604Y-5023307D01*
X5015331Y-5036820D01*
X5018735Y-5050028D01*
X5023713Y-5062677D01*
X5030317Y-5074615D01*
X5038293Y-5085638D01*
X5047640Y-5095595D01*
X5058156Y-5104282D01*
X5069636Y-5111546D01*
X5081981Y-5117388D01*
X5094935Y-5121605D01*
X5108295Y-5124145D01*
G37*
G36*
X7662214Y-5125008D02*
G01*
X7755585Y-5125008D01*
X7769504Y-5124145D01*
X7782864Y-5121605D01*
X7795818Y-5117388D01*
X7808163Y-5111546D01*
X7819644Y-5104282D01*
X7830159Y-5095595D01*
X7839506Y-5085638D01*
X7842707Y-5081219D01*
X7844993Y-5078933D01*
X7847787Y-5077510D01*
X7850936Y-5077002D01*
X8417915Y-5077002D01*
X8420811Y-5077460D01*
X8423503Y-5078679D01*
X8427262Y-5081168D01*
X8431631Y-5083556D01*
X8436203Y-5085537D01*
X8440928Y-5087162D01*
X8445804Y-5088432D01*
X8450732Y-5089245D01*
X8455710Y-5089652D01*
X8460689Y-5089652D01*
X8465667Y-5089245D01*
X8470595Y-5088432D01*
X8475472Y-5087162D01*
X8480196Y-5085537D01*
X8484768Y-5083556D01*
X8489188Y-5081168D01*
X8493353Y-5078425D01*
X8497316Y-5075377D01*
X8501126Y-5071821D01*
X8538870Y-5034127D01*
X8545423Y-5026406D01*
X8550554Y-5017871D01*
X8553602Y-5010556D01*
X8555990Y-5000853D01*
X8556294Y-4998770D01*
X8556802Y-4990795D01*
X8556802Y-4846320D01*
X8557564Y-4842408D01*
X8559800Y-4839157D01*
X8563102Y-4836922D01*
X8566962Y-4836160D01*
X8580831Y-4836160D01*
X8587282Y-4835550D01*
X8593023Y-4833772D01*
X8598255Y-4830978D01*
X8602878Y-4827168D01*
X8606688Y-4822596D01*
X8609482Y-4817313D01*
X8610803Y-4812995D01*
X8612886Y-4809236D01*
X8616340Y-4806696D01*
X8620506Y-4805781D01*
X8653932Y-4805781D01*
X8657844Y-4806543D01*
X8661095Y-4808778D01*
X8663330Y-4812080D01*
X8664092Y-4815941D01*
X8664092Y-4861102D01*
X8664702Y-4867554D01*
X8666480Y-4873244D01*
X8669274Y-4878527D01*
X8673084Y-4883150D01*
X8677656Y-4886909D01*
X8682939Y-4889754D01*
X8688679Y-4891481D01*
X8695080Y-4892090D01*
X8842603Y-4892090D01*
X8849055Y-4891481D01*
X8854744Y-4889754D01*
X8860028Y-4886909D01*
X8864650Y-4883150D01*
X8868410Y-4878527D01*
X8871254Y-4873244D01*
X8872982Y-4867554D01*
X8873591Y-4861102D01*
X8873591Y-4689297D01*
X8872982Y-4682845D01*
X8871254Y-4677156D01*
X8868410Y-4671872D01*
X8864650Y-4667250D01*
X8860028Y-4663490D01*
X8854744Y-4660646D01*
X8849055Y-4658918D01*
X8842603Y-4658309D01*
X8695080Y-4658309D01*
X8688679Y-4658918D01*
X8682939Y-4660646D01*
X8677656Y-4663490D01*
X8673084Y-4667250D01*
X8669274Y-4671872D01*
X8664244Y-4681321D01*
X8660790Y-4683861D01*
X8656624Y-4684776D01*
X8620506Y-4684776D01*
X8616340Y-4683861D01*
X8612886Y-4681321D01*
X8610803Y-4677562D01*
X8609482Y-4673244D01*
X8606688Y-4667961D01*
X8602878Y-4663338D01*
X8598255Y-4659579D01*
X8593023Y-4656785D01*
X8587282Y-4655007D01*
X8580831Y-4654397D01*
X8411768Y-4654397D01*
X8405317Y-4655007D01*
X8399576Y-4656785D01*
X8394344Y-4659579D01*
X8389721Y-4663338D01*
X8385911Y-4667961D01*
X8383117Y-4673244D01*
X8381390Y-4678934D01*
X8380730Y-4685385D01*
X8380730Y-4805172D01*
X8381390Y-4811572D01*
X8383117Y-4817313D01*
X8385911Y-4822596D01*
X8389721Y-4827168D01*
X8394344Y-4830978D01*
X8399576Y-4833772D01*
X8405317Y-4835550D01*
X8411768Y-4836160D01*
X8425637Y-4836160D01*
X8429498Y-4836922D01*
X8432800Y-4839157D01*
X8435035Y-4842408D01*
X8435797Y-4846320D01*
X8435797Y-4945837D01*
X8435035Y-4949698D01*
X8432800Y-4953000D01*
X8429498Y-4955235D01*
X8425637Y-4955997D01*
X7850936Y-4955997D01*
X7847787Y-4955489D01*
X7844993Y-4954066D01*
X7842707Y-4951780D01*
X7839506Y-4947361D01*
X7830159Y-4937404D01*
X7819644Y-4928717D01*
X7808163Y-4921453D01*
X7795818Y-4915611D01*
X7782864Y-4911394D01*
X7769504Y-4908854D01*
X7755585Y-4907991D01*
X7662214Y-4907991D01*
X7648295Y-4908854D01*
X7634935Y-4911394D01*
X7621981Y-4915611D01*
X7609636Y-4921453D01*
X7598156Y-4928717D01*
X7587640Y-4937404D01*
X7578293Y-4947361D01*
X7570317Y-4958384D01*
X7563713Y-4970322D01*
X7558735Y-4982972D01*
X7555331Y-4996180D01*
X7553604Y-5009692D01*
X7553604Y-5023307D01*
X7555331Y-5036820D01*
X7558735Y-5050028D01*
X7563713Y-5062677D01*
X7570317Y-5074615D01*
X7578293Y-5085638D01*
X7587640Y-5095595D01*
X7598156Y-5104282D01*
X7609636Y-5111546D01*
X7621981Y-5117388D01*
X7634935Y-5121605D01*
X7648295Y-5124145D01*
G37*
G36*
X4024985Y-5119370D02*
G01*
X4144772Y-5119370D01*
X4151172Y-5118709D01*
X4156913Y-5116982D01*
X4162196Y-5114188D01*
X4166768Y-5110378D01*
X4170578Y-5105755D01*
X4173372Y-5100523D01*
X4175150Y-5094782D01*
X4175760Y-5088331D01*
X4175760Y-5068620D01*
X4176522Y-5064760D01*
X4178757Y-5061458D01*
X4182008Y-5059222D01*
X4185920Y-5058460D01*
X4229049Y-5058460D01*
X4232910Y-5059222D01*
X4236212Y-5061458D01*
X4238396Y-5064760D01*
X4239209Y-5068620D01*
X4239209Y-5071719D01*
X4239818Y-5078120D01*
X4241546Y-5083860D01*
X4244390Y-5089144D01*
X4248150Y-5093716D01*
X4252772Y-5097526D01*
X4258056Y-5100320D01*
X4263745Y-5102098D01*
X4270197Y-5102707D01*
X4442002Y-5102707D01*
X4448454Y-5102098D01*
X4454144Y-5100320D01*
X4459427Y-5097526D01*
X4464050Y-5093716D01*
X4467809Y-5089144D01*
X4470654Y-5083860D01*
X4472381Y-5078120D01*
X4472990Y-5071719D01*
X4472990Y-5068620D01*
X4473803Y-5064760D01*
X4475988Y-5061458D01*
X4479290Y-5059222D01*
X4483150Y-5058460D01*
X4686096Y-5058460D01*
X4691278Y-5058257D01*
X4696256Y-5057648D01*
X4701133Y-5056581D01*
X4705959Y-5055158D01*
X4710582Y-5053380D01*
X4715103Y-5051145D01*
X4719370Y-5048605D01*
X4723434Y-5045710D01*
X4727295Y-5042458D01*
X4730800Y-5038953D01*
X4734052Y-5035092D01*
X4736947Y-5031028D01*
X4739487Y-5026761D01*
X4741722Y-5022240D01*
X4743500Y-5017617D01*
X4744923Y-5012791D01*
X4745990Y-5007914D01*
X4746599Y-5002936D01*
X4746802Y-4997754D01*
X4746802Y-4474260D01*
X4747564Y-4470400D01*
X4749800Y-4467098D01*
X4898898Y-4318000D01*
X4902200Y-4315764D01*
X4906060Y-4315002D01*
X5026863Y-4315002D01*
X5030012Y-4315510D01*
X5032806Y-4316933D01*
X5035092Y-4319219D01*
X5038293Y-4323638D01*
X5047640Y-4333595D01*
X5058156Y-4342282D01*
X5069636Y-4349546D01*
X5081981Y-4355388D01*
X5094935Y-4359605D01*
X5108295Y-4362145D01*
X5122214Y-4363008D01*
X5215585Y-4363008D01*
X5229504Y-4362145D01*
X5242864Y-4359605D01*
X5255818Y-4355388D01*
X5268163Y-4349546D01*
X5279644Y-4342282D01*
X5290159Y-4333595D01*
X5299506Y-4323638D01*
X5307482Y-4312615D01*
X5314086Y-4300677D01*
X5319064Y-4288028D01*
X5322468Y-4274820D01*
X5324195Y-4261307D01*
X5324195Y-4247692D01*
X5322468Y-4234180D01*
X5319064Y-4220972D01*
X5314086Y-4208322D01*
X5307482Y-4196384D01*
X5299506Y-4185361D01*
X5290159Y-4175404D01*
X5279644Y-4166717D01*
X5268163Y-4159453D01*
X5255818Y-4153611D01*
X5242864Y-4149394D01*
X5229504Y-4146854D01*
X5215585Y-4145991D01*
X5122214Y-4145991D01*
X5108295Y-4146854D01*
X5094935Y-4149394D01*
X5081981Y-4153611D01*
X5069636Y-4159453D01*
X5058156Y-4166717D01*
X5047640Y-4175404D01*
X5038293Y-4185361D01*
X5035092Y-4189780D01*
X5032806Y-4192066D01*
X5030012Y-4193489D01*
X5026863Y-4193997D01*
X4877104Y-4193997D01*
X4869129Y-4194505D01*
X4867046Y-4194810D01*
X4857343Y-4197197D01*
X4850028Y-4200245D01*
X4841494Y-4205376D01*
X4833772Y-4211929D01*
X4643729Y-4401972D01*
X4637176Y-4409694D01*
X4632045Y-4418228D01*
X4628997Y-4425543D01*
X4626610Y-4435246D01*
X4626305Y-4437329D01*
X4625797Y-4445304D01*
X4625797Y-4927295D01*
X4625035Y-4931156D01*
X4622800Y-4934458D01*
X4619498Y-4936693D01*
X4615637Y-4937455D01*
X4483150Y-4937455D01*
X4479290Y-4936693D01*
X4475988Y-4934458D01*
X4473803Y-4931156D01*
X4472990Y-4927295D01*
X4472990Y-4924196D01*
X4472381Y-4917744D01*
X4470654Y-4912055D01*
X4467809Y-4906772D01*
X4464050Y-4902149D01*
X4459427Y-4898390D01*
X4454144Y-4895545D01*
X4448454Y-4893818D01*
X4442002Y-4893208D01*
X4270197Y-4893208D01*
X4263745Y-4893818D01*
X4258056Y-4895545D01*
X4252772Y-4898390D01*
X4248150Y-4902149D01*
X4244390Y-4906772D01*
X4241546Y-4912055D01*
X4239818Y-4917744D01*
X4239209Y-4924196D01*
X4239209Y-4927295D01*
X4238396Y-4931156D01*
X4236212Y-4934458D01*
X4232910Y-4936693D01*
X4229049Y-4937455D01*
X4185920Y-4937455D01*
X4182008Y-4936693D01*
X4178757Y-4934458D01*
X4176522Y-4931156D01*
X4175760Y-4927295D01*
X4175760Y-4919268D01*
X4175150Y-4912817D01*
X4173372Y-4907076D01*
X4170578Y-4901844D01*
X4166768Y-4897221D01*
X4162196Y-4893411D01*
X4156913Y-4890617D01*
X4151172Y-4888890D01*
X4144772Y-4888230D01*
X4024985Y-4888230D01*
X4018534Y-4888890D01*
X4012844Y-4890617D01*
X4007561Y-4893411D01*
X4002938Y-4897221D01*
X3999179Y-4901844D01*
X3996385Y-4907076D01*
X3994607Y-4912817D01*
X3993997Y-4919268D01*
X3993997Y-5088331D01*
X3994607Y-5094782D01*
X3996385Y-5100523D01*
X3999179Y-5105755D01*
X4002938Y-5110378D01*
X4007561Y-5114188D01*
X4012844Y-5116982D01*
X4018534Y-5118709D01*
G37*
G36*
X5023408Y-1415135D02*
G01*
X5100066Y-1415135D01*
X5100066Y-1354429D01*
X5094935Y-1355394D01*
X5081981Y-1359611D01*
X5069636Y-1365453D01*
X5058156Y-1372717D01*
X5047640Y-1381404D01*
X5038293Y-1391361D01*
X5030317Y-1402384D01*
G37*
G36*
X5237734Y-1415135D02*
G01*
X5314391Y-1415135D01*
X5307482Y-1402384D01*
X5299506Y-1391361D01*
X5290159Y-1381404D01*
X5279644Y-1372717D01*
X5268163Y-1365453D01*
X5255818Y-1359611D01*
X5242864Y-1355394D01*
X5237734Y-1354429D01*
G37*
G36*
X9570923Y-1556156D02*
G01*
X9641230Y-1556156D01*
X9636760Y-1547266D01*
X9627362Y-1532890D01*
X9616490Y-1519682D01*
X9604197Y-1507744D01*
X9590684Y-1497228D01*
X9576104Y-1488236D01*
X9570923Y-1485798D01*
G37*
G36*
X9362897Y-1556156D02*
G01*
X9433204Y-1556156D01*
X9433204Y-1485798D01*
X9428073Y-1488236D01*
X9413494Y-1497228D01*
X9399981Y-1507744D01*
X9387687Y-1519682D01*
X9376765Y-1532890D01*
X9367418Y-1547266D01*
G37*
G36*
X5237734Y-1566570D02*
G01*
X5242864Y-1565605D01*
X5255818Y-1561388D01*
X5268163Y-1555546D01*
X5279644Y-1548282D01*
X5290159Y-1539595D01*
X5299506Y-1529638D01*
X5307482Y-1518615D01*
X5314391Y-1505864D01*
X5237734Y-1505864D01*
G37*
G36*
X5100066Y-1566570D02*
G01*
X5100066Y-1505864D01*
X5023408Y-1505864D01*
X5030317Y-1518615D01*
X5038293Y-1529638D01*
X5047640Y-1539595D01*
X5058156Y-1548282D01*
X5069636Y-1555546D01*
X5081981Y-1561388D01*
X5094935Y-1565605D01*
G37*
G36*
X9130842Y-4892090D02*
G01*
X9161119Y-4892090D01*
X9167520Y-4891481D01*
X9173260Y-4889754D01*
X9178544Y-4886909D01*
X9183116Y-4883150D01*
X9186926Y-4878527D01*
X9189720Y-4873244D01*
X9191498Y-4867554D01*
X9192107Y-4861102D01*
X9192107Y-4824730D01*
X9130842Y-4824730D01*
G37*
G36*
X9013596Y-4892090D02*
G01*
X9043873Y-4892090D01*
X9043873Y-4824730D01*
X8982608Y-4824730D01*
X8982608Y-4861102D01*
X8983218Y-4867554D01*
X8984945Y-4873244D01*
X8987790Y-4878527D01*
X8991549Y-4883150D01*
X8996172Y-4886909D01*
X9001455Y-4889754D01*
X9007144Y-4891481D01*
G37*
G36*
X7662214Y-1569008D02*
G01*
X7755585Y-1569008D01*
X7769504Y-1568145D01*
X7782864Y-1565605D01*
X7795818Y-1561388D01*
X7808163Y-1555546D01*
X7819644Y-1548282D01*
X7830159Y-1539595D01*
X7839506Y-1529638D01*
X7847482Y-1518615D01*
X7854086Y-1506677D01*
X7859064Y-1494028D01*
X7862468Y-1480820D01*
X7864195Y-1467307D01*
X7864195Y-1453692D01*
X7862468Y-1440180D01*
X7859064Y-1426972D01*
X7854086Y-1414322D01*
X7847482Y-1402384D01*
X7839506Y-1391361D01*
X7830159Y-1381404D01*
X7819644Y-1372717D01*
X7808163Y-1365453D01*
X7795818Y-1359611D01*
X7782864Y-1355394D01*
X7769504Y-1352854D01*
X7755585Y-1351991D01*
X7662214Y-1351991D01*
X7648295Y-1352854D01*
X7634935Y-1355394D01*
X7621981Y-1359611D01*
X7609636Y-1365453D01*
X7598156Y-1372717D01*
X7587640Y-1381404D01*
X7578293Y-1391361D01*
X7570317Y-1402384D01*
X7563713Y-1414322D01*
X7558735Y-1426972D01*
X7555331Y-1440180D01*
X7553604Y-1453692D01*
X7553604Y-1467307D01*
X7555331Y-1480820D01*
X7558735Y-1494028D01*
X7563713Y-1506677D01*
X7570317Y-1518615D01*
X7578293Y-1529638D01*
X7587640Y-1539595D01*
X7598156Y-1548282D01*
X7609636Y-1555546D01*
X7621981Y-1561388D01*
X7634935Y-1565605D01*
X7648295Y-1568145D01*
G37*
G36*
X5122214Y-4871008D02*
G01*
X5215585Y-4871008D01*
X5229504Y-4870145D01*
X5242864Y-4867605D01*
X5255818Y-4863388D01*
X5268163Y-4857546D01*
X5279644Y-4850282D01*
X5290159Y-4841595D01*
X5299506Y-4831638D01*
X5307482Y-4820615D01*
X5314086Y-4808677D01*
X5319064Y-4796028D01*
X5322468Y-4782820D01*
X5324195Y-4769307D01*
X5324195Y-4755692D01*
X5322468Y-4742180D01*
X5319064Y-4728972D01*
X5314086Y-4716322D01*
X5307482Y-4704384D01*
X5299506Y-4693361D01*
X5290159Y-4683404D01*
X5279644Y-4674717D01*
X5268163Y-4667453D01*
X5255818Y-4661611D01*
X5242864Y-4657394D01*
X5229504Y-4654854D01*
X5215585Y-4653991D01*
X5122214Y-4653991D01*
X5108295Y-4654854D01*
X5094935Y-4657394D01*
X5081981Y-4661611D01*
X5069636Y-4667453D01*
X5058156Y-4674717D01*
X5047640Y-4683404D01*
X5038293Y-4693361D01*
X5030317Y-4704384D01*
X5023713Y-4716322D01*
X5018735Y-4728972D01*
X5015331Y-4742180D01*
X5013604Y-4755692D01*
X5013604Y-4769307D01*
X5015331Y-4782820D01*
X5018735Y-4796028D01*
X5023713Y-4808677D01*
X5030317Y-4820615D01*
X5038293Y-4831638D01*
X5047640Y-4841595D01*
X5058156Y-4850282D01*
X5069636Y-4857546D01*
X5081981Y-4863388D01*
X5094935Y-4867605D01*
X5108295Y-4870145D01*
G37*
G36*
X7777734Y-4868570D02*
G01*
X7782864Y-4867605D01*
X7795818Y-4863388D01*
X7808163Y-4857546D01*
X7819644Y-4850282D01*
X7830159Y-4841595D01*
X7839506Y-4831638D01*
X7847482Y-4820615D01*
X7854391Y-4807864D01*
X7777734Y-4807864D01*
G37*
G36*
X7640066Y-4868570D02*
G01*
X7640066Y-4807864D01*
X7563408Y-4807864D01*
X7570317Y-4820615D01*
X7578293Y-4831638D01*
X7587640Y-4841595D01*
X7598156Y-4850282D01*
X7609636Y-4857546D01*
X7621981Y-4863388D01*
X7634935Y-4867605D01*
G37*
G36*
X4405630Y-4784191D02*
G01*
X4442002Y-4784191D01*
X4448454Y-4783582D01*
X4454144Y-4781854D01*
X4459427Y-4779010D01*
X4464050Y-4775250D01*
X4467809Y-4770628D01*
X4470654Y-4765344D01*
X4472381Y-4759655D01*
X4472990Y-4753203D01*
X4472990Y-4722926D01*
X4405630Y-4722926D01*
G37*
G36*
X4270197Y-4784191D02*
G01*
X4306570Y-4784191D01*
X4306570Y-4722926D01*
X4239209Y-4722926D01*
X4239209Y-4753203D01*
X4239818Y-4759655D01*
X4241546Y-4765344D01*
X4244390Y-4770628D01*
X4248150Y-4775250D01*
X4252772Y-4779010D01*
X4258056Y-4781854D01*
X4263745Y-4783582D01*
G37*
G36*
X8982608Y-4725670D02*
G01*
X9043873Y-4725670D01*
X9043873Y-4658309D01*
X9013596Y-4658309D01*
X9007144Y-4658918D01*
X9001455Y-4660646D01*
X8996172Y-4663490D01*
X8991549Y-4667250D01*
X8987790Y-4671872D01*
X8984945Y-4677156D01*
X8983218Y-4682845D01*
X8982608Y-4689297D01*
G37*
G36*
X9130842Y-4725670D02*
G01*
X9192107Y-4725670D01*
X9192107Y-4689297D01*
X9191498Y-4682845D01*
X9189720Y-4677156D01*
X9186926Y-4671872D01*
X9183116Y-4667250D01*
X9178544Y-4663490D01*
X9173260Y-4660646D01*
X9167520Y-4658918D01*
X9161119Y-4658309D01*
X9130842Y-4658309D01*
G37*
G36*
X7777734Y-4717135D02*
G01*
X7854391Y-4717135D01*
X7847482Y-4704384D01*
X7839506Y-4693361D01*
X7830159Y-4683404D01*
X7819644Y-4674717D01*
X7808163Y-4667453D01*
X7795818Y-4661611D01*
X7782864Y-4657394D01*
X7777734Y-4656429D01*
G37*
G36*
X7563408Y-4717135D02*
G01*
X7640066Y-4717135D01*
X7640066Y-4656429D01*
X7634935Y-4657394D01*
X7621981Y-4661611D01*
X7609636Y-4667453D01*
X7598156Y-4674717D01*
X7587640Y-4683404D01*
X7578293Y-4693361D01*
X7570317Y-4704384D01*
G37*
G36*
X9570923Y-1764284D02*
G01*
X9583521Y-1757476D01*
X9597593Y-1747723D01*
X9610496Y-1736445D01*
X9622078Y-1723847D01*
X9632238Y-1710029D01*
X9640824Y-1695196D01*
X9641433Y-1693824D01*
X9570923Y-1693824D01*
G37*
G36*
X8164830Y-4670907D02*
G01*
X8201202Y-4670907D01*
X8207654Y-4670298D01*
X8213344Y-4668520D01*
X8218627Y-4665726D01*
X8223250Y-4661916D01*
X8227009Y-4657344D01*
X8229853Y-4652060D01*
X8231581Y-4646320D01*
X8232190Y-4639919D01*
X8232190Y-4609642D01*
X8164830Y-4609642D01*
G37*
G36*
X8029397Y-4670907D02*
G01*
X8065770Y-4670907D01*
X8065770Y-4609642D01*
X7998409Y-4609642D01*
X7998409Y-4639919D01*
X7999018Y-4646320D01*
X8000746Y-4652060D01*
X8003590Y-4657344D01*
X8007350Y-4661916D01*
X8011972Y-4665726D01*
X8017256Y-4668520D01*
X8022945Y-4670298D01*
G37*
G36*
X4239209Y-4635957D02*
G01*
X4306570Y-4635957D01*
X4306570Y-4574692D01*
X4270197Y-4574692D01*
X4263745Y-4575302D01*
X4258056Y-4577080D01*
X4252772Y-4579874D01*
X4248150Y-4583684D01*
X4244390Y-4588256D01*
X4241546Y-4593539D01*
X4239818Y-4599279D01*
X4239209Y-4605680D01*
G37*
G36*
X4405630Y-4635957D02*
G01*
X4472990Y-4635957D01*
X4472990Y-4605680D01*
X4472381Y-4599279D01*
X4470654Y-4593539D01*
X4467809Y-4588256D01*
X4464050Y-4583684D01*
X4459427Y-4579874D01*
X4454144Y-4577080D01*
X4448454Y-4575302D01*
X4442002Y-4574692D01*
X4405630Y-4574692D01*
G37*
G36*
X5122214Y-4617008D02*
G01*
X5215585Y-4617008D01*
X5229504Y-4616145D01*
X5242864Y-4613605D01*
X5255818Y-4609388D01*
X5268163Y-4603546D01*
X5279644Y-4596282D01*
X5290159Y-4587595D01*
X5299506Y-4577638D01*
X5307482Y-4566615D01*
X5314086Y-4554677D01*
X5319064Y-4542028D01*
X5322468Y-4528820D01*
X5324195Y-4515307D01*
X5324195Y-4501692D01*
X5322468Y-4488180D01*
X5319064Y-4474972D01*
X5314086Y-4462322D01*
X5307482Y-4450384D01*
X5299506Y-4439361D01*
X5290159Y-4429404D01*
X5279644Y-4420717D01*
X5268163Y-4413453D01*
X5255818Y-4407611D01*
X5242864Y-4403394D01*
X5229504Y-4400854D01*
X5215585Y-4399991D01*
X5122214Y-4399991D01*
X5108295Y-4400854D01*
X5094935Y-4403394D01*
X5081981Y-4407611D01*
X5069636Y-4413453D01*
X5058156Y-4420717D01*
X5047640Y-4429404D01*
X5038293Y-4439361D01*
X5030317Y-4450384D01*
X5023713Y-4462322D01*
X5018735Y-4474972D01*
X5015331Y-4488180D01*
X5013604Y-4501692D01*
X5013604Y-4515307D01*
X5015331Y-4528820D01*
X5018735Y-4542028D01*
X5023713Y-4554677D01*
X5030317Y-4566615D01*
X5038293Y-4577638D01*
X5047640Y-4587595D01*
X5058156Y-4596282D01*
X5069636Y-4603546D01*
X5081981Y-4609388D01*
X5094935Y-4613605D01*
X5108295Y-4616145D01*
G37*
G36*
X7662214Y-4617008D02*
G01*
X7755585Y-4617008D01*
X7769504Y-4616145D01*
X7782864Y-4613605D01*
X7795818Y-4609388D01*
X7808163Y-4603546D01*
X7819644Y-4596282D01*
X7830159Y-4587595D01*
X7839506Y-4577638D01*
X7847482Y-4566615D01*
X7854086Y-4554677D01*
X7859064Y-4542028D01*
X7862468Y-4528820D01*
X7864195Y-4515307D01*
X7864195Y-4501692D01*
X7862468Y-4488180D01*
X7859064Y-4474972D01*
X7854086Y-4462322D01*
X7847482Y-4450384D01*
X7839506Y-4439361D01*
X7830159Y-4429404D01*
X7819644Y-4420717D01*
X7808163Y-4413453D01*
X7795818Y-4407611D01*
X7782864Y-4403394D01*
X7769504Y-4400854D01*
X7755585Y-4399991D01*
X7662214Y-4399991D01*
X7648295Y-4400854D01*
X7634935Y-4403394D01*
X7621981Y-4407611D01*
X7609636Y-4413453D01*
X7598156Y-4420717D01*
X7587640Y-4429404D01*
X7578293Y-4439361D01*
X7570317Y-4450384D01*
X7563713Y-4462322D01*
X7558735Y-4474972D01*
X7555331Y-4488180D01*
X7553604Y-4501692D01*
X7553604Y-4515307D01*
X7555331Y-4528820D01*
X7558735Y-4542028D01*
X7563713Y-4554677D01*
X7570317Y-4566615D01*
X7578293Y-4577638D01*
X7587640Y-4587595D01*
X7598156Y-4596282D01*
X7609636Y-4603546D01*
X7621981Y-4609388D01*
X7634935Y-4613605D01*
X7648295Y-4616145D01*
G37*
G36*
X8411768Y-4540402D02*
G01*
X8580831Y-4540402D01*
X8587282Y-4539792D01*
X8593023Y-4538014D01*
X8598255Y-4535220D01*
X8602878Y-4531461D01*
X8606688Y-4526838D01*
X8609482Y-4521555D01*
X8611209Y-4515866D01*
X8611870Y-4509414D01*
X8611870Y-4389628D01*
X8611209Y-4383227D01*
X8609482Y-4377486D01*
X8606688Y-4372203D01*
X8602878Y-4367631D01*
X8598255Y-4363821D01*
X8593023Y-4361027D01*
X8587282Y-4359249D01*
X8580831Y-4358640D01*
X8565997Y-4358640D01*
X8562136Y-4357878D01*
X8558834Y-4355693D01*
X8556650Y-4352442D01*
X8555837Y-4348581D01*
X8551418Y-3884371D01*
X8552281Y-3880205D01*
X8554821Y-3876700D01*
X8558530Y-3874617D01*
X8567318Y-3871874D01*
X8580577Y-3865879D01*
X8593023Y-3858361D01*
X8604504Y-3849370D01*
X8614765Y-3839108D01*
X8623757Y-3827627D01*
X8631275Y-3815181D01*
X8637270Y-3801922D01*
X8641588Y-3788054D01*
X8644229Y-3773728D01*
X8645093Y-3759200D01*
X8644229Y-3744671D01*
X8641588Y-3730345D01*
X8637270Y-3716477D01*
X8631275Y-3703218D01*
X8623757Y-3690772D01*
X8614765Y-3679291D01*
X8604504Y-3669029D01*
X8593023Y-3660038D01*
X8580577Y-3652520D01*
X8567318Y-3646525D01*
X8552840Y-3642004D01*
X8550605Y-3640785D01*
X8546439Y-3640937D01*
X8539124Y-3639565D01*
X8524290Y-3638702D01*
X8454898Y-3638702D01*
X8440064Y-3639565D01*
X8432749Y-3640937D01*
X8428583Y-3640785D01*
X8426348Y-3642004D01*
X8411870Y-3646525D01*
X8398611Y-3652520D01*
X8386165Y-3660038D01*
X8374684Y-3669029D01*
X8364423Y-3679291D01*
X8355431Y-3690772D01*
X8347913Y-3703218D01*
X8341918Y-3716477D01*
X8337600Y-3730345D01*
X8334959Y-3744671D01*
X8334095Y-3759200D01*
X8334959Y-3773728D01*
X8337600Y-3788054D01*
X8341918Y-3801922D01*
X8347913Y-3815181D01*
X8355431Y-3827627D01*
X8364423Y-3839108D01*
X8374684Y-3849370D01*
X8386165Y-3858361D01*
X8398611Y-3865879D01*
X8411870Y-3871874D01*
X8423249Y-3875430D01*
X8426958Y-3877462D01*
X8429447Y-3880865D01*
X8430412Y-3885031D01*
X8434832Y-4348378D01*
X8434070Y-4352290D01*
X8431885Y-4355642D01*
X8428583Y-4357878D01*
X8424672Y-4358640D01*
X8411768Y-4358640D01*
X8405317Y-4359249D01*
X8399576Y-4361027D01*
X8394344Y-4363821D01*
X8389721Y-4367631D01*
X8385911Y-4372203D01*
X8383117Y-4377486D01*
X8381390Y-4383227D01*
X8380730Y-4389628D01*
X8380730Y-4509414D01*
X8381390Y-4515866D01*
X8383117Y-4521555D01*
X8385911Y-4526838D01*
X8389721Y-4531461D01*
X8394344Y-4535220D01*
X8399576Y-4538014D01*
X8405317Y-4539792D01*
G37*
G36*
X7998409Y-4522673D02*
G01*
X8065770Y-4522673D01*
X8065770Y-4461408D01*
X8029397Y-4461408D01*
X8022945Y-4462018D01*
X8017256Y-4463745D01*
X8011972Y-4466590D01*
X8007350Y-4470349D01*
X8003590Y-4474972D01*
X8000746Y-4480255D01*
X7999018Y-4485944D01*
X7998409Y-4492396D01*
G37*
G36*
X8164830Y-4522673D02*
G01*
X8232190Y-4522673D01*
X8232190Y-4492396D01*
X8231581Y-4485944D01*
X8229853Y-4480255D01*
X8227009Y-4474972D01*
X8223250Y-4470349D01*
X8218627Y-4466590D01*
X8213344Y-4463745D01*
X8207654Y-4462018D01*
X8201202Y-4461408D01*
X8164830Y-4461408D01*
G37*
G36*
X3885285Y-4433570D02*
G01*
X4005072Y-4433570D01*
X4011472Y-4432909D01*
X4017213Y-4431182D01*
X4022496Y-4428388D01*
X4027068Y-4424578D01*
X4030878Y-4419955D01*
X4033672Y-4414723D01*
X4035450Y-4408982D01*
X4036060Y-4402531D01*
X4036060Y-4233468D01*
X4035450Y-4227017D01*
X4033672Y-4221276D01*
X4030878Y-4216044D01*
X4027068Y-4211421D01*
X4019600Y-4205325D01*
X4017721Y-4202226D01*
X4017060Y-4198620D01*
X4017060Y-4127550D01*
X4017822Y-4123690D01*
X4020058Y-4120387D01*
X4023360Y-4118203D01*
X4027220Y-4117390D01*
X4030319Y-4117390D01*
X4036720Y-4116781D01*
X4042460Y-4115054D01*
X4047744Y-4112209D01*
X4052315Y-4108450D01*
X4056126Y-4103827D01*
X4058920Y-4098544D01*
X4060698Y-4092854D01*
X4061307Y-4086402D01*
X4061307Y-4071162D01*
X4062069Y-4067301D01*
X4064304Y-4064000D01*
X4067556Y-4061764D01*
X4071467Y-4061002D01*
X5026863Y-4061002D01*
X5030012Y-4061510D01*
X5032806Y-4062933D01*
X5035092Y-4065219D01*
X5038293Y-4069638D01*
X5047640Y-4079595D01*
X5058156Y-4088282D01*
X5069636Y-4095546D01*
X5081981Y-4101388D01*
X5094935Y-4105605D01*
X5108295Y-4108145D01*
X5122214Y-4109008D01*
X5215585Y-4109008D01*
X5229504Y-4108145D01*
X5242864Y-4105605D01*
X5255818Y-4101388D01*
X5268163Y-4095546D01*
X5279644Y-4088282D01*
X5290159Y-4079595D01*
X5299506Y-4069638D01*
X5307482Y-4058615D01*
X5314086Y-4046677D01*
X5319064Y-4034028D01*
X5322468Y-4020820D01*
X5324195Y-4007307D01*
X5324195Y-3993692D01*
X5322468Y-3980179D01*
X5319064Y-3966972D01*
X5314086Y-3954322D01*
X5307482Y-3942384D01*
X5299506Y-3931361D01*
X5290159Y-3921404D01*
X5279644Y-3912717D01*
X5268163Y-3905453D01*
X5255818Y-3899611D01*
X5242864Y-3895394D01*
X5229504Y-3892854D01*
X5215585Y-3891991D01*
X5122214Y-3891991D01*
X5108295Y-3892854D01*
X5094935Y-3895394D01*
X5081981Y-3899611D01*
X5069636Y-3905453D01*
X5058156Y-3912717D01*
X5047640Y-3921404D01*
X5038293Y-3931361D01*
X5035092Y-3935780D01*
X5032806Y-3938066D01*
X5030012Y-3939489D01*
X5026863Y-3939997D01*
X4071467Y-3939997D01*
X4067556Y-3939235D01*
X4064304Y-3937000D01*
X4062069Y-3933698D01*
X4061307Y-3929837D01*
X4061307Y-3914597D01*
X4060698Y-3908145D01*
X4058920Y-3902456D01*
X4056126Y-3897172D01*
X4052315Y-3892550D01*
X4047744Y-3888790D01*
X4042460Y-3885946D01*
X4036720Y-3884218D01*
X4030319Y-3883609D01*
X3882796Y-3883609D01*
X3876344Y-3884218D01*
X3870655Y-3885946D01*
X3865372Y-3888790D01*
X3860749Y-3892550D01*
X3856990Y-3897172D01*
X3854145Y-3902456D01*
X3852418Y-3908145D01*
X3851808Y-3914597D01*
X3851808Y-4086402D01*
X3852418Y-4092854D01*
X3854145Y-4098544D01*
X3856990Y-4103827D01*
X3860749Y-4108450D01*
X3865372Y-4112209D01*
X3870655Y-4115054D01*
X3876344Y-4116781D01*
X3882796Y-4117390D01*
X3885895Y-4117390D01*
X3889756Y-4118203D01*
X3893058Y-4120387D01*
X3895293Y-4123690D01*
X3896055Y-4127550D01*
X3896055Y-4192270D01*
X3895344Y-4195978D01*
X3893362Y-4199128D01*
X3890365Y-4201414D01*
X3886758Y-4202379D01*
X3878783Y-4203090D01*
X3873144Y-4204817D01*
X3867861Y-4207611D01*
X3863238Y-4211421D01*
X3859479Y-4216044D01*
X3856685Y-4221276D01*
X3854907Y-4227017D01*
X3854297Y-4233468D01*
X3854297Y-4402531D01*
X3854907Y-4408982D01*
X3856685Y-4414723D01*
X3859479Y-4419955D01*
X3863238Y-4424578D01*
X3867861Y-4428388D01*
X3873144Y-4431182D01*
X3878834Y-4432909D01*
G37*
G36*
X3589528Y-4433570D02*
G01*
X3709314Y-4433570D01*
X3715765Y-4432909D01*
X3721455Y-4431182D01*
X3726738Y-4428388D01*
X3731361Y-4424578D01*
X3735120Y-4419955D01*
X3737914Y-4414723D01*
X3739692Y-4408982D01*
X3740302Y-4402531D01*
X3740302Y-4233468D01*
X3739692Y-4227017D01*
X3737914Y-4221276D01*
X3735120Y-4216044D01*
X3731361Y-4211421D01*
X3726738Y-4207611D01*
X3721455Y-4204817D01*
X3715765Y-4203090D01*
X3709314Y-4202430D01*
X3589528Y-4202430D01*
X3583127Y-4203090D01*
X3577386Y-4204817D01*
X3572103Y-4207611D01*
X3567531Y-4211421D01*
X3563721Y-4216044D01*
X3560927Y-4221276D01*
X3559149Y-4227017D01*
X3558540Y-4233468D01*
X3558540Y-4248099D01*
X3557778Y-4251960D01*
X3555593Y-4255262D01*
X3552342Y-4257446D01*
X3548481Y-4258259D01*
X2445969Y-4266539D01*
X2441956Y-4265777D01*
X2438603Y-4263491D01*
X2436418Y-4260088D01*
X2435707Y-4256125D01*
X2436622Y-4252163D01*
X2439009Y-4248912D01*
X2442464Y-4246829D01*
X2459837Y-4240580D01*
X2477160Y-4232402D01*
X2493619Y-4222546D01*
X2509012Y-4211116D01*
X2523236Y-4198213D01*
X2536139Y-4183989D01*
X2547569Y-4168597D01*
X2557424Y-4152137D01*
X2565603Y-4134815D01*
X2572054Y-4116730D01*
X2576728Y-4098137D01*
X2579573Y-4079138D01*
X2580487Y-4059986D01*
X2579573Y-4040835D01*
X2576728Y-4021836D01*
X2572054Y-4003243D01*
X2565603Y-3985158D01*
X2557424Y-3967835D01*
X2547569Y-3951376D01*
X2536139Y-3935984D01*
X2523236Y-3921760D01*
X2509012Y-3908856D01*
X2493619Y-3897426D01*
X2477160Y-3887571D01*
X2459837Y-3879392D01*
X2441752Y-3872890D01*
X2423160Y-3868267D01*
X2404160Y-3865422D01*
X2384755Y-3864457D01*
X2365248Y-3864457D01*
X2345842Y-3865422D01*
X2326843Y-3868267D01*
X2308250Y-3872890D01*
X2290165Y-3879392D01*
X2272842Y-3887571D01*
X2256383Y-3897426D01*
X2240991Y-3908856D01*
X2226767Y-3921760D01*
X2213864Y-3935984D01*
X2202434Y-3951376D01*
X2192578Y-3967835D01*
X2184400Y-3985158D01*
X2177948Y-4003243D01*
X2173274Y-4021836D01*
X2170430Y-4040835D01*
X2169515Y-4059986D01*
X2170430Y-4079138D01*
X2173274Y-4098137D01*
X2177948Y-4116730D01*
X2184400Y-4134815D01*
X2192578Y-4152137D01*
X2202434Y-4168597D01*
X2213864Y-4183989D01*
X2226767Y-4198213D01*
X2240991Y-4211116D01*
X2256383Y-4222546D01*
X2272842Y-4232402D01*
X2290165Y-4240580D01*
X2308250Y-4247083D01*
X2310231Y-4247540D01*
X2313990Y-4249369D01*
X2316683Y-4252569D01*
X2317902Y-4256532D01*
X2317394Y-4260646D01*
X2315311Y-4264253D01*
X2311908Y-4266692D01*
X2307844Y-4267555D01*
X1989480Y-4269994D01*
X1985568Y-4269232D01*
X1982216Y-4266996D01*
X1815185Y-4099915D01*
X1812798Y-4096207D01*
X1728419Y-3862019D01*
X1727809Y-3857853D01*
X1728978Y-3853840D01*
X1731721Y-3850589D01*
X1739900Y-3844188D01*
X1750161Y-3833876D01*
X1759153Y-3822446D01*
X1766671Y-3810000D01*
X1772666Y-3796741D01*
X1776984Y-3782822D01*
X1779625Y-3768496D01*
X1780489Y-3754018D01*
X1779625Y-3739489D01*
X1776984Y-3725164D01*
X1772666Y-3711244D01*
X1766671Y-3697986D01*
X1759153Y-3685540D01*
X1750161Y-3674110D01*
X1739900Y-3663797D01*
X1728419Y-3654856D01*
X1715973Y-3647287D01*
X1702714Y-3641344D01*
X1688236Y-3636822D01*
X1686001Y-3635552D01*
X1681835Y-3635705D01*
X1674520Y-3634384D01*
X1659686Y-3633470D01*
X1590294Y-3633470D01*
X1575460Y-3634384D01*
X1568145Y-3635705D01*
X1563979Y-3635552D01*
X1561744Y-3636822D01*
X1547266Y-3641344D01*
X1534007Y-3647287D01*
X1521561Y-3654856D01*
X1510080Y-3663797D01*
X1499819Y-3674110D01*
X1490827Y-3685540D01*
X1483309Y-3697986D01*
X1477314Y-3711244D01*
X1472996Y-3725164D01*
X1470355Y-3739489D01*
X1469491Y-3754018D01*
X1470355Y-3768496D01*
X1472996Y-3782822D01*
X1477314Y-3796741D01*
X1483309Y-3810000D01*
X1490827Y-3822446D01*
X1499819Y-3833876D01*
X1510080Y-3844188D01*
X1521561Y-3853129D01*
X1534007Y-3860698D01*
X1547266Y-3866642D01*
X1561134Y-3870960D01*
X1575460Y-3873601D01*
X1590294Y-3874515D01*
X1597101Y-3874515D01*
X1601165Y-3875328D01*
X1604518Y-3877716D01*
X1606702Y-3881221D01*
X1704238Y-4151833D01*
X1706930Y-4158234D01*
X1708404Y-4161028D01*
X1712061Y-4166819D01*
X1713992Y-4169359D01*
X1718665Y-4174540D01*
X1917293Y-4373168D01*
X1925218Y-4379925D01*
X1933803Y-4385005D01*
X1943100Y-4388662D01*
X1952955Y-4390745D01*
X1961184Y-4391202D01*
X3548278Y-4379264D01*
X3552190Y-4380026D01*
X3555542Y-4382211D01*
X3557778Y-4385513D01*
X3558540Y-4389424D01*
X3558540Y-4402531D01*
X3559149Y-4408982D01*
X3560927Y-4414723D01*
X3563721Y-4419955D01*
X3567531Y-4424578D01*
X3572103Y-4428388D01*
X3577386Y-4431182D01*
X3583127Y-4432909D01*
G37*
G36*
X9433204Y-1764284D02*
G01*
X9433204Y-1693824D01*
X9362744Y-1693824D01*
X9363354Y-1695196D01*
X9371888Y-1710029D01*
X9382048Y-1723847D01*
X9393631Y-1736445D01*
X9406585Y-1747723D01*
X9420656Y-1757476D01*
G37*
G36*
X7662214Y-4363008D02*
G01*
X7755585Y-4363008D01*
X7769504Y-4362145D01*
X7782864Y-4359605D01*
X7795818Y-4355388D01*
X7808163Y-4349546D01*
X7819644Y-4342282D01*
X7830159Y-4333595D01*
X7839506Y-4323638D01*
X7847736Y-4312361D01*
X7849971Y-4310075D01*
X7852816Y-4308652D01*
X7855915Y-4308144D01*
X7988249Y-4308144D01*
X7992109Y-4308906D01*
X7995412Y-4311142D01*
X7997596Y-4314444D01*
X7998409Y-4318304D01*
X7998409Y-4321403D01*
X7999018Y-4327855D01*
X8000746Y-4333544D01*
X8003590Y-4338828D01*
X8007350Y-4343450D01*
X8011972Y-4347210D01*
X8017256Y-4350054D01*
X8022945Y-4351782D01*
X8029397Y-4352391D01*
X8201202Y-4352391D01*
X8207654Y-4351782D01*
X8213344Y-4350054D01*
X8218627Y-4347210D01*
X8223250Y-4343450D01*
X8227009Y-4338828D01*
X8229853Y-4333544D01*
X8231581Y-4327855D01*
X8232190Y-4321403D01*
X8232190Y-4173880D01*
X8231581Y-4167479D01*
X8229853Y-4161739D01*
X8227009Y-4156456D01*
X8223250Y-4151884D01*
X8218627Y-4148074D01*
X8213344Y-4145279D01*
X8207654Y-4143501D01*
X8201202Y-4142892D01*
X8185962Y-4142892D01*
X8182102Y-4142130D01*
X8178800Y-4139895D01*
X8176564Y-4136644D01*
X8175802Y-4132732D01*
X8175802Y-4020820D01*
X8176564Y-4016908D01*
X8178800Y-4013657D01*
X8182102Y-4011422D01*
X8187131Y-4010660D01*
X8193582Y-4010050D01*
X8199323Y-4008272D01*
X8204555Y-4005478D01*
X8209178Y-4001668D01*
X8212988Y-3997096D01*
X8215782Y-3991813D01*
X8217509Y-3986072D01*
X8218170Y-3979672D01*
X8218170Y-3859885D01*
X8217509Y-3853434D01*
X8215782Y-3847744D01*
X8212988Y-3842461D01*
X8209178Y-3837838D01*
X8204555Y-3834079D01*
X8199323Y-3831285D01*
X8193582Y-3829507D01*
X8187131Y-3828897D01*
X8018068Y-3828897D01*
X8011617Y-3829507D01*
X8005876Y-3831285D01*
X8000644Y-3834079D01*
X7996021Y-3837838D01*
X7992211Y-3842461D01*
X7989417Y-3847744D01*
X7987690Y-3853434D01*
X7987030Y-3859885D01*
X7987030Y-3979672D01*
X7987690Y-3986072D01*
X7989417Y-3991813D01*
X7992211Y-3997096D01*
X7996021Y-4001668D01*
X8000644Y-4005478D01*
X8005876Y-4008272D01*
X8011617Y-4010050D01*
X8018068Y-4010660D01*
X8044637Y-4010660D01*
X8048498Y-4011422D01*
X8051800Y-4013657D01*
X8054035Y-4016908D01*
X8054797Y-4020820D01*
X8054797Y-4132732D01*
X8054035Y-4136644D01*
X8051800Y-4139895D01*
X8048498Y-4142130D01*
X8044637Y-4142892D01*
X8029397Y-4142892D01*
X8022945Y-4143501D01*
X8017256Y-4145279D01*
X8011972Y-4148074D01*
X8007350Y-4151884D01*
X8003590Y-4156456D01*
X8000746Y-4161739D01*
X7999018Y-4167479D01*
X7998409Y-4173880D01*
X7998409Y-4176979D01*
X7997596Y-4180840D01*
X7995412Y-4184142D01*
X7992109Y-4186377D01*
X7988249Y-4187139D01*
X7845552Y-4187139D01*
X7841538Y-4186275D01*
X7838186Y-4183938D01*
X7830159Y-4175404D01*
X7819644Y-4166717D01*
X7808163Y-4159453D01*
X7795818Y-4153611D01*
X7782864Y-4149394D01*
X7769504Y-4146854D01*
X7755585Y-4145991D01*
X7662214Y-4145991D01*
X7648295Y-4146854D01*
X7634935Y-4149394D01*
X7621981Y-4153611D01*
X7609636Y-4159453D01*
X7598156Y-4166717D01*
X7587640Y-4175404D01*
X7578293Y-4185361D01*
X7570317Y-4196384D01*
X7563713Y-4208322D01*
X7558735Y-4220972D01*
X7555331Y-4234180D01*
X7553604Y-4247692D01*
X7553604Y-4261307D01*
X7555331Y-4274820D01*
X7558735Y-4288028D01*
X7563713Y-4300677D01*
X7570317Y-4312615D01*
X7578293Y-4323638D01*
X7587640Y-4333595D01*
X7598156Y-4342282D01*
X7609636Y-4349546D01*
X7621981Y-4355388D01*
X7634935Y-4359605D01*
X7648295Y-4362145D01*
G37*
G36*
X5122214Y-1823008D02*
G01*
X5215585Y-1823008D01*
X5229504Y-1822145D01*
X5242864Y-1819605D01*
X5255818Y-1815388D01*
X5268163Y-1809546D01*
X5279644Y-1802282D01*
X5290159Y-1793595D01*
X5299506Y-1783638D01*
X5307482Y-1772615D01*
X5314086Y-1760677D01*
X5319064Y-1748028D01*
X5322468Y-1734820D01*
X5324195Y-1721307D01*
X5324195Y-1707692D01*
X5322468Y-1694180D01*
X5319064Y-1680972D01*
X5314086Y-1668322D01*
X5307482Y-1656384D01*
X5299506Y-1645361D01*
X5290159Y-1635404D01*
X5279644Y-1626717D01*
X5268163Y-1619453D01*
X5255818Y-1613611D01*
X5242864Y-1609394D01*
X5229504Y-1606854D01*
X5215585Y-1605991D01*
X5122214Y-1605991D01*
X5108295Y-1606854D01*
X5094935Y-1609394D01*
X5081981Y-1613611D01*
X5069636Y-1619453D01*
X5058156Y-1626717D01*
X5047640Y-1635404D01*
X5038293Y-1645361D01*
X5035092Y-1649780D01*
X5032806Y-1652066D01*
X5030012Y-1653489D01*
X5026863Y-1653997D01*
X4606036Y-1653997D01*
X4602073Y-1653184D01*
X4598771Y-1650949D01*
X4596587Y-1647596D01*
X4595876Y-1643634D01*
X4607102Y-1093825D01*
X4606594Y-1084783D01*
X4604562Y-1074928D01*
X4600905Y-1065631D01*
X4595825Y-1057046D01*
X4589068Y-1049121D01*
X3809746Y-269748D01*
X3807561Y-266496D01*
X3805123Y-251866D01*
X3801872Y-242417D01*
X3797147Y-233629D01*
X3791000Y-225755D01*
X3783634Y-218998D01*
X3775303Y-213512D01*
X3766159Y-209499D01*
X3756456Y-207060D01*
X3746093Y-206197D01*
X851204Y-206197D01*
X843229Y-206705D01*
X841146Y-207010D01*
X831443Y-209397D01*
X824128Y-212445D01*
X815594Y-217576D01*
X807872Y-224129D01*
X655929Y-376072D01*
X649376Y-383794D01*
X644245Y-392328D01*
X641197Y-399643D01*
X638810Y-409346D01*
X638505Y-411429D01*
X637997Y-419404D01*
X637997Y-985012D01*
X637336Y-988568D01*
X635457Y-991717D01*
X626567Y-1001877D01*
X618794Y-1013460D01*
X612648Y-1025956D01*
X608126Y-1039164D01*
X605434Y-1052880D01*
X604520Y-1066800D01*
X605434Y-1080719D01*
X608126Y-1094435D01*
X612648Y-1107643D01*
X618794Y-1120140D01*
X626567Y-1131722D01*
X635762Y-1142238D01*
X646277Y-1151432D01*
X657860Y-1159205D01*
X670356Y-1165352D01*
X683564Y-1169873D01*
X697280Y-1172565D01*
X711200Y-1173480D01*
X725119Y-1172565D01*
X738835Y-1169873D01*
X752043Y-1165352D01*
X764540Y-1159205D01*
X776122Y-1151432D01*
X786638Y-1142238D01*
X795832Y-1131722D01*
X803605Y-1120140D01*
X809752Y-1107643D01*
X814273Y-1094435D01*
X816965Y-1080719D01*
X817880Y-1066800D01*
X816965Y-1052880D01*
X814273Y-1039164D01*
X809752Y-1025956D01*
X803605Y-1013460D01*
X795832Y-1001877D01*
X786638Y-991362D01*
X776173Y-982167D01*
X763574Y-973836D01*
X761136Y-971550D01*
X759561Y-968654D01*
X759002Y-965352D01*
X759002Y-448360D01*
X759764Y-444500D01*
X762000Y-441198D01*
X872998Y-330200D01*
X876300Y-327964D01*
X880160Y-327202D01*
X2331059Y-327202D01*
X2335276Y-328117D01*
X2338730Y-330708D01*
X2340813Y-334467D01*
X2341118Y-338785D01*
X2339644Y-342849D01*
X2336596Y-345897D01*
X2332583Y-347421D01*
X2326843Y-348284D01*
X2308250Y-352907D01*
X2290165Y-359410D01*
X2272842Y-367588D01*
X2256383Y-377444D01*
X2240991Y-388874D01*
X2226767Y-401777D01*
X2213864Y-416001D01*
X2202434Y-431393D01*
X2192578Y-447852D01*
X2184400Y-465175D01*
X2177948Y-483260D01*
X2173274Y-501853D01*
X2170430Y-520852D01*
X2169515Y-540004D01*
X2170430Y-559155D01*
X2173274Y-578154D01*
X2177948Y-596747D01*
X2184400Y-614832D01*
X2192578Y-632155D01*
X2202434Y-648614D01*
X2213864Y-664006D01*
X2226767Y-678230D01*
X2240991Y-691134D01*
X2256383Y-702564D01*
X2272842Y-712419D01*
X2290165Y-720598D01*
X2308250Y-727100D01*
X2326843Y-731723D01*
X2345842Y-734568D01*
X2365248Y-735533D01*
X2384755Y-735533D01*
X2404160Y-734568D01*
X2423160Y-731723D01*
X2441752Y-727100D01*
X2459837Y-720598D01*
X2477160Y-712419D01*
X2493619Y-702564D01*
X2509012Y-691134D01*
X2523236Y-678230D01*
X2536139Y-664006D01*
X2547569Y-648614D01*
X2557424Y-632155D01*
X2565603Y-614832D01*
X2572054Y-596747D01*
X2576728Y-578154D01*
X2579573Y-559155D01*
X2580487Y-540004D01*
X2579573Y-520852D01*
X2576728Y-501853D01*
X2572054Y-483260D01*
X2565603Y-465175D01*
X2557424Y-447852D01*
X2547569Y-431393D01*
X2536139Y-416001D01*
X2523236Y-401777D01*
X2509012Y-388874D01*
X2493619Y-377444D01*
X2477160Y-367588D01*
X2459837Y-359410D01*
X2441752Y-352907D01*
X2423160Y-348284D01*
X2417419Y-347421D01*
X2413406Y-345897D01*
X2410358Y-342849D01*
X2408885Y-338785D01*
X2409190Y-334467D01*
X2411272Y-330708D01*
X2414727Y-328117D01*
X2418943Y-327202D01*
X3691839Y-327202D01*
X3695700Y-327964D01*
X3699001Y-330200D01*
X4482541Y-1113688D01*
X4484776Y-1117092D01*
X4485487Y-1121054D01*
X4473397Y-1713026D01*
X4473600Y-1719580D01*
X4474006Y-1723136D01*
X4475276Y-1729435D01*
X4476242Y-1732889D01*
X4478528Y-1738884D01*
X4480052Y-1742135D01*
X4483303Y-1747672D01*
X4485335Y-1750618D01*
X4489450Y-1755546D01*
X4491939Y-1758086D01*
X4496816Y-1762302D01*
X4499711Y-1764385D01*
X4505198Y-1767738D01*
X4508398Y-1769364D01*
X4514342Y-1771751D01*
X4517745Y-1772818D01*
X4524044Y-1774189D01*
X4527550Y-1774647D01*
X4534154Y-1775002D01*
X5026863Y-1775002D01*
X5030012Y-1775510D01*
X5032806Y-1776933D01*
X5035092Y-1779219D01*
X5038293Y-1783638D01*
X5047640Y-1793595D01*
X5058156Y-1802282D01*
X5069636Y-1809546D01*
X5081981Y-1815388D01*
X5094935Y-1819605D01*
X5108295Y-1822145D01*
G37*
G36*
X7662214Y-1823008D02*
G01*
X7755585Y-1823008D01*
X7769504Y-1822145D01*
X7782864Y-1819605D01*
X7795818Y-1815388D01*
X7808163Y-1809546D01*
X7819644Y-1802282D01*
X7830159Y-1793595D01*
X7839506Y-1783638D01*
X7847482Y-1772615D01*
X7854086Y-1760677D01*
X7859064Y-1748028D01*
X7862468Y-1734820D01*
X7864195Y-1721307D01*
X7864195Y-1707692D01*
X7862468Y-1694180D01*
X7859064Y-1680972D01*
X7854086Y-1668322D01*
X7847482Y-1656384D01*
X7839506Y-1645361D01*
X7830159Y-1635404D01*
X7819644Y-1626717D01*
X7808163Y-1619453D01*
X7795818Y-1613611D01*
X7782864Y-1609394D01*
X7769504Y-1606854D01*
X7755585Y-1605991D01*
X7662214Y-1605991D01*
X7648295Y-1606854D01*
X7634935Y-1609394D01*
X7621981Y-1613611D01*
X7609636Y-1619453D01*
X7598156Y-1626717D01*
X7587640Y-1635404D01*
X7578293Y-1645361D01*
X7570317Y-1656384D01*
X7563713Y-1668322D01*
X7558735Y-1680972D01*
X7555331Y-1694180D01*
X7553604Y-1707692D01*
X7553604Y-1721307D01*
X7555331Y-1734820D01*
X7558735Y-1748028D01*
X7563713Y-1760677D01*
X7570317Y-1772615D01*
X7578293Y-1783638D01*
X7587640Y-1793595D01*
X7598156Y-1802282D01*
X7609636Y-1809546D01*
X7621981Y-1815388D01*
X7634935Y-1819605D01*
X7648295Y-1822145D01*
G37*
G36*
X2365248Y-1855520D02*
G01*
X2384755Y-1855520D01*
X2404160Y-1854555D01*
X2423160Y-1851710D01*
X2441752Y-1847088D01*
X2459837Y-1840585D01*
X2477160Y-1832406D01*
X2493619Y-1822551D01*
X2509012Y-1811121D01*
X2523236Y-1798218D01*
X2536139Y-1783994D01*
X2547569Y-1768602D01*
X2557424Y-1752142D01*
X2565603Y-1734820D01*
X2572054Y-1716735D01*
X2576728Y-1698142D01*
X2579573Y-1679143D01*
X2580487Y-1659991D01*
X2579573Y-1640839D01*
X2576728Y-1621840D01*
X2572054Y-1603248D01*
X2565603Y-1585163D01*
X2557424Y-1567840D01*
X2547569Y-1551381D01*
X2536139Y-1535988D01*
X2523236Y-1521764D01*
X2509012Y-1508861D01*
X2493619Y-1497431D01*
X2477160Y-1487576D01*
X2459837Y-1479397D01*
X2441752Y-1472895D01*
X2423160Y-1468272D01*
X2404160Y-1465427D01*
X2384755Y-1464462D01*
X2365248Y-1464462D01*
X2345842Y-1465427D01*
X2326843Y-1468272D01*
X2308250Y-1472895D01*
X2290165Y-1479397D01*
X2272842Y-1487576D01*
X2256383Y-1497431D01*
X2240991Y-1508861D01*
X2226767Y-1521764D01*
X2213864Y-1535988D01*
X2202434Y-1551381D01*
X2192578Y-1567840D01*
X2184400Y-1585163D01*
X2177948Y-1603248D01*
X2173274Y-1621840D01*
X2170430Y-1640839D01*
X2169515Y-1659991D01*
X2170430Y-1679143D01*
X2173274Y-1698142D01*
X2177948Y-1716735D01*
X2184400Y-1734820D01*
X2192578Y-1752142D01*
X2202434Y-1768602D01*
X2213864Y-1783994D01*
X2226767Y-1798218D01*
X2240991Y-1811121D01*
X2256383Y-1822551D01*
X2272842Y-1832406D01*
X2290165Y-1840585D01*
X2308250Y-1847088D01*
X2326843Y-1851710D01*
X2345842Y-1854555D01*
G37*
G36*
X7662214Y-2077008D02*
G01*
X7755585Y-2077008D01*
X7769504Y-2076145D01*
X7782864Y-2073605D01*
X7795818Y-2069388D01*
X7808163Y-2063546D01*
X7819644Y-2056282D01*
X7830159Y-2047595D01*
X7839506Y-2037638D01*
X7842707Y-2033219D01*
X7844993Y-2030933D01*
X7847787Y-2029510D01*
X7850936Y-2029002D01*
X9001810Y-2029002D01*
X9006992Y-2028799D01*
X9011970Y-2028189D01*
X9016847Y-2027123D01*
X9021673Y-2025700D01*
X9026296Y-2023922D01*
X9030817Y-2021687D01*
X9035084Y-2019147D01*
X9039148Y-2016252D01*
X9043009Y-2013000D01*
X9046514Y-2009495D01*
X9049766Y-2005634D01*
X9052661Y-2001570D01*
X9055201Y-1997303D01*
X9057436Y-1992782D01*
X9059214Y-1988159D01*
X9060637Y-1983333D01*
X9061704Y-1978456D01*
X9062313Y-1973478D01*
X9062516Y-1968296D01*
X9062516Y-1774850D01*
X9063177Y-1771294D01*
X9065006Y-1768195D01*
X9067850Y-1765909D01*
X9083497Y-1757476D01*
X9097568Y-1747723D01*
X9110522Y-1736445D01*
X9122105Y-1723847D01*
X9132265Y-1710029D01*
X9140799Y-1695196D01*
X9147708Y-1679498D01*
X9152788Y-1663192D01*
X9156090Y-1646377D01*
X9157512Y-1629257D01*
X9157055Y-1612138D01*
X9154668Y-1595170D01*
X9150502Y-1578559D01*
X9144457Y-1562557D01*
X9136735Y-1547266D01*
X9127388Y-1532890D01*
X9116466Y-1519682D01*
X9104172Y-1507744D01*
X9090660Y-1497228D01*
X9076080Y-1488236D01*
X9060586Y-1480921D01*
X9044381Y-1475384D01*
X9027668Y-1471625D01*
X9010650Y-1469745D01*
X8993530Y-1469745D01*
X8976461Y-1471625D01*
X8959748Y-1475384D01*
X8943543Y-1480921D01*
X8928049Y-1488236D01*
X8913469Y-1497228D01*
X8899956Y-1507744D01*
X8887663Y-1519682D01*
X8876792Y-1532890D01*
X8867394Y-1547266D01*
X8859672Y-1562557D01*
X8853678Y-1578559D01*
X8849461Y-1595170D01*
X8847124Y-1612138D01*
X8846667Y-1629257D01*
X8848039Y-1646377D01*
X8851341Y-1663192D01*
X8856472Y-1679498D01*
X8863330Y-1695196D01*
X8871915Y-1710029D01*
X8882075Y-1723847D01*
X8893657Y-1736445D01*
X8906560Y-1747723D01*
X8920632Y-1757476D01*
X8936177Y-1765858D01*
X8939022Y-1768144D01*
X8940850Y-1771243D01*
X8941511Y-1774799D01*
X8941511Y-1897837D01*
X8940749Y-1901698D01*
X8938514Y-1905000D01*
X8935212Y-1907235D01*
X8931351Y-1907997D01*
X7850936Y-1907997D01*
X7847787Y-1907489D01*
X7844993Y-1906066D01*
X7842707Y-1903780D01*
X7839506Y-1899361D01*
X7830159Y-1889404D01*
X7819644Y-1880717D01*
X7808163Y-1873453D01*
X7795818Y-1867611D01*
X7782864Y-1863394D01*
X7769504Y-1860854D01*
X7755585Y-1859991D01*
X7662214Y-1859991D01*
X7648295Y-1860854D01*
X7634935Y-1863394D01*
X7621981Y-1867611D01*
X7609636Y-1873453D01*
X7598156Y-1880717D01*
X7587640Y-1889404D01*
X7578293Y-1899361D01*
X7570317Y-1910384D01*
X7563713Y-1922322D01*
X7558735Y-1934972D01*
X7555331Y-1948180D01*
X7553604Y-1961692D01*
X7553604Y-1975307D01*
X7555331Y-1988820D01*
X7558735Y-2002028D01*
X7563713Y-2014677D01*
X7570317Y-2026615D01*
X7578293Y-2037638D01*
X7587640Y-2047595D01*
X7598156Y-2056282D01*
X7609636Y-2063546D01*
X7621981Y-2069388D01*
X7634935Y-2073605D01*
X7648295Y-2076145D01*
G37*
G36*
X9229852Y-4260697D02*
G01*
X9249359Y-4260697D01*
X9268764Y-4259732D01*
X9287764Y-4256938D01*
X9306356Y-4252264D01*
X9324441Y-4245813D01*
X9341764Y-4237583D01*
X9358223Y-4227728D01*
X9373616Y-4216298D01*
X9387840Y-4203446D01*
X9400743Y-4189222D01*
X9412173Y-4173829D01*
X9422028Y-4157370D01*
X9430207Y-4139996D01*
X9436658Y-4121962D01*
X9441332Y-4103319D01*
X9444177Y-4084370D01*
X9445091Y-4065219D01*
X9444177Y-4046016D01*
X9441332Y-4027068D01*
X9436658Y-4008424D01*
X9430207Y-3990390D01*
X9422028Y-3973017D01*
X9412173Y-3956558D01*
X9400743Y-3941165D01*
X9387840Y-3926941D01*
X9373616Y-3914089D01*
X9358223Y-3902659D01*
X9341764Y-3892804D01*
X9324441Y-3884574D01*
X9306356Y-3878122D01*
X9287764Y-3873449D01*
X9268764Y-3870655D01*
X9249359Y-3869690D01*
X9229852Y-3869690D01*
X9210446Y-3870655D01*
X9191447Y-3873449D01*
X9172854Y-3878122D01*
X9154769Y-3884574D01*
X9137446Y-3892804D01*
X9120987Y-3902659D01*
X9105595Y-3914089D01*
X9091371Y-3926941D01*
X9078468Y-3941165D01*
X9067038Y-3956558D01*
X9057182Y-3973017D01*
X9049004Y-3990390D01*
X9042552Y-4008424D01*
X9037878Y-4027068D01*
X9035034Y-4046016D01*
X9034119Y-4065219D01*
X9035034Y-4084370D01*
X9037878Y-4103319D01*
X9042552Y-4121962D01*
X9049004Y-4139996D01*
X9057182Y-4157370D01*
X9067038Y-4173829D01*
X9078468Y-4189222D01*
X9091371Y-4203446D01*
X9105595Y-4216298D01*
X9120987Y-4227728D01*
X9137446Y-4237583D01*
X9154769Y-4245813D01*
X9172854Y-4252264D01*
X9191447Y-4256938D01*
X9210446Y-4259732D01*
G37*
G36*
X5122214Y-2331008D02*
G01*
X5215585Y-2331008D01*
X5229504Y-2330145D01*
X5242864Y-2327605D01*
X5255818Y-2323388D01*
X5268163Y-2317546D01*
X5279644Y-2310282D01*
X5290159Y-2301595D01*
X5299506Y-2291638D01*
X5307482Y-2280615D01*
X5314086Y-2268677D01*
X5319064Y-2256028D01*
X5322468Y-2242820D01*
X5324195Y-2229307D01*
X5324195Y-2215692D01*
X5322468Y-2202180D01*
X5319064Y-2188972D01*
X5314086Y-2176322D01*
X5307482Y-2164384D01*
X5299506Y-2153361D01*
X5290159Y-2143404D01*
X5279644Y-2134717D01*
X5268163Y-2127453D01*
X5255818Y-2121611D01*
X5242864Y-2117394D01*
X5229504Y-2114854D01*
X5215585Y-2113991D01*
X5122214Y-2113991D01*
X5108295Y-2114854D01*
X5094935Y-2117394D01*
X5081981Y-2121611D01*
X5069636Y-2127453D01*
X5058156Y-2134717D01*
X5047640Y-2143404D01*
X5038293Y-2153361D01*
X5030317Y-2164384D01*
X5023713Y-2176322D01*
X5018735Y-2188972D01*
X5015331Y-2202180D01*
X5013604Y-2215692D01*
X5013604Y-2229307D01*
X5015331Y-2242820D01*
X5018735Y-2256028D01*
X5023713Y-2268677D01*
X5030317Y-2280615D01*
X5038293Y-2291638D01*
X5047640Y-2301595D01*
X5058156Y-2310282D01*
X5069636Y-2317546D01*
X5081981Y-2323388D01*
X5094935Y-2327605D01*
X5108295Y-2330145D01*
G37*
G36*
X3681526Y-4117390D02*
G01*
X3711803Y-4117390D01*
X3718255Y-4116781D01*
X3723944Y-4115054D01*
X3729228Y-4112209D01*
X3733850Y-4108450D01*
X3737610Y-4103827D01*
X3740454Y-4098544D01*
X3742182Y-4092854D01*
X3742791Y-4086402D01*
X3742791Y-4050029D01*
X3681526Y-4050029D01*
G37*
G36*
X3564280Y-4117390D02*
G01*
X3594557Y-4117390D01*
X3594557Y-4050029D01*
X3533292Y-4050029D01*
X3533292Y-4086402D01*
X3533901Y-4092854D01*
X3535679Y-4098544D01*
X3538474Y-4103827D01*
X3542284Y-4108450D01*
X3546856Y-4112209D01*
X3552139Y-4115054D01*
X3557879Y-4116781D01*
G37*
G36*
X4978704Y-6982002D02*
G01*
X6278575Y-6982002D01*
X6286550Y-6981494D01*
X6288633Y-6981190D01*
X6298336Y-6978802D01*
X6305651Y-6975754D01*
X6314186Y-6970623D01*
X6321907Y-6964070D01*
X6542278Y-6743700D01*
X6545580Y-6741464D01*
X6549440Y-6740702D01*
X7708595Y-6740702D01*
X7712100Y-6740499D01*
X7716367Y-6741109D01*
X7719923Y-6743446D01*
X7813548Y-6837070D01*
X7821218Y-6843623D01*
X7829803Y-6848754D01*
X7837119Y-6851802D01*
X7846822Y-6854190D01*
X7848853Y-6854494D01*
X7856880Y-6855002D01*
X7904581Y-6855002D01*
X7908696Y-6855917D01*
X7912150Y-6858406D01*
X7914233Y-6862064D01*
X7919008Y-6877050D01*
X7925206Y-6890156D01*
X7932978Y-6902399D01*
X7942224Y-6913575D01*
X7952790Y-6923481D01*
X7964525Y-6932015D01*
X7977225Y-6938975D01*
X7990687Y-6944359D01*
X8004759Y-6947966D01*
X8019135Y-6949744D01*
X8033664Y-6949744D01*
X8048040Y-6947966D01*
X8062112Y-6944359D01*
X8075574Y-6938975D01*
X8088274Y-6932015D01*
X8100009Y-6923481D01*
X8110575Y-6913575D01*
X8119821Y-6902399D01*
X8127593Y-6890156D01*
X8133791Y-6876999D01*
X8138261Y-6863232D01*
X8140953Y-6848957D01*
X8141919Y-6834174D01*
X8141919Y-6754825D01*
X8140953Y-6740042D01*
X8138261Y-6725767D01*
X8133791Y-6712000D01*
X8127593Y-6698843D01*
X8119821Y-6686600D01*
X8110575Y-6675424D01*
X8100009Y-6665518D01*
X8088274Y-6656984D01*
X8075574Y-6650024D01*
X8062112Y-6644640D01*
X8048040Y-6641033D01*
X8033664Y-6639255D01*
X8019135Y-6639255D01*
X8004759Y-6641033D01*
X7990687Y-6644640D01*
X7977225Y-6650024D01*
X7964525Y-6656984D01*
X7952790Y-6665518D01*
X7942224Y-6675424D01*
X7932978Y-6686600D01*
X7925206Y-6698843D01*
X7919008Y-6711950D01*
X7914233Y-6726936D01*
X7912150Y-6730593D01*
X7908696Y-6733082D01*
X7904581Y-6733997D01*
X7885836Y-6733997D01*
X7881924Y-6733235D01*
X7878673Y-6731000D01*
X7772400Y-6624726D01*
X7770164Y-6621475D01*
X7769402Y-6617563D01*
X7769402Y-6148578D01*
X7770012Y-6145123D01*
X7771739Y-6142075D01*
X7774381Y-6139789D01*
X7777683Y-6138570D01*
X7782864Y-6137605D01*
X7795818Y-6133388D01*
X7808163Y-6127546D01*
X7819644Y-6120282D01*
X7830159Y-6111595D01*
X7839506Y-6101638D01*
X7847482Y-6090615D01*
X7854086Y-6078677D01*
X7859064Y-6066028D01*
X7862468Y-6052820D01*
X7864195Y-6039307D01*
X7864195Y-6025692D01*
X7862468Y-6012180D01*
X7859064Y-5998972D01*
X7854086Y-5986322D01*
X7847482Y-5974384D01*
X7839506Y-5963361D01*
X7830159Y-5953404D01*
X7819644Y-5944717D01*
X7808163Y-5937453D01*
X7795818Y-5931611D01*
X7782864Y-5927394D01*
X7769504Y-5924854D01*
X7755585Y-5923991D01*
X7662214Y-5923991D01*
X7648295Y-5924854D01*
X7634935Y-5927394D01*
X7621981Y-5931611D01*
X7609636Y-5937453D01*
X7598156Y-5944717D01*
X7587640Y-5953404D01*
X7578293Y-5963361D01*
X7570317Y-5974384D01*
X7563713Y-5986322D01*
X7558735Y-5998972D01*
X7555331Y-6012180D01*
X7553604Y-6025692D01*
X7553604Y-6039307D01*
X7555331Y-6052820D01*
X7558735Y-6066028D01*
X7563713Y-6078677D01*
X7570317Y-6090615D01*
X7578293Y-6101638D01*
X7587640Y-6111595D01*
X7598156Y-6120282D01*
X7609636Y-6127546D01*
X7621981Y-6133388D01*
X7634935Y-6137605D01*
X7640116Y-6138570D01*
X7643418Y-6139789D01*
X7646060Y-6142075D01*
X7647787Y-6145123D01*
X7648397Y-6148578D01*
X7648397Y-6609537D01*
X7647635Y-6613398D01*
X7645400Y-6616700D01*
X7642098Y-6618935D01*
X7638237Y-6619697D01*
X6481368Y-6619697D01*
X6477050Y-6618731D01*
X6473494Y-6615988D01*
X6471513Y-6611975D01*
X6459575Y-6564274D01*
X6418580Y-6389928D01*
X6418478Y-6385661D01*
X6420205Y-6376670D01*
X6421120Y-6362700D01*
X6420205Y-6348730D01*
X6417564Y-6335014D01*
X6413144Y-6321704D01*
X6407048Y-6309106D01*
X6399428Y-6297371D01*
X6390386Y-6286703D01*
X6380022Y-6277305D01*
X6368542Y-6269278D01*
X6356096Y-6262827D01*
X6342989Y-6258001D01*
X6329324Y-6254851D01*
X6315405Y-6253530D01*
X6301435Y-6253988D01*
X6287617Y-6256223D01*
X6274155Y-6260185D01*
X6261354Y-6265875D01*
X6249416Y-6273139D01*
X6238443Y-6281826D01*
X6228740Y-6291884D01*
X6220358Y-6303111D01*
X6213500Y-6315303D01*
X6208217Y-6328257D01*
X6204712Y-6341821D01*
X6202883Y-6355689D01*
X6202883Y-6369710D01*
X6204712Y-6383578D01*
X6208217Y-6397142D01*
X6213500Y-6410096D01*
X6220358Y-6422288D01*
X6228740Y-6433515D01*
X6238443Y-6443573D01*
X6249416Y-6452260D01*
X6261354Y-6459524D01*
X6274155Y-6465214D01*
X6287617Y-6469176D01*
X6301435Y-6471412D01*
X6305753Y-6471564D01*
X6309969Y-6472631D01*
X6313373Y-6475425D01*
X6315303Y-6479387D01*
X6342126Y-6593331D01*
X6367373Y-6694474D01*
X6370726Y-6704330D01*
X6375450Y-6713118D01*
X6381445Y-6720840D01*
X6383121Y-6724091D01*
X6383528Y-6727698D01*
X6382664Y-6731203D01*
X6380581Y-6734251D01*
X6256782Y-6858000D01*
X6253480Y-6860235D01*
X6249619Y-6860997D01*
X5007660Y-6860997D01*
X5003800Y-6860235D01*
X5000498Y-6858000D01*
X4869027Y-6726529D01*
X4861306Y-6719976D01*
X4852771Y-6714845D01*
X4845456Y-6711797D01*
X4835753Y-6709409D01*
X4833670Y-6709105D01*
X4825695Y-6708597D01*
X1578660Y-6708597D01*
X1574800Y-6707835D01*
X1571498Y-6705600D01*
X1028700Y-6162802D01*
X1026464Y-6159500D01*
X1025702Y-6155639D01*
X1025702Y-1159814D01*
X1026617Y-1155598D01*
X1029208Y-1152144D01*
X1040637Y-1142238D01*
X1049832Y-1131722D01*
X1057605Y-1120140D01*
X1063752Y-1107643D01*
X1068273Y-1094435D01*
X1070965Y-1080719D01*
X1071880Y-1066800D01*
X1070965Y-1052880D01*
X1068273Y-1039164D01*
X1063752Y-1025956D01*
X1057605Y-1013460D01*
X1049832Y-1001877D01*
X1040637Y-991362D01*
X1030122Y-982167D01*
X1018540Y-974394D01*
X1006043Y-968248D01*
X992835Y-963726D01*
X979119Y-961034D01*
X965200Y-960119D01*
X951280Y-961034D01*
X937564Y-963726D01*
X924356Y-968248D01*
X911860Y-974394D01*
X900277Y-982167D01*
X889762Y-991362D01*
X880567Y-1001877D01*
X872794Y-1013460D01*
X866648Y-1025956D01*
X862126Y-1039164D01*
X859434Y-1052880D01*
X858519Y-1066800D01*
X859434Y-1080719D01*
X862126Y-1094435D01*
X866648Y-1107643D01*
X872794Y-1120140D01*
X880567Y-1131722D01*
X889762Y-1142238D01*
X901192Y-1152144D01*
X903782Y-1155598D01*
X904697Y-1159814D01*
X904697Y-6184595D01*
X905205Y-6192570D01*
X905510Y-6194653D01*
X907897Y-6204356D01*
X910945Y-6211671D01*
X916076Y-6220206D01*
X922629Y-6227927D01*
X1506372Y-6811670D01*
X1514094Y-6818223D01*
X1522628Y-6823354D01*
X1529943Y-6826402D01*
X1539646Y-6828790D01*
X1541729Y-6829094D01*
X1549704Y-6829602D01*
X4796739Y-6829602D01*
X4800600Y-6830364D01*
X4803902Y-6832600D01*
X4935372Y-6964070D01*
X4943094Y-6970623D01*
X4951628Y-6975754D01*
X4958943Y-6978802D01*
X4968646Y-6981190D01*
X4970729Y-6981494D01*
G37*
G36*
X3132328Y-2566670D02*
G01*
X3252114Y-2566670D01*
X3258565Y-2566009D01*
X3264255Y-2564282D01*
X3269538Y-2561488D01*
X3274161Y-2557678D01*
X3277920Y-2553055D01*
X3280714Y-2547823D01*
X3282492Y-2542082D01*
X3283102Y-2535631D01*
X3283102Y-2366568D01*
X3282492Y-2360117D01*
X3280714Y-2354376D01*
X3277920Y-2349144D01*
X3274161Y-2344521D01*
X3269538Y-2340711D01*
X3264255Y-2337917D01*
X3258565Y-2336190D01*
X3252114Y-2335530D01*
X3132328Y-2335530D01*
X3125927Y-2336190D01*
X3120186Y-2337917D01*
X3114903Y-2340711D01*
X3110331Y-2344521D01*
X3106521Y-2349144D01*
X3103727Y-2354376D01*
X3101949Y-2360117D01*
X3101340Y-2366568D01*
X3101340Y-2380437D01*
X3100578Y-2384298D01*
X3098342Y-2387600D01*
X3095091Y-2389835D01*
X3091180Y-2390597D01*
X2554325Y-2390597D01*
X2549956Y-2389581D01*
X2546451Y-2386838D01*
X1765350Y-1425194D01*
X1763471Y-1421485D01*
X1763166Y-1417370D01*
X1764538Y-1413510D01*
X1766671Y-1410004D01*
X1772666Y-1396746D01*
X1776984Y-1382826D01*
X1779625Y-1368501D01*
X1780489Y-1354023D01*
X1779625Y-1339494D01*
X1776984Y-1325168D01*
X1772666Y-1311249D01*
X1766671Y-1297990D01*
X1759153Y-1285544D01*
X1750161Y-1274114D01*
X1739900Y-1263802D01*
X1728419Y-1254861D01*
X1715973Y-1247292D01*
X1702714Y-1241348D01*
X1688236Y-1236827D01*
X1686001Y-1235557D01*
X1681835Y-1235710D01*
X1674520Y-1234389D01*
X1659686Y-1233474D01*
X1590294Y-1233474D01*
X1575460Y-1234389D01*
X1568145Y-1235710D01*
X1563979Y-1235557D01*
X1561744Y-1236827D01*
X1547266Y-1241348D01*
X1534007Y-1247292D01*
X1521561Y-1254861D01*
X1510080Y-1263802D01*
X1499819Y-1274114D01*
X1490827Y-1285544D01*
X1483309Y-1297990D01*
X1477314Y-1311249D01*
X1472996Y-1325168D01*
X1470355Y-1339494D01*
X1469491Y-1354023D01*
X1470355Y-1368501D01*
X1472996Y-1382826D01*
X1477314Y-1396746D01*
X1483309Y-1410004D01*
X1490827Y-1422450D01*
X1499819Y-1433880D01*
X1510080Y-1444193D01*
X1521561Y-1453134D01*
X1534007Y-1460703D01*
X1547266Y-1466646D01*
X1561134Y-1470964D01*
X1575460Y-1473606D01*
X1590294Y-1474520D01*
X1644700Y-1474520D01*
X1649069Y-1475486D01*
X1652574Y-1478280D01*
X2473604Y-2489149D01*
X2476093Y-2491994D01*
X2480716Y-2496515D01*
X2483459Y-2498801D01*
X2488742Y-2502458D01*
X2491790Y-2504236D01*
X2497632Y-2507030D01*
X2500934Y-2508300D01*
X2507183Y-2510078D01*
X2510637Y-2510739D01*
X2517038Y-2511501D01*
X3091180Y-2511602D01*
X3095091Y-2512364D01*
X3098342Y-2514600D01*
X3100578Y-2517902D01*
X3101340Y-2521762D01*
X3101340Y-2535631D01*
X3101949Y-2542082D01*
X3103727Y-2547823D01*
X3106521Y-2553055D01*
X3110331Y-2557678D01*
X3114903Y-2561488D01*
X3120186Y-2564282D01*
X3125927Y-2566009D01*
G37*
G36*
X3533292Y-3950970D02*
G01*
X3594557Y-3950970D01*
X3594557Y-3883609D01*
X3564280Y-3883609D01*
X3557879Y-3884218D01*
X3552139Y-3885946D01*
X3546856Y-3888790D01*
X3542284Y-3892550D01*
X3538474Y-3897172D01*
X3535679Y-3902456D01*
X3533901Y-3908145D01*
X3533292Y-3914597D01*
G37*
G36*
X3681526Y-3950970D02*
G01*
X3742791Y-3950970D01*
X3742791Y-3914597D01*
X3742182Y-3908145D01*
X3740454Y-3902456D01*
X3737610Y-3897172D01*
X3733850Y-3892550D01*
X3729228Y-3888790D01*
X3723944Y-3885946D01*
X3718255Y-3884218D01*
X3711803Y-3883609D01*
X3681526Y-3883609D01*
G37*
G36*
X5122214Y-2585008D02*
G01*
X5215585Y-2585008D01*
X5229504Y-2584145D01*
X5242864Y-2581605D01*
X5255818Y-2577388D01*
X5268163Y-2571546D01*
X5279644Y-2564282D01*
X5290159Y-2555595D01*
X5299506Y-2545638D01*
X5307482Y-2534615D01*
X5314086Y-2522677D01*
X5319064Y-2510028D01*
X5322468Y-2496820D01*
X5324195Y-2483307D01*
X5324195Y-2469692D01*
X5322468Y-2456180D01*
X5319064Y-2442972D01*
X5314086Y-2430322D01*
X5307482Y-2418384D01*
X5299506Y-2407361D01*
X5290159Y-2397404D01*
X5279644Y-2388717D01*
X5268163Y-2381453D01*
X5255818Y-2375611D01*
X5242864Y-2371394D01*
X5229504Y-2368854D01*
X5215585Y-2367991D01*
X5122214Y-2367991D01*
X5108295Y-2368854D01*
X5094935Y-2371394D01*
X5081981Y-2375611D01*
X5069636Y-2381453D01*
X5058156Y-2388717D01*
X5047640Y-2397404D01*
X5038293Y-2407361D01*
X5030317Y-2418384D01*
X5023713Y-2430322D01*
X5018735Y-2442972D01*
X5015331Y-2456180D01*
X5013604Y-2469692D01*
X5013604Y-2483307D01*
X5015331Y-2496820D01*
X5018735Y-2510028D01*
X5023713Y-2522677D01*
X5030317Y-2534615D01*
X5038293Y-2545638D01*
X5047640Y-2555595D01*
X5058156Y-2564282D01*
X5069636Y-2571546D01*
X5081981Y-2577388D01*
X5094935Y-2581605D01*
X5108295Y-2584145D01*
G37*
G36*
X5122214Y-3855008D02*
G01*
X5215585Y-3855008D01*
X5229504Y-3854145D01*
X5242864Y-3851605D01*
X5255818Y-3847388D01*
X5268163Y-3841546D01*
X5279644Y-3834282D01*
X5290159Y-3825595D01*
X5299506Y-3815638D01*
X5307482Y-3804615D01*
X5314086Y-3792677D01*
X5319064Y-3780028D01*
X5322468Y-3766820D01*
X5324195Y-3753307D01*
X5324195Y-3739692D01*
X5322468Y-3726179D01*
X5319064Y-3712972D01*
X5314086Y-3700322D01*
X5307482Y-3688384D01*
X5299506Y-3677361D01*
X5290159Y-3667404D01*
X5279644Y-3658717D01*
X5268163Y-3651453D01*
X5255818Y-3645611D01*
X5242864Y-3641394D01*
X5229504Y-3638854D01*
X5215585Y-3637991D01*
X5122214Y-3637991D01*
X5108295Y-3638854D01*
X5094935Y-3641394D01*
X5081981Y-3645611D01*
X5069636Y-3651453D01*
X5058156Y-3658717D01*
X5047640Y-3667404D01*
X5038293Y-3677361D01*
X5030317Y-3688384D01*
X5023713Y-3700322D01*
X5018735Y-3712972D01*
X5015331Y-3726179D01*
X5013604Y-3739692D01*
X5013604Y-3753307D01*
X5015331Y-3766820D01*
X5018735Y-3780028D01*
X5023713Y-3792677D01*
X5030317Y-3804615D01*
X5038293Y-3815638D01*
X5047640Y-3825595D01*
X5058156Y-3834282D01*
X5069636Y-3841546D01*
X5081981Y-3847388D01*
X5094935Y-3851605D01*
X5108295Y-3854145D01*
G37*
G36*
X7662214Y-3855008D02*
G01*
X7755585Y-3855008D01*
X7769504Y-3854145D01*
X7782864Y-3851605D01*
X7795818Y-3847388D01*
X7808163Y-3841546D01*
X7819644Y-3834282D01*
X7830159Y-3825595D01*
X7839506Y-3815638D01*
X7847482Y-3804615D01*
X7854086Y-3792677D01*
X7859064Y-3780028D01*
X7862468Y-3766820D01*
X7864195Y-3753307D01*
X7864195Y-3739692D01*
X7862468Y-3726179D01*
X7859064Y-3712972D01*
X7854086Y-3700322D01*
X7847482Y-3688384D01*
X7839506Y-3677361D01*
X7830159Y-3667404D01*
X7819644Y-3658717D01*
X7808163Y-3651453D01*
X7795818Y-3645611D01*
X7782864Y-3641394D01*
X7769504Y-3638854D01*
X7755585Y-3637991D01*
X7662214Y-3637991D01*
X7648295Y-3638854D01*
X7634935Y-3641394D01*
X7621981Y-3645611D01*
X7609636Y-3651453D01*
X7598156Y-3658717D01*
X7587640Y-3667404D01*
X7578293Y-3677361D01*
X7570317Y-3688384D01*
X7563713Y-3700322D01*
X7558735Y-3712972D01*
X7555331Y-3726179D01*
X7553604Y-3739692D01*
X7553604Y-3753307D01*
X7555331Y-3766820D01*
X7558735Y-3780028D01*
X7563713Y-3792677D01*
X7570317Y-3804615D01*
X7578293Y-3815638D01*
X7587640Y-3825595D01*
X7598156Y-3834282D01*
X7609636Y-3841546D01*
X7621981Y-3847388D01*
X7634935Y-3851605D01*
X7648295Y-3854145D01*
G37*
G36*
X8018068Y-3714902D02*
G01*
X8187131Y-3714902D01*
X8193582Y-3714292D01*
X8199323Y-3712514D01*
X8204555Y-3709720D01*
X8209178Y-3705961D01*
X8212988Y-3701338D01*
X8215782Y-3696055D01*
X8217509Y-3690365D01*
X8218170Y-3683914D01*
X8218170Y-3564128D01*
X8217509Y-3557727D01*
X8215782Y-3551986D01*
X8212988Y-3546703D01*
X8209178Y-3542131D01*
X8204555Y-3538321D01*
X8199323Y-3535527D01*
X8193582Y-3533749D01*
X8187131Y-3533140D01*
X8176768Y-3533140D01*
X8172805Y-3532327D01*
X8169452Y-3530041D01*
X8167268Y-3526637D01*
X8166608Y-3522624D01*
X8173466Y-3321507D01*
X8174329Y-3317748D01*
X8176564Y-3314547D01*
X8179816Y-3312464D01*
X8183625Y-3311702D01*
X8344916Y-3311702D01*
X8348319Y-3312312D01*
X8351316Y-3313988D01*
X8353602Y-3316630D01*
X8355431Y-3319627D01*
X8364423Y-3331108D01*
X8374684Y-3341370D01*
X8386165Y-3350361D01*
X8398611Y-3357879D01*
X8411870Y-3363874D01*
X8426348Y-3368395D01*
X8428583Y-3369614D01*
X8432749Y-3369462D01*
X8440064Y-3370834D01*
X8454898Y-3371697D01*
X8524290Y-3371697D01*
X8539124Y-3370834D01*
X8546439Y-3369462D01*
X8550605Y-3369614D01*
X8552840Y-3368395D01*
X8567318Y-3363874D01*
X8580577Y-3357879D01*
X8593023Y-3350361D01*
X8604504Y-3341370D01*
X8614765Y-3331108D01*
X8623757Y-3319627D01*
X8631275Y-3307181D01*
X8637270Y-3293922D01*
X8641588Y-3280054D01*
X8644229Y-3265728D01*
X8645093Y-3251200D01*
X8644229Y-3236671D01*
X8641588Y-3222345D01*
X8637270Y-3208477D01*
X8631275Y-3195218D01*
X8623757Y-3182772D01*
X8614765Y-3171291D01*
X8604504Y-3161030D01*
X8593023Y-3152038D01*
X8580577Y-3144520D01*
X8567318Y-3138525D01*
X8553450Y-3134207D01*
X8539124Y-3131566D01*
X8524290Y-3130702D01*
X8454898Y-3130702D01*
X8440064Y-3131566D01*
X8425738Y-3134207D01*
X8411870Y-3138525D01*
X8398611Y-3144520D01*
X8386165Y-3152038D01*
X8374684Y-3161030D01*
X8364423Y-3171291D01*
X8355431Y-3182772D01*
X8353602Y-3185769D01*
X8351316Y-3188411D01*
X8348319Y-3190087D01*
X8344916Y-3190697D01*
X8112556Y-3190748D01*
X8102600Y-3192018D01*
X8093049Y-3194913D01*
X8086344Y-3198063D01*
X8078012Y-3203549D01*
X8075980Y-3205226D01*
X8070646Y-3210356D01*
X8068970Y-3212287D01*
X8064550Y-3218230D01*
X8063179Y-3220466D01*
X8059826Y-3227070D01*
X8058861Y-3229457D01*
X8056625Y-3236518D01*
X8056016Y-3239058D01*
X8055000Y-3246374D01*
X8045500Y-3523335D01*
X8044637Y-3527094D01*
X8042402Y-3530295D01*
X8039150Y-3532378D01*
X8035340Y-3533140D01*
X8018068Y-3533140D01*
X8011617Y-3533749D01*
X8005876Y-3535527D01*
X8000644Y-3538321D01*
X7996021Y-3542131D01*
X7992211Y-3546703D01*
X7989417Y-3551986D01*
X7987690Y-3557727D01*
X7987030Y-3564128D01*
X7987030Y-3683914D01*
X7987690Y-3690365D01*
X7989417Y-3696055D01*
X7992211Y-3701338D01*
X7996021Y-3705961D01*
X8000644Y-3709720D01*
X8005876Y-3712514D01*
X8011617Y-3714292D01*
G37*
G36*
X7662214Y-2585008D02*
G01*
X7755585Y-2585008D01*
X7769504Y-2584145D01*
X7782864Y-2581605D01*
X7795818Y-2577388D01*
X7808163Y-2571546D01*
X7819644Y-2564282D01*
X7830159Y-2555595D01*
X7839506Y-2545638D01*
X7847482Y-2534615D01*
X7854086Y-2522677D01*
X7859064Y-2510028D01*
X7862468Y-2496820D01*
X7864195Y-2483307D01*
X7864195Y-2469692D01*
X7862468Y-2456180D01*
X7859064Y-2442972D01*
X7854086Y-2430322D01*
X7847482Y-2418384D01*
X7839506Y-2407361D01*
X7830159Y-2397404D01*
X7819644Y-2388717D01*
X7808163Y-2381453D01*
X7795818Y-2375611D01*
X7782864Y-2371394D01*
X7769504Y-2368854D01*
X7755585Y-2367991D01*
X7662214Y-2367991D01*
X7648295Y-2368854D01*
X7634935Y-2371394D01*
X7621981Y-2375611D01*
X7609636Y-2381453D01*
X7598156Y-2388717D01*
X7587640Y-2397404D01*
X7578293Y-2407361D01*
X7570317Y-2418384D01*
X7563713Y-2430322D01*
X7558735Y-2442972D01*
X7555331Y-2456180D01*
X7553604Y-2469692D01*
X7553604Y-2483307D01*
X7555331Y-2496820D01*
X7558735Y-2510028D01*
X7563713Y-2522677D01*
X7570317Y-2534615D01*
X7578293Y-2545638D01*
X7587640Y-2555595D01*
X7598156Y-2564282D01*
X7609636Y-2571546D01*
X7621981Y-2577388D01*
X7634935Y-2581605D01*
X7648295Y-2584145D01*
G37*
G36*
X3139592Y-2757170D02*
G01*
X3200857Y-2757170D01*
X3200857Y-2689809D01*
X3170580Y-2689809D01*
X3164179Y-2690418D01*
X3158439Y-2692146D01*
X3153156Y-2694990D01*
X3148584Y-2698750D01*
X3144774Y-2703372D01*
X3141980Y-2708656D01*
X3140202Y-2714345D01*
X3139592Y-2720797D01*
G37*
G36*
X3287826Y-2757170D02*
G01*
X3349091Y-2757170D01*
X3349091Y-2720797D01*
X3348482Y-2714345D01*
X3346754Y-2708656D01*
X3343910Y-2703372D01*
X3340150Y-2698750D01*
X3335528Y-2694990D01*
X3330244Y-2692146D01*
X3324555Y-2690418D01*
X3318103Y-2689809D01*
X3287826Y-2689809D01*
G37*
G36*
X5122214Y-2839008D02*
G01*
X5215585Y-2839008D01*
X5229504Y-2838145D01*
X5242864Y-2835605D01*
X5255818Y-2831388D01*
X5268163Y-2825546D01*
X5279644Y-2818282D01*
X5290159Y-2809595D01*
X5299506Y-2799638D01*
X5307482Y-2788615D01*
X5314086Y-2776677D01*
X5319064Y-2764028D01*
X5322468Y-2750820D01*
X5324195Y-2737307D01*
X5324195Y-2723692D01*
X5322468Y-2710180D01*
X5319064Y-2696972D01*
X5314086Y-2684322D01*
X5307482Y-2672384D01*
X5299506Y-2661361D01*
X5290159Y-2651404D01*
X5279644Y-2642717D01*
X5268163Y-2635453D01*
X5255818Y-2629611D01*
X5242864Y-2625394D01*
X5229504Y-2622854D01*
X5215585Y-2621991D01*
X5122214Y-2621991D01*
X5108295Y-2622854D01*
X5094935Y-2625394D01*
X5081981Y-2629611D01*
X5069636Y-2635453D01*
X5058156Y-2642717D01*
X5047640Y-2651404D01*
X5038293Y-2661361D01*
X5035092Y-2665780D01*
X5032806Y-2668066D01*
X5030012Y-2669489D01*
X5026863Y-2669997D01*
X4855260Y-2669997D01*
X4851400Y-2669235D01*
X4848098Y-2667000D01*
X3651758Y-1470660D01*
X3649522Y-1467358D01*
X3648760Y-1463497D01*
X3648760Y-1320850D01*
X3649522Y-1316990D01*
X3651758Y-1313688D01*
X3655060Y-1311503D01*
X3658920Y-1310690D01*
X3662019Y-1310690D01*
X3668420Y-1310081D01*
X3674160Y-1308354D01*
X3679444Y-1305509D01*
X3684015Y-1301750D01*
X3687826Y-1297127D01*
X3690620Y-1291844D01*
X3692398Y-1286154D01*
X3693007Y-1279702D01*
X3693007Y-1107897D01*
X3692398Y-1101445D01*
X3690620Y-1095756D01*
X3687826Y-1090472D01*
X3684015Y-1085850D01*
X3679444Y-1082090D01*
X3674160Y-1079246D01*
X3668420Y-1077518D01*
X3662019Y-1076909D01*
X3658920Y-1076909D01*
X3655060Y-1076096D01*
X3651758Y-1073912D01*
X3649522Y-1070610D01*
X3648760Y-1066749D01*
X3648760Y-913384D01*
X3648252Y-905408D01*
X3647948Y-903325D01*
X3645560Y-893622D01*
X3642512Y-886307D01*
X3637381Y-877773D01*
X3630828Y-870051D01*
X3607257Y-846480D01*
X3605022Y-843178D01*
X3604260Y-839317D01*
X3604260Y-753668D01*
X3603650Y-747217D01*
X3601872Y-741476D01*
X3599078Y-736244D01*
X3595268Y-731621D01*
X3590696Y-727811D01*
X3585413Y-725017D01*
X3579672Y-723290D01*
X3573272Y-722630D01*
X3453485Y-722630D01*
X3447034Y-723290D01*
X3441344Y-725017D01*
X3436061Y-727811D01*
X3431438Y-731621D01*
X3427679Y-736244D01*
X3424885Y-741476D01*
X3423107Y-747217D01*
X3422497Y-753668D01*
X3422497Y-922731D01*
X3423107Y-929182D01*
X3424885Y-934923D01*
X3427679Y-940155D01*
X3431438Y-944778D01*
X3436061Y-948588D01*
X3441344Y-951382D01*
X3447034Y-953109D01*
X3453485Y-953769D01*
X3517595Y-953769D01*
X3521456Y-954532D01*
X3524758Y-956716D01*
X3526993Y-960018D01*
X3527755Y-963930D01*
X3527755Y-1066749D01*
X3526993Y-1070610D01*
X3524758Y-1073912D01*
X3521456Y-1076096D01*
X3517595Y-1076909D01*
X3514496Y-1076909D01*
X3508044Y-1077518D01*
X3502355Y-1079246D01*
X3497072Y-1082090D01*
X3492449Y-1085850D01*
X3488690Y-1090472D01*
X3485845Y-1095756D01*
X3484118Y-1101445D01*
X3483508Y-1107897D01*
X3483508Y-1279702D01*
X3484118Y-1286154D01*
X3485845Y-1291844D01*
X3488690Y-1297127D01*
X3492449Y-1301750D01*
X3497072Y-1305509D01*
X3502355Y-1308354D01*
X3508044Y-1310081D01*
X3514496Y-1310690D01*
X3517595Y-1310690D01*
X3521456Y-1311503D01*
X3524758Y-1313688D01*
X3526993Y-1316990D01*
X3527755Y-1320850D01*
X3527755Y-1492453D01*
X3528263Y-1500428D01*
X3528568Y-1502511D01*
X3530955Y-1512214D01*
X3534003Y-1519529D01*
X3539134Y-1528064D01*
X3545687Y-1535785D01*
X4782972Y-2773070D01*
X4790694Y-2779623D01*
X4799228Y-2784754D01*
X4806543Y-2787802D01*
X4816246Y-2790190D01*
X4818329Y-2790494D01*
X4826304Y-2791002D01*
X5026863Y-2791002D01*
X5030012Y-2791510D01*
X5032806Y-2792933D01*
X5035092Y-2795219D01*
X5038293Y-2799638D01*
X5047640Y-2809595D01*
X5058156Y-2818282D01*
X5069636Y-2825546D01*
X5081981Y-2831388D01*
X5094935Y-2835605D01*
X5108295Y-2838145D01*
G37*
G36*
X8420760Y-3620617D02*
G01*
X8420760Y-3556558D01*
X8345830Y-3556558D01*
X8347913Y-3561181D01*
X8355431Y-3573627D01*
X8364423Y-3585108D01*
X8374684Y-3595370D01*
X8386165Y-3604361D01*
X8398611Y-3611879D01*
X8411870Y-3617874D01*
G37*
G36*
X8558428Y-3620617D02*
G01*
X8567318Y-3617874D01*
X8580577Y-3611879D01*
X8593023Y-3604361D01*
X8604504Y-3595370D01*
X8614765Y-3585108D01*
X8623757Y-3573627D01*
X8631275Y-3561181D01*
X8633358Y-3556558D01*
X8558428Y-3556558D01*
G37*
G36*
X1693824Y-3615436D02*
G01*
X1702714Y-3612642D01*
X1715973Y-3606698D01*
X1728419Y-3599129D01*
X1739900Y-3590188D01*
X1750161Y-3579876D01*
X1759153Y-3568446D01*
X1766671Y-3556000D01*
X1768754Y-3551326D01*
X1693824Y-3551326D01*
G37*
G36*
X1556156Y-3615436D02*
G01*
X1556156Y-3551326D01*
X1481226Y-3551326D01*
X1483309Y-3556000D01*
X1490827Y-3568446D01*
X1499819Y-3579876D01*
X1510080Y-3590188D01*
X1521561Y-3599129D01*
X1534007Y-3606698D01*
X1547266Y-3612642D01*
G37*
G36*
X3656126Y-3609390D02*
G01*
X3686403Y-3609390D01*
X3692855Y-3608781D01*
X3698544Y-3607054D01*
X3703828Y-3604209D01*
X3708450Y-3600450D01*
X3712210Y-3595827D01*
X3715054Y-3590544D01*
X3716782Y-3584854D01*
X3717391Y-3578402D01*
X3717391Y-3542029D01*
X3656126Y-3542029D01*
G37*
G36*
X3538880Y-3609390D02*
G01*
X3569157Y-3609390D01*
X3569157Y-3542029D01*
X3507892Y-3542029D01*
X3507892Y-3578402D01*
X3508501Y-3584854D01*
X3510279Y-3590544D01*
X3513074Y-3595827D01*
X3516884Y-3600450D01*
X3521456Y-3604209D01*
X3526739Y-3607054D01*
X3532479Y-3608781D01*
G37*
G36*
X3857396Y-3609390D02*
G01*
X4004919Y-3609390D01*
X4011320Y-3608781D01*
X4017060Y-3607054D01*
X4022344Y-3604209D01*
X4026915Y-3600450D01*
X4030726Y-3595827D01*
X4033520Y-3590544D01*
X4035298Y-3584854D01*
X4035907Y-3578402D01*
X4035907Y-3563162D01*
X4036669Y-3559301D01*
X4038904Y-3556000D01*
X4042156Y-3553764D01*
X4046067Y-3553002D01*
X5026863Y-3553002D01*
X5030012Y-3553510D01*
X5032806Y-3554933D01*
X5035092Y-3557219D01*
X5038293Y-3561638D01*
X5047640Y-3571595D01*
X5058156Y-3580282D01*
X5069636Y-3587546D01*
X5081981Y-3593388D01*
X5094935Y-3597605D01*
X5108295Y-3600145D01*
X5122214Y-3601008D01*
X5215585Y-3601008D01*
X5229504Y-3600145D01*
X5242864Y-3597605D01*
X5255818Y-3593388D01*
X5268163Y-3587546D01*
X5279644Y-3580282D01*
X5290159Y-3571595D01*
X5299506Y-3561638D01*
X5307482Y-3550615D01*
X5314086Y-3538677D01*
X5319064Y-3526028D01*
X5322468Y-3512820D01*
X5324195Y-3499307D01*
X5324195Y-3485692D01*
X5322468Y-3472179D01*
X5319064Y-3458972D01*
X5314086Y-3446322D01*
X5307482Y-3434384D01*
X5299506Y-3423361D01*
X5290159Y-3413404D01*
X5279644Y-3404717D01*
X5268163Y-3397453D01*
X5255818Y-3391611D01*
X5242864Y-3387394D01*
X5229504Y-3384854D01*
X5215585Y-3383991D01*
X5122214Y-3383991D01*
X5108295Y-3384854D01*
X5094935Y-3387394D01*
X5081981Y-3391611D01*
X5069636Y-3397453D01*
X5058156Y-3404717D01*
X5047640Y-3413404D01*
X5038293Y-3423361D01*
X5035092Y-3427780D01*
X5032806Y-3430066D01*
X5030012Y-3431489D01*
X5026863Y-3431997D01*
X4046067Y-3431997D01*
X4042156Y-3431235D01*
X4038904Y-3429000D01*
X4036669Y-3425698D01*
X4035907Y-3421837D01*
X4035907Y-3406597D01*
X4035298Y-3400145D01*
X4033520Y-3394456D01*
X4030726Y-3389172D01*
X4026915Y-3384550D01*
X4022344Y-3380790D01*
X4017060Y-3377946D01*
X4011320Y-3376218D01*
X4004919Y-3375609D01*
X4000855Y-3375609D01*
X3997502Y-3374999D01*
X3994556Y-3373374D01*
X3992270Y-3370834D01*
X3990949Y-3367684D01*
X3988460Y-3357422D01*
X3985412Y-3350107D01*
X3980281Y-3341573D01*
X3973728Y-3333851D01*
X3899357Y-3259480D01*
X3897122Y-3256178D01*
X3896360Y-3252317D01*
X3896360Y-3166668D01*
X3895750Y-3160217D01*
X3893972Y-3154476D01*
X3891178Y-3149244D01*
X3887368Y-3144621D01*
X3882796Y-3140811D01*
X3877513Y-3138017D01*
X3871772Y-3136290D01*
X3865372Y-3135630D01*
X3745585Y-3135630D01*
X3739134Y-3136290D01*
X3733444Y-3138017D01*
X3728161Y-3140811D01*
X3723538Y-3144621D01*
X3719779Y-3149244D01*
X3716985Y-3154476D01*
X3715207Y-3160217D01*
X3714597Y-3166668D01*
X3714597Y-3335731D01*
X3715207Y-3342182D01*
X3716985Y-3347923D01*
X3719779Y-3353155D01*
X3723538Y-3357778D01*
X3728161Y-3361588D01*
X3733444Y-3364382D01*
X3739134Y-3366109D01*
X3745585Y-3366770D01*
X3828643Y-3366770D01*
X3832402Y-3367481D01*
X3835654Y-3369513D01*
X3837889Y-3372662D01*
X3838803Y-3376371D01*
X3838295Y-3380130D01*
X3836415Y-3383483D01*
X3831539Y-3389223D01*
X3828745Y-3394456D01*
X3827018Y-3400145D01*
X3826408Y-3406597D01*
X3826408Y-3578402D01*
X3827018Y-3584854D01*
X3828745Y-3590544D01*
X3831590Y-3595827D01*
X3835349Y-3600450D01*
X3839972Y-3604209D01*
X3845255Y-3607054D01*
X3850944Y-3608781D01*
G37*
G36*
X7662214Y-2839008D02*
G01*
X7755585Y-2839008D01*
X7769504Y-2838145D01*
X7782864Y-2835605D01*
X7795818Y-2831388D01*
X7808163Y-2825546D01*
X7819644Y-2818282D01*
X7830159Y-2809595D01*
X7839506Y-2799638D01*
X7847482Y-2788615D01*
X7854086Y-2776677D01*
X7859064Y-2764028D01*
X7862468Y-2750820D01*
X7864195Y-2737307D01*
X7864195Y-2723692D01*
X7862468Y-2710180D01*
X7859064Y-2696972D01*
X7854086Y-2684322D01*
X7847482Y-2672384D01*
X7839506Y-2661361D01*
X7830159Y-2651404D01*
X7819644Y-2642717D01*
X7808163Y-2635453D01*
X7795818Y-2629611D01*
X7782864Y-2625394D01*
X7769504Y-2622854D01*
X7755585Y-2621991D01*
X7662214Y-2621991D01*
X7648295Y-2622854D01*
X7634935Y-2625394D01*
X7621981Y-2629611D01*
X7609636Y-2635453D01*
X7598156Y-2642717D01*
X7587640Y-2651404D01*
X7578293Y-2661361D01*
X7570317Y-2672384D01*
X7563713Y-2684322D01*
X7558735Y-2696972D01*
X7555331Y-2710180D01*
X7553604Y-2723692D01*
X7553604Y-2737307D01*
X7555331Y-2750820D01*
X7558735Y-2764028D01*
X7563713Y-2776677D01*
X7570317Y-2788615D01*
X7578293Y-2799638D01*
X7587640Y-2809595D01*
X7598156Y-2818282D01*
X7609636Y-2825546D01*
X7621981Y-2831388D01*
X7634935Y-2835605D01*
X7648295Y-2838145D01*
G37*
G36*
X3287826Y-2923590D02*
G01*
X3318103Y-2923590D01*
X3324555Y-2922981D01*
X3330244Y-2921254D01*
X3335528Y-2918409D01*
X3340150Y-2914650D01*
X3343910Y-2910027D01*
X3346754Y-2904744D01*
X3348482Y-2899054D01*
X3349091Y-2892602D01*
X3349091Y-2856230D01*
X3287826Y-2856230D01*
G37*
G36*
X8345830Y-3453841D02*
G01*
X8420760Y-3453841D01*
X8420760Y-3389782D01*
X8411870Y-3392525D01*
X8398611Y-3398520D01*
X8386165Y-3406038D01*
X8374684Y-3415029D01*
X8364423Y-3425291D01*
X8355431Y-3436772D01*
X8347913Y-3449218D01*
G37*
G36*
X8558428Y-3453841D02*
G01*
X8633358Y-3453841D01*
X8631275Y-3449218D01*
X8623757Y-3436772D01*
X8614765Y-3425291D01*
X8604504Y-3415029D01*
X8593023Y-3406038D01*
X8580577Y-3398520D01*
X8567318Y-3392525D01*
X8558428Y-3389782D01*
G37*
G36*
X1481226Y-3448659D02*
G01*
X1556156Y-3448659D01*
X1556156Y-3384550D01*
X1547266Y-3387344D01*
X1534007Y-3393287D01*
X1521561Y-3400856D01*
X1510080Y-3409797D01*
X1499819Y-3420110D01*
X1490827Y-3431540D01*
X1483309Y-3443986D01*
G37*
G36*
X1693824Y-3448659D02*
G01*
X1768754Y-3448659D01*
X1766671Y-3443986D01*
X1759153Y-3431540D01*
X1750161Y-3420110D01*
X1739900Y-3409797D01*
X1728419Y-3400856D01*
X1715973Y-3393287D01*
X1702714Y-3387344D01*
X1693824Y-3384550D01*
G37*
G36*
X3656126Y-3442970D02*
G01*
X3717391Y-3442970D01*
X3717391Y-3406597D01*
X3716782Y-3400145D01*
X3715054Y-3394456D01*
X3712210Y-3389172D01*
X3708450Y-3384550D01*
X3703828Y-3380790D01*
X3698544Y-3377946D01*
X3692855Y-3376218D01*
X3686403Y-3375609D01*
X3656126Y-3375609D01*
G37*
G36*
X3507892Y-3442970D02*
G01*
X3569157Y-3442970D01*
X3569157Y-3375761D01*
X3570071Y-3371545D01*
X3572611Y-3368090D01*
X3576370Y-3366008D01*
X3581755Y-3364382D01*
X3587038Y-3361588D01*
X3591661Y-3357778D01*
X3595420Y-3353155D01*
X3598214Y-3347923D01*
X3599992Y-3342182D01*
X3600602Y-3335731D01*
X3600602Y-3166668D01*
X3599992Y-3160217D01*
X3598214Y-3154476D01*
X3595420Y-3149244D01*
X3591661Y-3144621D01*
X3587038Y-3140811D01*
X3581755Y-3138017D01*
X3576065Y-3136290D01*
X3569614Y-3135630D01*
X3449828Y-3135630D01*
X3443427Y-3136290D01*
X3437686Y-3138017D01*
X3432403Y-3140811D01*
X3427831Y-3144621D01*
X3424021Y-3149244D01*
X3421227Y-3154476D01*
X3419449Y-3160217D01*
X3418840Y-3166668D01*
X3418840Y-3180537D01*
X3418078Y-3184398D01*
X3415842Y-3187700D01*
X3412591Y-3189935D01*
X3408679Y-3190697D01*
X1772818Y-3190697D01*
X1769414Y-3190087D01*
X1766417Y-3188411D01*
X1764131Y-3185769D01*
X1759153Y-3177540D01*
X1750161Y-3166110D01*
X1739900Y-3155797D01*
X1728419Y-3146856D01*
X1715973Y-3139287D01*
X1702714Y-3133344D01*
X1688846Y-3129026D01*
X1674520Y-3126384D01*
X1659686Y-3125470D01*
X1590294Y-3125470D01*
X1575460Y-3126384D01*
X1561134Y-3129026D01*
X1547266Y-3133344D01*
X1534007Y-3139287D01*
X1521561Y-3146856D01*
X1510080Y-3155797D01*
X1499819Y-3166110D01*
X1490827Y-3177540D01*
X1483309Y-3189986D01*
X1477314Y-3203244D01*
X1472996Y-3217164D01*
X1470355Y-3231489D01*
X1469491Y-3246018D01*
X1470355Y-3260496D01*
X1472996Y-3274822D01*
X1477314Y-3288741D01*
X1483309Y-3302000D01*
X1490827Y-3314446D01*
X1499819Y-3325876D01*
X1510080Y-3336188D01*
X1521561Y-3345129D01*
X1534007Y-3352698D01*
X1547266Y-3358642D01*
X1561744Y-3363163D01*
X1563979Y-3364433D01*
X1568145Y-3364280D01*
X1575460Y-3365601D01*
X1590294Y-3366515D01*
X1659686Y-3366515D01*
X1674520Y-3365601D01*
X1681835Y-3364280D01*
X1686001Y-3364433D01*
X1688236Y-3363163D01*
X1702714Y-3358642D01*
X1715973Y-3352698D01*
X1728419Y-3345129D01*
X1739900Y-3336188D01*
X1750161Y-3325876D01*
X1758238Y-3315614D01*
X1760474Y-3313531D01*
X1763217Y-3312160D01*
X1766214Y-3311702D01*
X3408679Y-3311702D01*
X3412591Y-3312464D01*
X3415842Y-3314700D01*
X3418078Y-3318001D01*
X3418840Y-3321862D01*
X3418840Y-3335731D01*
X3419449Y-3342182D01*
X3421227Y-3347923D01*
X3424021Y-3353155D01*
X3427831Y-3357778D01*
X3432403Y-3361588D01*
X3437686Y-3364382D01*
X3443427Y-3366109D01*
X3449828Y-3366770D01*
X3510178Y-3366770D01*
X3513937Y-3367481D01*
X3517137Y-3369513D01*
X3519373Y-3372662D01*
X3520287Y-3376371D01*
X3519779Y-3380130D01*
X3517900Y-3383483D01*
X3513023Y-3389223D01*
X3510279Y-3394456D01*
X3508501Y-3400145D01*
X3507892Y-3406597D01*
G37*
G36*
X3170580Y-2923590D02*
G01*
X3200857Y-2923590D01*
X3200857Y-2856230D01*
X3139592Y-2856230D01*
X3139592Y-2892602D01*
X3140202Y-2899054D01*
X3141980Y-2904744D01*
X3144774Y-2910027D01*
X3148584Y-2914650D01*
X3153156Y-2918409D01*
X3158439Y-2921254D01*
X3164179Y-2922981D01*
G37*
G36*
X5237734Y-2939135D02*
G01*
X5314391Y-2939135D01*
X5307482Y-2926384D01*
X5299506Y-2915361D01*
X5290159Y-2905404D01*
X5279644Y-2896717D01*
X5268163Y-2889453D01*
X5255818Y-2883611D01*
X5242864Y-2879394D01*
X5237734Y-2878429D01*
G37*
G36*
X5023408Y-2939135D02*
G01*
X5100066Y-2939135D01*
X5100066Y-2878429D01*
X5094935Y-2879394D01*
X5081981Y-2883611D01*
X5069636Y-2889453D01*
X5058156Y-2896717D01*
X5047640Y-2905404D01*
X5038293Y-2915361D01*
X5030317Y-2926384D01*
G37*
G36*
X5237734Y-3090570D02*
G01*
X5242864Y-3089605D01*
X5255818Y-3085388D01*
X5268163Y-3079546D01*
X5279644Y-3072282D01*
X5290159Y-3063595D01*
X5299506Y-3053638D01*
X5307482Y-3042615D01*
X5314391Y-3029864D01*
X5237734Y-3029864D01*
G37*
G36*
X5100066Y-3090570D02*
G01*
X5100066Y-3029864D01*
X5023408Y-3029864D01*
X5030317Y-3042615D01*
X5038293Y-3053638D01*
X5047640Y-3063595D01*
X5058156Y-3072282D01*
X5069636Y-3079546D01*
X5081981Y-3085388D01*
X5094935Y-3089605D01*
G37*
G36*
X7662214Y-3093008D02*
G01*
X7755585Y-3093008D01*
X7769504Y-3092145D01*
X7782864Y-3089605D01*
X7795818Y-3085388D01*
X7808163Y-3079546D01*
X7819644Y-3072282D01*
X7830159Y-3063595D01*
X7839506Y-3053638D01*
X7847482Y-3042615D01*
X7854086Y-3030677D01*
X7859064Y-3018028D01*
X7862468Y-3004820D01*
X7864195Y-2991307D01*
X7864195Y-2977692D01*
X7862468Y-2964180D01*
X7859064Y-2950972D01*
X7854086Y-2938322D01*
X7847482Y-2926384D01*
X7839506Y-2915361D01*
X7830159Y-2905404D01*
X7819644Y-2896717D01*
X7808163Y-2889453D01*
X7795818Y-2883611D01*
X7782864Y-2879394D01*
X7769504Y-2876854D01*
X7755585Y-2875991D01*
X7662214Y-2875991D01*
X7648295Y-2876854D01*
X7634935Y-2879394D01*
X7621981Y-2883611D01*
X7609636Y-2889453D01*
X7598156Y-2896717D01*
X7587640Y-2905404D01*
X7578293Y-2915361D01*
X7570317Y-2926384D01*
X7563713Y-2938322D01*
X7558735Y-2950972D01*
X7555331Y-2964180D01*
X7553604Y-2977692D01*
X7553604Y-2991307D01*
X7555331Y-3004820D01*
X7558735Y-3018028D01*
X7563713Y-3030677D01*
X7570317Y-3042615D01*
X7578293Y-3053638D01*
X7587640Y-3063595D01*
X7598156Y-3072282D01*
X7609636Y-3079546D01*
X7621981Y-3085388D01*
X7634935Y-3089605D01*
X7648295Y-3092145D01*
G37*
G36*
X2365248Y-3135528D02*
G01*
X2384755Y-3135528D01*
X2404160Y-3134563D01*
X2423160Y-3131718D01*
X2441752Y-3127095D01*
X2459837Y-3120593D01*
X2477160Y-3112414D01*
X2493619Y-3102559D01*
X2509012Y-3091129D01*
X2523236Y-3078226D01*
X2536139Y-3064002D01*
X2547569Y-3048609D01*
X2557424Y-3032150D01*
X2565603Y-3014827D01*
X2572054Y-2996742D01*
X2576728Y-2978150D01*
X2579573Y-2959150D01*
X2580487Y-2939999D01*
X2579573Y-2920847D01*
X2576728Y-2901848D01*
X2572054Y-2883255D01*
X2565603Y-2865170D01*
X2557424Y-2847848D01*
X2547569Y-2831388D01*
X2536139Y-2815996D01*
X2523236Y-2801772D01*
X2509012Y-2788869D01*
X2493619Y-2777439D01*
X2477160Y-2767584D01*
X2459837Y-2759405D01*
X2441752Y-2752902D01*
X2423160Y-2748280D01*
X2404160Y-2745435D01*
X2384755Y-2744470D01*
X2365248Y-2744470D01*
X2345842Y-2745435D01*
X2326843Y-2748280D01*
X2308250Y-2752902D01*
X2290165Y-2759405D01*
X2272842Y-2767584D01*
X2256383Y-2777439D01*
X2240991Y-2788869D01*
X2226767Y-2801772D01*
X2213864Y-2815996D01*
X2202434Y-2831388D01*
X2192578Y-2847848D01*
X2184400Y-2865170D01*
X2177948Y-2883255D01*
X2173274Y-2901848D01*
X2170430Y-2920847D01*
X2169515Y-2939999D01*
X2170430Y-2959150D01*
X2173274Y-2978150D01*
X2177948Y-2996742D01*
X2184400Y-3014827D01*
X2192578Y-3032150D01*
X2202434Y-3048609D01*
X2213864Y-3064002D01*
X2226767Y-3078226D01*
X2240991Y-3091129D01*
X2256383Y-3102559D01*
X2272842Y-3112414D01*
X2290165Y-3120593D01*
X2308250Y-3127095D01*
X2326843Y-3131718D01*
X2345842Y-3134563D01*
G37*
G36*
X7662214Y-3347008D02*
G01*
X7755585Y-3347008D01*
X7769504Y-3346145D01*
X7782864Y-3343605D01*
X7795818Y-3339388D01*
X7808163Y-3333546D01*
X7819644Y-3326282D01*
X7830159Y-3317595D01*
X7839506Y-3307638D01*
X7847482Y-3296615D01*
X7854086Y-3284677D01*
X7859064Y-3272028D01*
X7862468Y-3258820D01*
X7864195Y-3245307D01*
X7864195Y-3231692D01*
X7862468Y-3218180D01*
X7859064Y-3204972D01*
X7854086Y-3192322D01*
X7847482Y-3180384D01*
X7839506Y-3169361D01*
X7830159Y-3159404D01*
X7819644Y-3150717D01*
X7808163Y-3143453D01*
X7795818Y-3137611D01*
X7782864Y-3133394D01*
X7769504Y-3130854D01*
X7755585Y-3129991D01*
X7662214Y-3129991D01*
X7648295Y-3130854D01*
X7634935Y-3133394D01*
X7621981Y-3137611D01*
X7609636Y-3143453D01*
X7598156Y-3150717D01*
X7587640Y-3159404D01*
X7578293Y-3169361D01*
X7570317Y-3180384D01*
X7563713Y-3192322D01*
X7558735Y-3204972D01*
X7555331Y-3218180D01*
X7553604Y-3231692D01*
X7553604Y-3245307D01*
X7555331Y-3258820D01*
X7558735Y-3272028D01*
X7563713Y-3284677D01*
X7570317Y-3296615D01*
X7578293Y-3307638D01*
X7587640Y-3317595D01*
X7598156Y-3326282D01*
X7609636Y-3333546D01*
X7621981Y-3339388D01*
X7634935Y-3343605D01*
X7648295Y-3346145D01*
G37*
G36*
X5122214Y-3347008D02*
G01*
X5215585Y-3347008D01*
X5229504Y-3346145D01*
X5242864Y-3343605D01*
X5255818Y-3339388D01*
X5268163Y-3333546D01*
X5279644Y-3326282D01*
X5290159Y-3317595D01*
X5299506Y-3307638D01*
X5307482Y-3296615D01*
X5314086Y-3284677D01*
X5319064Y-3272028D01*
X5322468Y-3258820D01*
X5324195Y-3245307D01*
X5324195Y-3231692D01*
X5322468Y-3218180D01*
X5319064Y-3204972D01*
X5314086Y-3192322D01*
X5307482Y-3180384D01*
X5299506Y-3169361D01*
X5290159Y-3159404D01*
X5279644Y-3150717D01*
X5268163Y-3143453D01*
X5255818Y-3137611D01*
X5242864Y-3133394D01*
X5229504Y-3130854D01*
X5215585Y-3129991D01*
X5122214Y-3129991D01*
X5108295Y-3130854D01*
X5094935Y-3133394D01*
X5081981Y-3137611D01*
X5069636Y-3143453D01*
X5058156Y-3150717D01*
X5047640Y-3159404D01*
X5038293Y-3169361D01*
X5035092Y-3173780D01*
X5032806Y-3176066D01*
X5030012Y-3177489D01*
X5026863Y-3177997D01*
X4461560Y-3177997D01*
X4457700Y-3177235D01*
X4454398Y-3175000D01*
X4043527Y-2764129D01*
X4035806Y-2757576D01*
X4027271Y-2752445D01*
X4019956Y-2749397D01*
X4010253Y-2747010D01*
X4008170Y-2746705D01*
X4000195Y-2746197D01*
X3677767Y-2746197D01*
X3673856Y-2745435D01*
X3670604Y-2743200D01*
X3668369Y-2739898D01*
X3667607Y-2736037D01*
X3667607Y-2720797D01*
X3666998Y-2714345D01*
X3665220Y-2708656D01*
X3662426Y-2703372D01*
X3658615Y-2698750D01*
X3654044Y-2694990D01*
X3648760Y-2692146D01*
X3643020Y-2690418D01*
X3636619Y-2689809D01*
X3632504Y-2689809D01*
X3628644Y-2688996D01*
X3625342Y-2686812D01*
X3623106Y-2683510D01*
X3622344Y-2679649D01*
X3622344Y-2525268D01*
X3621836Y-2517292D01*
X3621532Y-2515209D01*
X3619144Y-2505506D01*
X3616096Y-2498191D01*
X3610965Y-2489657D01*
X3604412Y-2481935D01*
X3581857Y-2459380D01*
X3579622Y-2456078D01*
X3578860Y-2452217D01*
X3578860Y-2366568D01*
X3578250Y-2360117D01*
X3576472Y-2354376D01*
X3573678Y-2349144D01*
X3569868Y-2344521D01*
X3565296Y-2340711D01*
X3560013Y-2337917D01*
X3554272Y-2336190D01*
X3547872Y-2335530D01*
X3428085Y-2335530D01*
X3421634Y-2336190D01*
X3415944Y-2337917D01*
X3410661Y-2340711D01*
X3406038Y-2344521D01*
X3402279Y-2349144D01*
X3399485Y-2354376D01*
X3397707Y-2360117D01*
X3397097Y-2366568D01*
X3397097Y-2535631D01*
X3397707Y-2542082D01*
X3399485Y-2547823D01*
X3402279Y-2553055D01*
X3406038Y-2557678D01*
X3410661Y-2561488D01*
X3415944Y-2564282D01*
X3421634Y-2566009D01*
X3428085Y-2566670D01*
X3491179Y-2566670D01*
X3495040Y-2567432D01*
X3498342Y-2569616D01*
X3500577Y-2572918D01*
X3501339Y-2576830D01*
X3501339Y-2679649D01*
X3500577Y-2683510D01*
X3498342Y-2686812D01*
X3495040Y-2688996D01*
X3491179Y-2689809D01*
X3489096Y-2689809D01*
X3482644Y-2690418D01*
X3476955Y-2692146D01*
X3471672Y-2694990D01*
X3467049Y-2698750D01*
X3463290Y-2703372D01*
X3460445Y-2708656D01*
X3458718Y-2714345D01*
X3458108Y-2720797D01*
X3458108Y-2892602D01*
X3458718Y-2899054D01*
X3460445Y-2904744D01*
X3463290Y-2910027D01*
X3467049Y-2914650D01*
X3471672Y-2918409D01*
X3476955Y-2921254D01*
X3482644Y-2922981D01*
X3489096Y-2923590D01*
X3636619Y-2923590D01*
X3643020Y-2922981D01*
X3648760Y-2921254D01*
X3654044Y-2918409D01*
X3658615Y-2914650D01*
X3662426Y-2910027D01*
X3665220Y-2904744D01*
X3666998Y-2899054D01*
X3667607Y-2892602D01*
X3667607Y-2877362D01*
X3668369Y-2873502D01*
X3670604Y-2870200D01*
X3673856Y-2867964D01*
X3677767Y-2867202D01*
X3971239Y-2867202D01*
X3975100Y-2867964D01*
X3978401Y-2870200D01*
X4389272Y-3281070D01*
X4396994Y-3287623D01*
X4405528Y-3292754D01*
X4412843Y-3295802D01*
X4422546Y-3298190D01*
X4424629Y-3298494D01*
X4432604Y-3299002D01*
X5026863Y-3299002D01*
X5030012Y-3299510D01*
X5032806Y-3300933D01*
X5035092Y-3303219D01*
X5038293Y-3307638D01*
X5047640Y-3317595D01*
X5058156Y-3326282D01*
X5069636Y-3333546D01*
X5081981Y-3339388D01*
X5094935Y-3343605D01*
X5108295Y-3346145D01*
G37*
G36*
X9229852Y-3140710D02*
G01*
X9249359Y-3140710D01*
X9268764Y-3139744D01*
X9287764Y-3136950D01*
X9306356Y-3132277D01*
X9324441Y-3125825D01*
X9341764Y-3117596D01*
X9358223Y-3107740D01*
X9373616Y-3096310D01*
X9387840Y-3083458D01*
X9400743Y-3069234D01*
X9412173Y-3053842D01*
X9422028Y-3037382D01*
X9430207Y-3020009D01*
X9436658Y-3001975D01*
X9441332Y-2983331D01*
X9444177Y-2964383D01*
X9445091Y-2945231D01*
X9444177Y-2926029D01*
X9441332Y-2907080D01*
X9436658Y-2888437D01*
X9430207Y-2870403D01*
X9422028Y-2853029D01*
X9412173Y-2836570D01*
X9400743Y-2821178D01*
X9387840Y-2806954D01*
X9373616Y-2794101D01*
X9358223Y-2782671D01*
X9341764Y-2772816D01*
X9324441Y-2764586D01*
X9306356Y-2758135D01*
X9287764Y-2753461D01*
X9268764Y-2750667D01*
X9249359Y-2749702D01*
X9229852Y-2749702D01*
X9210446Y-2750667D01*
X9191447Y-2753461D01*
X9172854Y-2758135D01*
X9154769Y-2764586D01*
X9137446Y-2772816D01*
X9120987Y-2782671D01*
X9105595Y-2794101D01*
X9091371Y-2806954D01*
X9078468Y-2821178D01*
X9067038Y-2836570D01*
X9057182Y-2853029D01*
X9049004Y-2870403D01*
X9042552Y-2888437D01*
X9037878Y-2907080D01*
X9035034Y-2926029D01*
X9034119Y-2945231D01*
X9035034Y-2964383D01*
X9037878Y-2983331D01*
X9042552Y-3001975D01*
X9049004Y-3020009D01*
X9057182Y-3037382D01*
X9067038Y-3053842D01*
X9078468Y-3069234D01*
X9091371Y-3083458D01*
X9105595Y-3096310D01*
X9120987Y-3107740D01*
X9137446Y-3117596D01*
X9154769Y-3125825D01*
X9172854Y-3132277D01*
X9191447Y-3136950D01*
X9210446Y-3139744D01*
G37*
G36*
X7662214Y-4109008D02*
G01*
X7755585Y-4109008D01*
X7769504Y-4108145D01*
X7782864Y-4105605D01*
X7795818Y-4101388D01*
X7808163Y-4095546D01*
X7819644Y-4088282D01*
X7830159Y-4079595D01*
X7839506Y-4069638D01*
X7847482Y-4058615D01*
X7854086Y-4046677D01*
X7859064Y-4034028D01*
X7862468Y-4020820D01*
X7864195Y-4007307D01*
X7864195Y-3993692D01*
X7862468Y-3980179D01*
X7859064Y-3966972D01*
X7854086Y-3954322D01*
X7847482Y-3942384D01*
X7839506Y-3931361D01*
X7830159Y-3921404D01*
X7819644Y-3912717D01*
X7808163Y-3905453D01*
X7795818Y-3899611D01*
X7782864Y-3895394D01*
X7769504Y-3892854D01*
X7755585Y-3891991D01*
X7662214Y-3891991D01*
X7648295Y-3892854D01*
X7634935Y-3895394D01*
X7621981Y-3899611D01*
X7609636Y-3905453D01*
X7598156Y-3912717D01*
X7587640Y-3921404D01*
X7578293Y-3931361D01*
X7570317Y-3942384D01*
X7563713Y-3954322D01*
X7558735Y-3966972D01*
X7555331Y-3980179D01*
X7553604Y-3993692D01*
X7553604Y-4007307D01*
X7555331Y-4020820D01*
X7558735Y-4034028D01*
X7563713Y-4046677D01*
X7570317Y-4058615D01*
X7578293Y-4069638D01*
X7587640Y-4079595D01*
X7598156Y-4088282D01*
X7609636Y-4095546D01*
X7621981Y-4101388D01*
X7634935Y-4105605D01*
X7648295Y-4108145D01*
G37*

%LPD*%
D10*
X1625345Y-3251200D02*
G01*
X3509721Y-3251200D01*
X3805478Y-3251200D02*
G01*
X3931158Y-3376879D01*
X3931158Y-3492500D01*
X7708900Y-4254500D02*
G01*
X7715758Y-4247642D01*
X8115300Y-4247642D01*
X8102600Y-3919778D02*
G01*
X8115300Y-3932478D01*
X8115300Y-4247642D01*
X8102600Y-3624021D02*
G01*
X8115300Y-3251200D01*
X8489695Y-3251200D01*
X8496300Y-4745278D02*
G01*
X8496300Y-4991100D01*
X8458200Y-5029200D01*
X8445500Y-5016500D01*
X7708900Y-5016500D01*
X8768841Y-4775200D02*
G01*
X8738920Y-4745278D01*
X8496300Y-4745278D01*
X8496300Y-4449521D02*
G01*
X8489695Y-3759200D01*
X3588258Y-1193800D02*
G01*
X3588258Y-1492757D01*
X4826000Y-2730500D01*
X5168900Y-2730500D01*
X3513378Y-838200D02*
G01*
X3588258Y-913079D01*
X3588258Y-1193800D01*
X1625600Y-850900D02*
G01*
X3217621Y-838200D01*
X3487978Y-2451100D02*
G01*
X3561841Y-2524963D01*
X3561841Y-2794000D01*
X5168900Y-3238500D02*
G01*
X4432300Y-3238500D01*
X4000500Y-2806700D01*
X3562858Y-2806700D01*
X3192221Y-2451100D02*
G01*
X2520695Y-2451100D01*
X1629663Y-1354073D01*
X5168900Y-4000500D02*
G01*
X3956558Y-4000500D01*
X3945178Y-4318000D02*
G01*
X3956558Y-4306620D01*
X3956558Y-4000500D01*
X1625092Y-3753865D02*
G01*
X1761236Y-4131563D01*
X1960372Y-4330700D01*
X3649421Y-4318000D01*
X5168900Y-3492500D02*
G01*
X3931158Y-3492500D01*
X4356100Y-4997957D02*
G01*
X4686300Y-4997957D01*
X4686300Y-4445000D01*
X4876800Y-4254500D01*
X5168900Y-4254500D01*
X4084878Y-5003800D02*
G01*
X4090720Y-4997957D01*
X4356100Y-4997957D01*
X3789121Y-5003800D02*
G01*
X1765300Y-5029200D01*
X1625092Y-5169407D01*
X1625092Y-5645912D01*
X5168900Y-5270500D02*
G01*
X4686300Y-5270500D01*
X4457700Y-5499100D01*
X4457700Y-5720842D01*
X4122978Y-5740400D02*
G01*
X4142536Y-5720842D01*
X4457700Y-5720842D01*
X1624990Y-6153988D02*
G01*
X3677920Y-6158397D01*
X3677920Y-6158397D02*
G01*
X3810000Y-5943600D01*
X3827221Y-5740400D01*
X9002013Y-1625092D02*
G01*
X9002013Y-1968500D01*
X7708900Y-1968500D01*
X7708900Y-3492500D02*
G01*
X6604000Y-3492500D01*
X6604000Y-4191000D01*
X5803900Y-4991100D01*
X5803900Y-6362700D01*
X4152900Y-101600D02*
G01*
X647700Y-101600D01*
X457200Y-292100D01*
X457200Y-1066800D01*
X5168900Y-1968500D02*
G01*
X5613400Y-1968500D01*
X5613400Y-1358900D01*
X4419600Y-165100D01*
X4152900Y-101600D01*
X7708900Y-6032500D02*
G01*
X7708900Y-6680200D01*
X7708900Y-2222500D02*
G01*
X9461500Y-2438400D01*
X9918700Y-2895600D01*
X9918700Y-5374894D01*
X9502140Y-5374894D01*
X5168900Y-1714500D02*
G01*
X4533900Y-1714500D01*
X4546600Y-1092200D01*
X3721100Y-266700D01*
X4826000Y-6769100D02*
G01*
X4978400Y-6921500D01*
X6278879Y-6921500D01*
X6520179Y-6680200D01*
X7708900Y-6680200D02*
G01*
X6426200Y-6680200D01*
X6400800Y-6578600D01*
X6350000Y-6362700D01*
X6311900Y-6362700D01*
X5803900Y-6362700D02*
G01*
X5803900Y-6705600D01*
X965200Y-1066800D02*
G01*
X965200Y-6184900D01*
X1549400Y-6769100D01*
X4826000Y-6769100D01*
X3746500Y-266700D02*
G01*
X850900Y-266700D01*
X698500Y-419100D01*
X698500Y-1054100D01*
X711200Y-1066800D01*
X8026400Y-6794500D02*
G01*
X7856565Y-6794500D01*
X7708900Y-6646834D01*
D11*
G01*
X4457700Y-5720849D03*
D12*
G01*
X4457700Y-6039357D03*
D11*
G01*
X4356100Y-4679449D03*
D12*
G01*
X4356100Y-4997957D03*
D13*
G01*
X3827223Y-5740400D03*
G01*
X4122976Y-5740400D03*
G01*
X3789123Y-5003800D03*
G01*
X4084876Y-5003800D03*
D14*
G01*
X3612649Y-3492500D03*
G01*
X3931150Y-3492500D03*
D15*
G01*
X3956550Y-4000500D03*
G01*
X3638049Y-4000500D03*
D14*
G01*
X3269749Y-1193800D03*
G01*
X3588250Y-1193800D03*
D15*
G01*
X3562850Y-2806700D03*
G01*
X3244349Y-2806700D03*
D13*
G01*
X3509723Y-3251200D03*
G01*
X3805476Y-3251200D03*
G01*
X3649423Y-4318000D03*
G01*
X3945176Y-4318000D03*
G01*
X3217623Y-838200D03*
G01*
X3513376Y-838200D03*
G01*
X3192223Y-2451100D03*
G01*
X3487976Y-2451100D03*
D14*
G01*
X8768849Y-4775200D03*
G01*
X9087350Y-4775200D03*
D11*
G01*
X8115300Y-4566150D03*
D12*
G01*
X8115300Y-4247642D03*
D16*
G01*
X8496300Y-4449523D03*
D17*
G01*
X8496300Y-4745278D03*
D16*
G01*
X8102600Y-3624023D03*
D17*
G01*
X8102600Y-3919778D03*
D18*
G01*
X8026400Y-6794500D03*
G01*
X8280400Y-6794500D03*
D19*
G01*
X8489594Y-3759200D03*
G01*
X8489594Y-3505200D03*
G01*
X8489594Y-3251200D03*
D20*
G01*
X9239605Y-4065193D03*
G01*
X9239605Y-2945206D03*
D19*
G01*
X1624990Y-6153988D03*
G01*
X1624990Y-5899988D03*
G01*
X1624990Y-5645988D03*
D20*
G01*
X2375001Y-6459981D03*
G01*
X2375001Y-5339994D03*
D19*
G01*
X1624990Y-3753993D03*
G01*
X1624990Y-3499993D03*
G01*
X1624990Y-3245993D03*
D20*
G01*
X2375001Y-4059986D03*
G01*
X2375001Y-2939999D03*
D19*
G01*
X1624990Y-1353997D03*
G01*
X1624990Y-1099997D03*
G01*
X1624990Y-845997D03*
D20*
G01*
X2375001Y-1659991D03*
G01*
X2375001Y-540004D03*
D21*
G01*
X5168900Y-6032500D03*
G01*
X5168900Y-5778500D03*
G01*
X5168900Y-5524500D03*
G01*
X5168900Y-5270500D03*
G01*
X5168900Y-5016500D03*
G01*
X5168900Y-4762500D03*
G01*
X5168900Y-4508500D03*
G01*
X5168900Y-4254500D03*
G01*
X5168900Y-4000500D03*
G01*
X5168900Y-3746500D03*
G01*
X5168900Y-3492500D03*
G01*
X5168900Y-3238500D03*
G01*
X5168900Y-2984500D03*
G01*
X5168900Y-2730500D03*
G01*
X5168900Y-2476500D03*
G01*
X5168900Y-2222500D03*
G01*
X5168900Y-1968500D03*
G01*
X5168900Y-1714500D03*
G01*
X5168900Y-1460500D03*
G01*
X7708900Y-5778500D03*
G01*
X7708900Y-5524500D03*
G01*
X7708900Y-5270500D03*
G01*
X7708900Y-5016500D03*
G01*
X7708900Y-4762500D03*
G01*
X7708900Y-4508500D03*
G01*
X7708900Y-4254500D03*
G01*
X7708900Y-4000500D03*
G01*
X7708900Y-3746500D03*
G01*
X7708900Y-3492500D03*
G01*
X7708900Y-3238500D03*
G01*
X7708900Y-2984500D03*
G01*
X7708900Y-2730500D03*
G01*
X7708900Y-2476500D03*
G01*
X7708900Y-2222500D03*
G01*
X7708900Y-1968500D03*
G01*
X7708900Y-6032500D03*
G01*
X7708900Y-1714500D03*
G01*
X7708900Y-1460500D03*
D22*
G01*
X457200Y-1066800D03*
G01*
X711200Y-1066800D03*
G01*
X965200Y-1066800D03*
D23*
G01*
X1219200Y-1066800D03*
D24*
G01*
X9502063Y-1624990D03*
G01*
X9502063Y-375005D03*
G01*
X9002064Y-375005D03*
G01*
X9002064Y-1624990D03*
G01*
X9002090Y-5374995D03*
G01*
X9002090Y-6624980D03*
G01*
X9502089Y-6624980D03*
G01*
X9502089Y-5374995D03*
D18*
G01*
X6096000Y-6680200D03*
G01*
X5842000Y-6680200D03*
D25*
G01*
X6565900Y-6362700D03*
D26*
G01*
X6311900Y-6362700D03*
G01*
X6057900Y-6362700D03*
G01*
X5803900Y-6362700D03*
M02*
