G04 Layer: TopPasteMaskLayer*
G04 EasyEDA v6.5.42, 2024-03-15 07:08:18*
G04 07cce05110d743cda764b2ea28b01f41,76978c21ee6b45f5ab94bb382069c2cd,10*
G04 Gerber Generator version 0.2*
G04 Scale: 100 percent, Rotated: No, Reflected: No *
G04 Dimensions in millimeters *
G04 leading zeros omitted , absolute positions ,4 integer and 5 decimal *
%FSLAX45Y45*%
%MOMM*%

%ADD10C,0.0001*%

%LPD*%
G36*
X4381296Y-5646623D02*
G01*
X4371289Y-5656580D01*
X4371289Y-5785104D01*
X4381296Y-5795111D01*
X4418330Y-5795111D01*
X4428337Y-5785104D01*
X4428337Y-5754624D01*
X4438345Y-5744616D01*
X4477054Y-5744616D01*
X4487062Y-5754624D01*
X4487062Y-5785104D01*
X4497070Y-5795111D01*
X4534103Y-5795111D01*
X4544110Y-5785104D01*
X4544110Y-5656580D01*
X4534103Y-5646623D01*
G37*
G36*
X4381296Y-5965088D02*
G01*
X4371289Y-5975096D01*
X4371289Y-6103620D01*
X4381296Y-6113576D01*
X4534103Y-6113576D01*
X4544110Y-6103620D01*
X4544110Y-5975096D01*
X4534103Y-5965088D01*
X4497070Y-5965088D01*
X4487062Y-5975096D01*
X4487062Y-6005576D01*
X4477054Y-6015583D01*
X4438345Y-6015583D01*
X4428337Y-6005576D01*
X4428337Y-5975096D01*
X4418330Y-5965088D01*
G37*
G36*
X4279696Y-4605223D02*
G01*
X4269689Y-4615180D01*
X4269689Y-4743704D01*
X4279696Y-4753711D01*
X4316730Y-4753711D01*
X4326737Y-4743704D01*
X4326737Y-4713224D01*
X4336745Y-4703216D01*
X4375454Y-4703216D01*
X4385462Y-4713224D01*
X4385462Y-4743704D01*
X4395470Y-4753711D01*
X4432503Y-4753711D01*
X4442510Y-4743704D01*
X4442510Y-4615180D01*
X4432503Y-4605223D01*
G37*
G36*
X4279696Y-4923688D02*
G01*
X4269689Y-4933696D01*
X4269689Y-5062220D01*
X4279696Y-5072176D01*
X4432503Y-5072176D01*
X4442510Y-5062220D01*
X4442510Y-4933696D01*
X4432503Y-4923688D01*
X4395470Y-4923688D01*
X4385462Y-4933696D01*
X4385462Y-4964176D01*
X4375454Y-4974183D01*
X4336745Y-4974183D01*
X4326737Y-4964176D01*
X4326737Y-4933696D01*
X4316730Y-4923688D01*
G37*
G36*
X3776827Y-5655360D02*
G01*
X3766870Y-5665368D01*
X3766870Y-5815431D01*
X3776827Y-5825439D01*
X3877614Y-5825439D01*
X3887622Y-5815431D01*
X3887622Y-5779312D01*
X3877614Y-5769305D01*
X3856532Y-5769305D01*
X3846525Y-5759297D01*
X3846525Y-5721502D01*
X3856532Y-5711494D01*
X3877614Y-5711494D01*
X3887622Y-5701487D01*
X3887622Y-5665368D01*
X3877614Y-5655360D01*
G37*
G36*
X4072585Y-5655360D02*
G01*
X4062577Y-5665368D01*
X4062577Y-5701487D01*
X4072585Y-5711494D01*
X4093667Y-5711494D01*
X4103674Y-5721502D01*
X4103674Y-5759297D01*
X4093667Y-5769305D01*
X4072585Y-5769305D01*
X4062577Y-5779312D01*
X4062577Y-5815431D01*
X4072585Y-5825439D01*
X4173372Y-5825439D01*
X4183329Y-5815431D01*
X4183329Y-5665368D01*
X4173372Y-5655360D01*
G37*
G36*
X3738727Y-4918760D02*
G01*
X3728770Y-4928768D01*
X3728770Y-5078831D01*
X3738727Y-5088839D01*
X3839514Y-5088839D01*
X3849522Y-5078831D01*
X3849522Y-5042712D01*
X3839514Y-5032705D01*
X3818432Y-5032705D01*
X3808425Y-5022697D01*
X3808425Y-4984902D01*
X3818432Y-4974894D01*
X3839514Y-4974894D01*
X3849522Y-4964887D01*
X3849522Y-4928768D01*
X3839514Y-4918760D01*
G37*
G36*
X4034485Y-4918760D02*
G01*
X4024477Y-4928768D01*
X4024477Y-4964887D01*
X4034485Y-4974894D01*
X4055567Y-4974894D01*
X4065574Y-4984902D01*
X4065574Y-5022697D01*
X4055567Y-5032705D01*
X4034485Y-5032705D01*
X4024477Y-5042712D01*
X4024477Y-5078831D01*
X4034485Y-5088839D01*
X4135272Y-5088839D01*
X4145229Y-5078831D01*
X4145229Y-4928768D01*
X4135272Y-4918760D01*
G37*
G36*
X3548379Y-3406089D02*
G01*
X3538423Y-3416096D01*
X3538423Y-3568903D01*
X3548379Y-3578910D01*
X3676904Y-3578910D01*
X3686911Y-3568903D01*
X3686911Y-3531870D01*
X3676904Y-3521862D01*
X3646424Y-3521862D01*
X3636416Y-3511854D01*
X3636416Y-3473145D01*
X3646424Y-3463137D01*
X3676904Y-3463137D01*
X3686911Y-3453129D01*
X3686911Y-3416096D01*
X3676904Y-3406089D01*
G37*
G36*
X3866896Y-3406089D02*
G01*
X3856888Y-3416096D01*
X3856888Y-3453129D01*
X3866896Y-3463137D01*
X3897376Y-3463137D01*
X3907383Y-3473145D01*
X3907383Y-3511854D01*
X3897376Y-3521862D01*
X3866896Y-3521862D01*
X3856888Y-3531870D01*
X3856888Y-3568903D01*
X3866896Y-3578910D01*
X3995420Y-3578910D01*
X4005376Y-3568903D01*
X4005376Y-3416096D01*
X3995420Y-3406089D01*
G37*
G36*
X3892296Y-3914089D02*
G01*
X3882288Y-3924096D01*
X3882288Y-3961129D01*
X3892296Y-3971137D01*
X3922776Y-3971137D01*
X3932783Y-3981145D01*
X3932783Y-4019854D01*
X3922776Y-4029862D01*
X3892296Y-4029862D01*
X3882288Y-4039870D01*
X3882288Y-4076903D01*
X3892296Y-4086910D01*
X4020820Y-4086910D01*
X4030776Y-4076903D01*
X4030776Y-3924096D01*
X4020820Y-3914089D01*
G37*
G36*
X3573779Y-3914089D02*
G01*
X3563823Y-3924096D01*
X3563823Y-4076903D01*
X3573779Y-4086910D01*
X3702304Y-4086910D01*
X3712311Y-4076903D01*
X3712311Y-4039870D01*
X3702304Y-4029862D01*
X3671824Y-4029862D01*
X3661816Y-4019854D01*
X3661816Y-3981145D01*
X3671824Y-3971137D01*
X3702304Y-3971137D01*
X3712311Y-3961129D01*
X3712311Y-3924096D01*
X3702304Y-3914089D01*
G37*
G36*
X3205480Y-1107389D02*
G01*
X3195523Y-1117396D01*
X3195523Y-1270203D01*
X3205480Y-1280210D01*
X3334004Y-1280210D01*
X3344011Y-1270203D01*
X3344011Y-1233170D01*
X3334004Y-1223162D01*
X3303524Y-1223162D01*
X3293516Y-1213154D01*
X3293516Y-1174445D01*
X3303524Y-1164437D01*
X3334004Y-1164437D01*
X3344011Y-1154430D01*
X3344011Y-1117396D01*
X3334004Y-1107389D01*
G37*
G36*
X3523996Y-1107389D02*
G01*
X3513988Y-1117396D01*
X3513988Y-1154430D01*
X3523996Y-1164437D01*
X3554476Y-1164437D01*
X3564483Y-1174445D01*
X3564483Y-1213154D01*
X3554476Y-1223162D01*
X3523996Y-1223162D01*
X3513988Y-1233170D01*
X3513988Y-1270203D01*
X3523996Y-1280210D01*
X3652520Y-1280210D01*
X3662476Y-1270203D01*
X3662476Y-1117396D01*
X3652520Y-1107389D01*
G37*
G36*
X3498596Y-2720289D02*
G01*
X3488588Y-2730296D01*
X3488588Y-2767330D01*
X3498596Y-2777337D01*
X3529076Y-2777337D01*
X3539083Y-2787345D01*
X3539083Y-2826054D01*
X3529076Y-2836062D01*
X3498596Y-2836062D01*
X3488588Y-2846070D01*
X3488588Y-2883103D01*
X3498596Y-2893110D01*
X3627120Y-2893110D01*
X3637076Y-2883103D01*
X3637076Y-2730296D01*
X3627120Y-2720289D01*
G37*
G36*
X3180080Y-2720289D02*
G01*
X3170123Y-2730296D01*
X3170123Y-2883103D01*
X3180080Y-2893110D01*
X3308604Y-2893110D01*
X3318611Y-2883103D01*
X3318611Y-2846070D01*
X3308604Y-2836062D01*
X3278124Y-2836062D01*
X3268116Y-2826054D01*
X3268116Y-2787345D01*
X3278124Y-2777337D01*
X3308604Y-2777337D01*
X3318611Y-2767330D01*
X3318611Y-2730296D01*
X3308604Y-2720289D01*
G37*
G36*
X3459327Y-3166160D02*
G01*
X3449370Y-3176168D01*
X3449370Y-3326231D01*
X3459327Y-3336239D01*
X3560114Y-3336239D01*
X3570122Y-3326231D01*
X3570122Y-3290112D01*
X3560114Y-3280105D01*
X3539032Y-3280105D01*
X3529025Y-3270097D01*
X3529025Y-3232302D01*
X3539032Y-3222294D01*
X3560114Y-3222294D01*
X3570122Y-3212287D01*
X3570122Y-3176168D01*
X3560114Y-3166160D01*
G37*
G36*
X3755085Y-3166160D02*
G01*
X3745077Y-3176168D01*
X3745077Y-3212287D01*
X3755085Y-3222294D01*
X3776167Y-3222294D01*
X3786174Y-3232302D01*
X3786174Y-3270097D01*
X3776167Y-3280105D01*
X3755085Y-3280105D01*
X3745077Y-3290112D01*
X3745077Y-3326231D01*
X3755085Y-3336239D01*
X3855872Y-3336239D01*
X3865829Y-3326231D01*
X3865829Y-3176168D01*
X3855872Y-3166160D01*
G37*
G36*
X3599027Y-4232960D02*
G01*
X3589070Y-4242968D01*
X3589070Y-4393031D01*
X3599027Y-4403039D01*
X3699814Y-4403039D01*
X3709822Y-4393031D01*
X3709822Y-4356912D01*
X3699814Y-4346905D01*
X3678732Y-4346905D01*
X3668725Y-4336897D01*
X3668725Y-4299102D01*
X3678732Y-4289094D01*
X3699814Y-4289094D01*
X3709822Y-4279087D01*
X3709822Y-4242968D01*
X3699814Y-4232960D01*
G37*
G36*
X3894785Y-4232960D02*
G01*
X3884777Y-4242968D01*
X3884777Y-4279087D01*
X3894785Y-4289094D01*
X3915867Y-4289094D01*
X3925874Y-4299102D01*
X3925874Y-4336897D01*
X3915867Y-4346905D01*
X3894785Y-4346905D01*
X3884777Y-4356912D01*
X3884777Y-4393031D01*
X3894785Y-4403039D01*
X3995572Y-4403039D01*
X4005529Y-4393031D01*
X4005529Y-4242968D01*
X3995572Y-4232960D01*
G37*
G36*
X3167227Y-753160D02*
G01*
X3157270Y-763168D01*
X3157270Y-913231D01*
X3167227Y-923239D01*
X3268014Y-923239D01*
X3278022Y-913231D01*
X3278022Y-877112D01*
X3268014Y-867105D01*
X3246932Y-867105D01*
X3236925Y-857097D01*
X3236925Y-819302D01*
X3246932Y-809294D01*
X3268014Y-809294D01*
X3278022Y-799287D01*
X3278022Y-763168D01*
X3268014Y-753160D01*
G37*
G36*
X3462985Y-753160D02*
G01*
X3452977Y-763168D01*
X3452977Y-799287D01*
X3462985Y-809294D01*
X3484067Y-809294D01*
X3494074Y-819302D01*
X3494074Y-857097D01*
X3484067Y-867105D01*
X3462985Y-867105D01*
X3452977Y-877112D01*
X3452977Y-913231D01*
X3462985Y-923239D01*
X3563772Y-923239D01*
X3573729Y-913231D01*
X3573729Y-763168D01*
X3563772Y-753160D01*
G37*
G36*
X3141827Y-2366060D02*
G01*
X3131870Y-2376068D01*
X3131870Y-2526131D01*
X3141827Y-2536139D01*
X3242614Y-2536139D01*
X3252622Y-2526131D01*
X3252622Y-2490012D01*
X3242614Y-2480005D01*
X3221532Y-2480005D01*
X3211525Y-2469997D01*
X3211525Y-2432202D01*
X3221532Y-2422194D01*
X3242614Y-2422194D01*
X3252622Y-2412187D01*
X3252622Y-2376068D01*
X3242614Y-2366060D01*
G37*
G36*
X3437585Y-2366060D02*
G01*
X3427577Y-2376068D01*
X3427577Y-2412187D01*
X3437585Y-2422194D01*
X3458667Y-2422194D01*
X3468674Y-2432202D01*
X3468674Y-2469997D01*
X3458667Y-2480005D01*
X3437585Y-2480005D01*
X3427577Y-2490012D01*
X3427577Y-2526131D01*
X3437585Y-2536139D01*
X3538372Y-2536139D01*
X3548329Y-2526131D01*
X3548329Y-2376068D01*
X3538372Y-2366060D01*
G37*
G36*
X8704580Y-4688789D02*
G01*
X8694623Y-4698796D01*
X8694623Y-4851603D01*
X8704580Y-4861610D01*
X8833104Y-4861610D01*
X8843111Y-4851603D01*
X8843111Y-4814570D01*
X8833104Y-4804562D01*
X8802624Y-4804562D01*
X8792616Y-4794554D01*
X8792616Y-4755845D01*
X8802624Y-4745837D01*
X8833104Y-4745837D01*
X8843111Y-4735830D01*
X8843111Y-4698796D01*
X8833104Y-4688789D01*
G37*
G36*
X9023096Y-4688789D02*
G01*
X9013088Y-4698796D01*
X9013088Y-4735830D01*
X9023096Y-4745837D01*
X9053576Y-4745837D01*
X9063583Y-4755845D01*
X9063583Y-4794554D01*
X9053576Y-4804562D01*
X9023096Y-4804562D01*
X9013088Y-4814570D01*
X9013088Y-4851603D01*
X9023096Y-4861610D01*
X9151620Y-4861610D01*
X9161576Y-4851603D01*
X9161576Y-4698796D01*
X9151620Y-4688789D01*
G37*
G36*
X8038896Y-4491888D02*
G01*
X8028889Y-4501896D01*
X8028889Y-4630420D01*
X8038896Y-4640376D01*
X8191703Y-4640376D01*
X8201710Y-4630420D01*
X8201710Y-4501896D01*
X8191703Y-4491888D01*
X8154670Y-4491888D01*
X8144662Y-4501896D01*
X8144662Y-4532376D01*
X8134654Y-4542383D01*
X8095945Y-4542383D01*
X8085937Y-4532376D01*
X8085937Y-4501896D01*
X8075930Y-4491888D01*
G37*
G36*
X8038896Y-4173423D02*
G01*
X8028889Y-4183379D01*
X8028889Y-4311904D01*
X8038896Y-4321911D01*
X8075930Y-4321911D01*
X8085937Y-4311904D01*
X8085937Y-4281424D01*
X8095945Y-4271416D01*
X8134654Y-4271416D01*
X8144662Y-4281424D01*
X8144662Y-4311904D01*
X8154670Y-4321911D01*
X8191703Y-4321911D01*
X8201710Y-4311904D01*
X8201710Y-4183379D01*
X8191703Y-4173423D01*
G37*
G36*
X8421268Y-4389170D02*
G01*
X8411260Y-4399127D01*
X8411260Y-4499914D01*
X8421268Y-4509922D01*
X8457387Y-4509922D01*
X8467394Y-4499914D01*
X8467394Y-4478832D01*
X8477402Y-4468825D01*
X8515197Y-4468825D01*
X8525205Y-4478832D01*
X8525205Y-4499914D01*
X8535212Y-4509922D01*
X8571331Y-4509922D01*
X8581339Y-4499914D01*
X8581339Y-4399127D01*
X8571331Y-4389170D01*
G37*
G36*
X8421268Y-4684877D02*
G01*
X8411260Y-4694885D01*
X8411260Y-4795672D01*
X8421268Y-4805629D01*
X8571331Y-4805629D01*
X8581339Y-4795672D01*
X8581339Y-4694885D01*
X8571331Y-4684877D01*
X8535212Y-4684877D01*
X8525205Y-4694885D01*
X8525205Y-4715967D01*
X8515197Y-4725974D01*
X8477402Y-4725974D01*
X8467394Y-4715967D01*
X8467394Y-4694885D01*
X8457387Y-4684877D01*
G37*
G36*
X8027568Y-3563670D02*
G01*
X8017560Y-3573627D01*
X8017560Y-3674414D01*
X8027568Y-3684422D01*
X8063687Y-3684422D01*
X8073694Y-3674414D01*
X8073694Y-3653332D01*
X8083702Y-3643325D01*
X8121497Y-3643325D01*
X8131505Y-3653332D01*
X8131505Y-3674414D01*
X8141512Y-3684422D01*
X8177631Y-3684422D01*
X8187639Y-3674414D01*
X8187639Y-3573627D01*
X8177631Y-3563670D01*
G37*
G36*
X8027568Y-3859377D02*
G01*
X8017560Y-3869385D01*
X8017560Y-3970172D01*
X8027568Y-3980129D01*
X8177631Y-3980129D01*
X8187639Y-3970172D01*
X8187639Y-3869385D01*
X8177631Y-3859377D01*
X8141512Y-3859377D01*
X8131505Y-3869385D01*
X8131505Y-3890467D01*
X8121497Y-3900474D01*
X8083702Y-3900474D01*
X8073694Y-3890467D01*
X8073694Y-3869385D01*
X8063687Y-3859377D01*
G37*
M02*
