G04 Layer: BottomSolderMaskLayer*
G04 EasyEDA v6.5.42, 2024-03-15 07:08:18*
G04 07cce05110d743cda764b2ea28b01f41,76978c21ee6b45f5ab94bb382069c2cd,10*
G04 Gerber Generator version 0.2*
G04 Scale: 100 percent, Rotated: No, Reflected: No *
G04 Dimensions in millimeters *
G04 leading zeros omitted , absolute positions ,4 integer and 5 decimal *
%FSLAX45Y45*%
%MOMM*%

%AMMACRO1*1,1,$1,$2,$3*1,1,$1,$4,$5*1,1,$1,0-$2,0-$3*1,1,$1,0-$4,0-$5*20,1,$1,$2,$3,$4,$5,0*20,1,$1,$4,$5,0-$2,0-$3,0*20,1,$1,0-$2,0-$3,0-$4,0-$5,0*20,1,$1,0-$4,0-$5,$2,$3,0*4,1,4,$2,$3,$4,$5,0-$2,0-$3,0-$4,0-$5,$2,$3,0*%
%ADD10O,1.8015966X2.601595*%
%ADD11O,2.601595X1.9015964*%
%ADD12O,3.6015930000000003X3.4015934000000003*%
%ADD13O,2.601595X1.6616680000000001*%
%ADD14C,1.6256*%
%ADD15R,1.6256X1.6256*%
%ADD16C,2.7000*%
%ADD17C,2.6016*%
%ADD18MACRO1,0.1016X0.7874X0.7874X-0.7874X0.7874*%
%ADD19C,1.6764*%

%LPD*%
D10*
G01*
X8026400Y-6794500D03*
G01*
X8280400Y-6794500D03*
D11*
G01*
X8489594Y-3759200D03*
G01*
X8489594Y-3505200D03*
G01*
X8489594Y-3251200D03*
D12*
G01*
X9239605Y-4065193D03*
G01*
X9239605Y-2945206D03*
D11*
G01*
X1624990Y-6153988D03*
G01*
X1624990Y-5899988D03*
G01*
X1624990Y-5645988D03*
D12*
G01*
X2375001Y-6459981D03*
G01*
X2375001Y-5339994D03*
D11*
G01*
X1624990Y-3753993D03*
G01*
X1624990Y-3499993D03*
G01*
X1624990Y-3245993D03*
D12*
G01*
X2375001Y-4059986D03*
G01*
X2375001Y-2939999D03*
D11*
G01*
X1624990Y-1353997D03*
G01*
X1624990Y-1099997D03*
G01*
X1624990Y-845997D03*
D12*
G01*
X2375001Y-1659991D03*
G01*
X2375001Y-540004D03*
D13*
G01*
X5168900Y-6032500D03*
G01*
X5168900Y-5778500D03*
G01*
X5168900Y-5524500D03*
G01*
X5168900Y-5270500D03*
G01*
X5168900Y-5016500D03*
G01*
X5168900Y-4762500D03*
G01*
X5168900Y-4508500D03*
G01*
X5168900Y-4254500D03*
G01*
X5168900Y-4000500D03*
G01*
X5168900Y-3746500D03*
G01*
X5168900Y-3492500D03*
G01*
X5168900Y-3238500D03*
G01*
X5168900Y-2984500D03*
G01*
X5168900Y-2730500D03*
G01*
X5168900Y-2476500D03*
G01*
X5168900Y-2222500D03*
G01*
X5168900Y-1968500D03*
G01*
X5168900Y-1714500D03*
G01*
X5168900Y-1460500D03*
G01*
X7708900Y-5778500D03*
G01*
X7708900Y-5524500D03*
G01*
X7708900Y-5270500D03*
G01*
X7708900Y-5016500D03*
G01*
X7708900Y-4762500D03*
G01*
X7708900Y-4508500D03*
G01*
X7708900Y-4254500D03*
G01*
X7708900Y-4000500D03*
G01*
X7708900Y-3746500D03*
G01*
X7708900Y-3492500D03*
G01*
X7708900Y-3238500D03*
G01*
X7708900Y-2984500D03*
G01*
X7708900Y-2730500D03*
G01*
X7708900Y-2476500D03*
G01*
X7708900Y-2222500D03*
G01*
X7708900Y-1968500D03*
G01*
X7708900Y-6032500D03*
G01*
X7708900Y-1714500D03*
G01*
X7708900Y-1460500D03*
D14*
G01*
X457200Y-1066800D03*
G01*
X711200Y-1066800D03*
G01*
X965200Y-1066800D03*
D15*
G01*
X1219200Y-1066800D03*
D16*
G01*
X9502063Y-1624990D03*
G01*
X9502063Y-375005D03*
G01*
X9002064Y-375005D03*
D17*
G01*
X9002064Y-1624990D03*
D16*
G01*
X9002090Y-5374995D03*
G01*
X9002090Y-6624980D03*
G01*
X9502089Y-6624980D03*
D17*
G01*
X9502089Y-5374995D03*
D10*
G01*
X6096000Y-6680200D03*
G01*
X5842000Y-6680200D03*
D18*
G01*
X6565900Y-6362700D03*
D19*
G01*
X6311900Y-6362700D03*
G01*
X6057900Y-6362700D03*
G01*
X5803900Y-6362700D03*
M02*
