G04 Layer: BottomSilkscreenLayer*
G04 EasyEDA v6.5.42, 2024-03-15 07:08:18*
G04 07cce05110d743cda764b2ea28b01f41,76978c21ee6b45f5ab94bb382069c2cd,10*
G04 Gerber Generator version 0.2*
G04 Scale: 100 percent, Rotated: No, Reflected: No *
G04 Dimensions in millimeters *
G04 leading zeros omitted , absolute positions ,4 integer and 5 decimal *
%FSLAX45Y45*%
%MOMM*%

%ADD10C,0.1524*%
%ADD11C,0.2032*%
%ADD12C,0.2540*%
%ADD13C,0.1270*%
%ADD14C,0.2030*%
%ADD15C,0.1999*%
%ADD16C,0.0143*%

%LPD*%
D10*
X10091544Y-3530498D02*
G01*
X9982441Y-3530498D01*
X10091544Y-3530498D02*
G01*
X10091544Y-3462957D01*
X10039591Y-3530498D02*
G01*
X10039591Y-3488933D01*
X9982441Y-3530498D02*
G01*
X9982441Y-3462957D01*
X10091544Y-3428667D02*
G01*
X9982441Y-3428667D01*
X10091544Y-3428667D02*
G01*
X9982441Y-3355931D01*
X10091544Y-3355931D02*
G01*
X9982441Y-3355931D01*
X10065567Y-3243709D02*
G01*
X10075959Y-3248903D01*
X10086350Y-3259294D01*
X10091544Y-3269686D01*
X10091544Y-3290468D01*
X10086350Y-3300859D01*
X10075959Y-3311250D01*
X10065567Y-3316444D01*
X10049979Y-3321641D01*
X10024003Y-3321641D01*
X10008417Y-3316444D01*
X9998026Y-3311250D01*
X9987635Y-3300859D01*
X9982441Y-3290468D01*
X9982441Y-3269686D01*
X9987635Y-3259294D01*
X9998026Y-3248903D01*
X10008417Y-3243709D01*
X10091544Y-3178246D02*
G01*
X10086350Y-3193834D01*
X10070762Y-3204222D01*
X10044785Y-3209419D01*
X10029200Y-3209419D01*
X10003221Y-3204222D01*
X9987635Y-3193834D01*
X9982441Y-3178246D01*
X9982441Y-3167854D01*
X9987635Y-3152269D01*
X10003221Y-3141878D01*
X10029200Y-3136684D01*
X10044785Y-3136684D01*
X10070762Y-3141878D01*
X10086350Y-3152269D01*
X10091544Y-3167854D01*
X10091544Y-3178246D01*
X9946071Y-3102394D02*
G01*
X9946071Y-3008873D01*
X10091544Y-2974583D02*
G01*
X9982441Y-2974583D01*
X10091544Y-2974583D02*
G01*
X9982441Y-2933021D01*
X10091544Y-2891457D02*
G01*
X9982441Y-2933021D01*
X10091544Y-2891457D02*
G01*
X9982441Y-2891457D01*
X10091544Y-2857167D02*
G01*
X9982441Y-2857167D01*
X10091544Y-2857167D02*
G01*
X10091544Y-2810408D01*
X10086350Y-2794822D01*
X10081153Y-2789626D01*
X10070762Y-2784431D01*
X10055176Y-2784431D01*
X10044785Y-2789626D01*
X10039591Y-2794822D01*
X10034394Y-2810408D01*
X10034394Y-2857167D01*
X10065567Y-2672209D02*
G01*
X10075959Y-2677403D01*
X10086350Y-2687794D01*
X10091544Y-2698186D01*
X10091544Y-2718968D01*
X10086350Y-2729359D01*
X10075959Y-2739750D01*
X10065567Y-2744944D01*
X10049979Y-2750141D01*
X10024003Y-2750141D01*
X10008417Y-2744944D01*
X9998026Y-2739750D01*
X9987635Y-2729359D01*
X9982441Y-2718968D01*
X9982441Y-2698186D01*
X9987635Y-2687794D01*
X9998026Y-2677403D01*
X10008417Y-2672209D01*
X10024003Y-2672209D01*
X10024003Y-2698186D02*
G01*
X10024003Y-2672209D01*
X3226940Y-5925286D02*
G01*
X3117837Y-5925286D01*
X3226940Y-5925286D02*
G01*
X3226940Y-5857745D01*
X3174987Y-5925286D02*
G01*
X3174987Y-5883722D01*
X3117837Y-5925286D02*
G01*
X3117837Y-5857745D01*
X3226940Y-5823455D02*
G01*
X3117837Y-5823455D01*
X3226940Y-5823455D02*
G01*
X3117837Y-5750720D01*
X3226940Y-5750720D02*
G01*
X3117837Y-5750720D01*
X3200963Y-5638497D02*
G01*
X3211355Y-5643692D01*
X3221746Y-5654083D01*
X3226940Y-5664474D01*
X3226940Y-5685256D01*
X3221746Y-5695647D01*
X3211355Y-5706038D01*
X3200963Y-5711233D01*
X3185375Y-5716430D01*
X3159399Y-5716430D01*
X3143813Y-5711233D01*
X3133422Y-5706038D01*
X3123031Y-5695647D01*
X3117837Y-5685256D01*
X3117837Y-5664474D01*
X3123031Y-5654083D01*
X3133422Y-5643692D01*
X3143813Y-5638497D01*
X3206158Y-5604207D02*
G01*
X3211355Y-5593816D01*
X3226940Y-5578231D01*
X3117837Y-5578231D01*
X3226940Y-3525291D02*
G01*
X3117837Y-3525291D01*
X3226940Y-3525291D02*
G01*
X3226940Y-3457750D01*
X3174987Y-3525291D02*
G01*
X3174987Y-3483726D01*
X3117837Y-3525291D02*
G01*
X3117837Y-3457750D01*
X3226940Y-3423460D02*
G01*
X3117837Y-3423460D01*
X3226940Y-3423460D02*
G01*
X3117837Y-3350724D01*
X3226940Y-3350724D02*
G01*
X3117837Y-3350724D01*
X3200963Y-3238502D02*
G01*
X3211355Y-3243696D01*
X3221746Y-3254087D01*
X3226940Y-3264479D01*
X3226940Y-3285261D01*
X3221746Y-3295652D01*
X3211355Y-3306043D01*
X3200963Y-3311237D01*
X3185375Y-3316434D01*
X3159399Y-3316434D01*
X3143813Y-3311237D01*
X3133422Y-3306043D01*
X3123031Y-3295652D01*
X3117837Y-3285261D01*
X3117837Y-3264479D01*
X3123031Y-3254087D01*
X3133422Y-3243696D01*
X3143813Y-3238502D01*
X3200963Y-3199015D02*
G01*
X3206158Y-3199015D01*
X3216549Y-3193821D01*
X3221746Y-3188627D01*
X3226940Y-3178235D01*
X3226940Y-3157453D01*
X3221746Y-3147062D01*
X3216549Y-3141865D01*
X3206158Y-3136671D01*
X3195767Y-3136671D01*
X3185375Y-3141865D01*
X3169790Y-3152256D01*
X3117837Y-3204212D01*
X3117837Y-3131477D01*
X3226940Y-1125296D02*
G01*
X3117837Y-1125296D01*
X3226940Y-1125296D02*
G01*
X3226940Y-1057755D01*
X3174987Y-1125296D02*
G01*
X3174987Y-1083731D01*
X3117837Y-1125296D02*
G01*
X3117837Y-1057755D01*
X3226940Y-1023465D02*
G01*
X3117837Y-1023465D01*
X3226940Y-1023465D02*
G01*
X3117837Y-950729D01*
X3226940Y-950729D02*
G01*
X3117837Y-950729D01*
X3200963Y-838507D02*
G01*
X3211355Y-843701D01*
X3221746Y-854092D01*
X3226940Y-864483D01*
X3226940Y-885266D01*
X3221746Y-895657D01*
X3211355Y-906048D01*
X3200963Y-911242D01*
X3185375Y-916439D01*
X3159399Y-916439D01*
X3143813Y-911242D01*
X3133422Y-906048D01*
X3123031Y-895657D01*
X3117837Y-885266D01*
X3117837Y-864483D01*
X3123031Y-854092D01*
X3133422Y-843701D01*
X3143813Y-838507D01*
X3226940Y-793826D02*
G01*
X3226940Y-736676D01*
X3185375Y-767849D01*
X3185375Y-752261D01*
X3180181Y-741870D01*
X3174987Y-736676D01*
X3159399Y-731481D01*
X3149008Y-731481D01*
X3133422Y-736676D01*
X3123031Y-747067D01*
X3117837Y-762652D01*
X3117837Y-778240D01*
X3123031Y-793826D01*
X3128225Y-799020D01*
X3138617Y-804217D01*
X6477000Y-565277D02*
G01*
X6477000Y-643254D01*
X6471920Y-658748D01*
X6461506Y-669162D01*
X6445758Y-674243D01*
X6435343Y-674243D01*
X6419850Y-669162D01*
X6409436Y-658748D01*
X6404356Y-643254D01*
X6404356Y-565277D01*
X6359652Y-565277D02*
G01*
X6302502Y-565277D01*
X6333490Y-606932D01*
X6317995Y-606932D01*
X6307581Y-612012D01*
X6302502Y-617093D01*
X6297168Y-632840D01*
X6297168Y-643254D01*
X6302502Y-658748D01*
X6312915Y-669162D01*
X6328409Y-674243D01*
X6343904Y-674243D01*
X6359652Y-669162D01*
X6364731Y-664082D01*
X6370065Y-653669D01*
X87884Y-2565400D02*
G01*
X165862Y-2565400D01*
X181355Y-2570479D01*
X191770Y-2580894D01*
X196850Y-2596642D01*
X196850Y-2607055D01*
X191770Y-2622550D01*
X181355Y-2632963D01*
X165862Y-2638044D01*
X87884Y-2638044D01*
X87884Y-2724404D02*
G01*
X160528Y-2672334D01*
X160528Y-2750312D01*
X87884Y-2724404D02*
G01*
X196850Y-2724404D01*
D11*
X1259263Y-1246802D02*
G01*
X1262311Y-1240452D01*
X1268661Y-1234102D01*
X1275011Y-1230800D01*
X1287965Y-1230800D01*
X1294315Y-1234102D01*
X1300665Y-1240452D01*
X1303713Y-1246802D01*
X1307015Y-1256200D01*
X1307015Y-1272202D01*
X1303713Y-1281600D01*
X1300665Y-1288204D01*
X1294315Y-1294554D01*
X1287965Y-1297602D01*
X1275011Y-1297602D01*
X1268661Y-1294554D01*
X1262311Y-1288204D01*
X1259263Y-1281600D01*
X1259263Y-1272202D01*
X1275011Y-1272202D02*
G01*
X1259263Y-1272202D01*
X1238181Y-1230800D02*
G01*
X1238181Y-1297602D01*
X1238181Y-1230800D02*
G01*
X1193731Y-1297602D01*
X1193731Y-1230800D02*
G01*
X1193731Y-1297602D01*
X1172649Y-1230800D02*
G01*
X1172649Y-1297602D01*
X1172649Y-1230800D02*
G01*
X1150297Y-1230800D01*
X1140899Y-1234102D01*
X1134549Y-1240452D01*
X1131247Y-1246802D01*
X1128199Y-1256200D01*
X1128199Y-1272202D01*
X1131247Y-1281600D01*
X1134549Y-1288204D01*
X1140899Y-1294554D01*
X1150297Y-1297602D01*
X1172649Y-1297602D01*
X1066413Y-1230797D02*
G01*
X1041013Y-1297599D01*
X1015613Y-1230797D02*
G01*
X1041013Y-1297599D01*
X946779Y-1246799D02*
G01*
X950081Y-1240449D01*
X956431Y-1234099D01*
X962781Y-1230797D01*
X975481Y-1230797D01*
X981831Y-1234099D01*
X988181Y-1240449D01*
X991483Y-1246799D01*
X994531Y-1256451D01*
X994531Y-1272199D01*
X991483Y-1281851D01*
X988181Y-1288201D01*
X981831Y-1294551D01*
X975481Y-1297599D01*
X962781Y-1297599D01*
X956431Y-1294551D01*
X950081Y-1288201D01*
X946779Y-1281851D01*
X878199Y-1246799D02*
G01*
X881247Y-1240449D01*
X887597Y-1234099D01*
X893947Y-1230797D01*
X906647Y-1230797D01*
X912997Y-1234099D01*
X919347Y-1240449D01*
X922649Y-1246799D01*
X925951Y-1256451D01*
X925951Y-1272199D01*
X922649Y-1281851D01*
X919347Y-1288201D01*
X912997Y-1294551D01*
X906647Y-1297599D01*
X893947Y-1297599D01*
X887597Y-1294551D01*
X881247Y-1288201D01*
X878199Y-1281851D01*
X495614Y-1240200D02*
G01*
X501964Y-1233850D01*
X511616Y-1230802D01*
X524316Y-1230802D01*
X533714Y-1233850D01*
X540318Y-1240200D01*
X540318Y-1246804D01*
X537016Y-1253154D01*
X533714Y-1256202D01*
X527364Y-1259504D01*
X508314Y-1265854D01*
X501964Y-1268902D01*
X498916Y-1272204D01*
X495614Y-1278554D01*
X495614Y-1287952D01*
X501964Y-1294302D01*
X511616Y-1297604D01*
X524316Y-1297604D01*
X533714Y-1294302D01*
X540318Y-1287952D01*
X474532Y-1230802D02*
G01*
X474532Y-1297604D01*
X474532Y-1230802D02*
G01*
X452434Y-1230802D01*
X442782Y-1233850D01*
X436432Y-1240200D01*
X433384Y-1246804D01*
X430082Y-1256202D01*
X430082Y-1272204D01*
X433384Y-1281602D01*
X436432Y-1287952D01*
X442782Y-1294302D01*
X452434Y-1297604D01*
X474532Y-1297604D01*
X383600Y-1230802D02*
G01*
X409000Y-1297604D01*
X383600Y-1230802D02*
G01*
X358200Y-1297604D01*
X399602Y-1275252D02*
G01*
X367852Y-1275252D01*
X736216Y-1240449D02*
G01*
X742566Y-1234099D01*
X751964Y-1230797D01*
X764664Y-1230797D01*
X774316Y-1234099D01*
X780666Y-1240449D01*
X780666Y-1246799D01*
X777364Y-1253149D01*
X774316Y-1256197D01*
X767966Y-1259499D01*
X748916Y-1265849D01*
X742566Y-1268897D01*
X739264Y-1272199D01*
X736216Y-1278549D01*
X736216Y-1287947D01*
X742566Y-1294551D01*
X751964Y-1297599D01*
X764664Y-1297599D01*
X774316Y-1294551D01*
X780666Y-1287947D01*
X667382Y-1246799D02*
G01*
X670684Y-1240449D01*
X677034Y-1234099D01*
X683384Y-1230797D01*
X696084Y-1230797D01*
X702434Y-1234099D01*
X708784Y-1240449D01*
X711832Y-1246799D01*
X715134Y-1256197D01*
X715134Y-1272199D01*
X711832Y-1281597D01*
X708784Y-1287947D01*
X702434Y-1294551D01*
X696084Y-1297599D01*
X683384Y-1297599D01*
X677034Y-1294551D01*
X670684Y-1287947D01*
X667382Y-1281597D01*
X646300Y-1230797D02*
G01*
X646300Y-1297599D01*
X646300Y-1297599D02*
G01*
X608200Y-1297599D01*
D10*
X10002393Y-999997D02*
G01*
X9893427Y-999997D01*
X10002393Y-999997D02*
G01*
X10002393Y-953262D01*
X9997313Y-937768D01*
X9991979Y-932434D01*
X9981565Y-927354D01*
X9971150Y-927354D01*
X9960736Y-932434D01*
X9955656Y-937768D01*
X9950577Y-953262D01*
X9950577Y-999997D02*
G01*
X9950577Y-953262D01*
X9945243Y-937768D01*
X9940163Y-932434D01*
X9929749Y-927354D01*
X9914000Y-927354D01*
X9903586Y-932434D01*
X9898506Y-937768D01*
X9893427Y-953262D01*
X9893427Y-999997D01*
X10002393Y-856487D02*
G01*
X9893427Y-856487D01*
X10002393Y-893063D02*
G01*
X10002393Y-820165D01*
X10002393Y-785876D02*
G01*
X9893427Y-785876D01*
X10002393Y-785876D02*
G01*
X9893427Y-713231D01*
X10002393Y-713231D02*
G01*
X9893427Y-713231D01*
X9981565Y-678942D02*
G01*
X9986899Y-668528D01*
X10002393Y-653034D01*
X9893427Y-653034D01*
X8501761Y-5999987D02*
G01*
X8610727Y-5999987D01*
X8501761Y-5999987D02*
G01*
X8501761Y-6046723D01*
X8506840Y-6062218D01*
X8512175Y-6067552D01*
X8522588Y-6072631D01*
X8533002Y-6072631D01*
X8543416Y-6067552D01*
X8548497Y-6062218D01*
X8553577Y-6046723D01*
X8553577Y-5999987D02*
G01*
X8553577Y-6046723D01*
X8558911Y-6062218D01*
X8563990Y-6067552D01*
X8574404Y-6072631D01*
X8590152Y-6072631D01*
X8600566Y-6067552D01*
X8605647Y-6062218D01*
X8610727Y-6046723D01*
X8610727Y-5999987D01*
X8501761Y-6143497D02*
G01*
X8610727Y-6143497D01*
X8501761Y-6106921D02*
G01*
X8501761Y-6179820D01*
X8501761Y-6214110D02*
G01*
X8610727Y-6214110D01*
X8501761Y-6214110D02*
G01*
X8610727Y-6286754D01*
X8501761Y-6286754D02*
G01*
X8610727Y-6286754D01*
X8527668Y-6326378D02*
G01*
X8522588Y-6326378D01*
X8512175Y-6331457D01*
X8506840Y-6336537D01*
X8501761Y-6346952D01*
X8501761Y-6367779D01*
X8506840Y-6378194D01*
X8512175Y-6383528D01*
X8522588Y-6388607D01*
X8533002Y-6388607D01*
X8543416Y-6383528D01*
X8558911Y-6373113D01*
X8610727Y-6321044D01*
X8610727Y-6393687D01*
X1306829Y-5675884D02*
G01*
X1306829Y-5758942D01*
X1312163Y-5774689D01*
X1317244Y-5779770D01*
X1327657Y-5784850D01*
X1338071Y-5784850D01*
X1348486Y-5779770D01*
X1353820Y-5774689D01*
X1358900Y-5758942D01*
X1358900Y-5748528D01*
X1272539Y-5696712D02*
G01*
X1262379Y-5691378D01*
X1246631Y-5675884D01*
X1246631Y-5784850D01*
X6158229Y-6094984D02*
G01*
X6158229Y-6178042D01*
X6163563Y-6193789D01*
X6168643Y-6198870D01*
X6179058Y-6203950D01*
X6189472Y-6203950D01*
X6199886Y-6198870D01*
X6205220Y-6193789D01*
X6210300Y-6178042D01*
X6210300Y-6167628D01*
X6118859Y-6120892D02*
G01*
X6118859Y-6115812D01*
X6113779Y-6105397D01*
X6108445Y-6100063D01*
X6098031Y-6094984D01*
X6077204Y-6094984D01*
X6066790Y-6100063D01*
X6061709Y-6105397D01*
X6056629Y-6115812D01*
X6056629Y-6126226D01*
X6061709Y-6136639D01*
X6072124Y-6152134D01*
X6123940Y-6203950D01*
X6051295Y-6203950D01*
D12*
X9414603Y-3680198D02*
G01*
X9414603Y-3330199D01*
X9339605Y-3730198D02*
G01*
X9339605Y-3280199D01*
X9899604Y-4165198D02*
G01*
X9899604Y-2845201D01*
X9899604Y-2845201D02*
G01*
X9408888Y-2845201D01*
X9070322Y-2845201D02*
G01*
X8579606Y-2845201D01*
X9899604Y-4165198D02*
G01*
X9408888Y-4165198D01*
X9070322Y-4165198D02*
G01*
X8579606Y-4165198D01*
X8579606Y-4165198D02*
G01*
X8579606Y-3827536D01*
X8579606Y-3690863D02*
G01*
X8579606Y-3573536D01*
X8579606Y-3436863D02*
G01*
X8579606Y-3319536D01*
X8579606Y-3182863D02*
G01*
X8579606Y-2845201D01*
X2549999Y-6074986D02*
G01*
X2549999Y-5724987D01*
X2475001Y-6124986D02*
G01*
X2475001Y-5674987D01*
X3035000Y-6559986D02*
G01*
X3035000Y-5239989D01*
X3035000Y-5239989D02*
G01*
X2544284Y-5239989D01*
X2205718Y-5239989D02*
G01*
X1715002Y-5239989D01*
X3035000Y-6559986D02*
G01*
X2544284Y-6559986D01*
X2205718Y-6559986D02*
G01*
X1715002Y-6559986D01*
X1715002Y-6559986D02*
G01*
X1715002Y-6222324D01*
X1715002Y-6085652D02*
G01*
X1715002Y-5968324D01*
X1715002Y-5831652D02*
G01*
X1715002Y-5714324D01*
X1715002Y-5577652D02*
G01*
X1715002Y-5239989D01*
X2549999Y-3674991D02*
G01*
X2549999Y-3324992D01*
X2475001Y-3724991D02*
G01*
X2475001Y-3274992D01*
X3035000Y-4159991D02*
G01*
X3035000Y-2839994D01*
X3035000Y-2839994D02*
G01*
X2544284Y-2839994D01*
X2205718Y-2839994D02*
G01*
X1715002Y-2839994D01*
X3035000Y-4159991D02*
G01*
X2544284Y-4159991D01*
X2205718Y-4159991D02*
G01*
X1715002Y-4159991D01*
X1715002Y-4159991D02*
G01*
X1715002Y-3822329D01*
X1715002Y-3685656D02*
G01*
X1715002Y-3568329D01*
X1715002Y-3431656D02*
G01*
X1715002Y-3314329D01*
X1715002Y-3177656D02*
G01*
X1715002Y-2839994D01*
X2549999Y-1274996D02*
G01*
X2549999Y-924996D01*
X2475001Y-1324996D02*
G01*
X2475001Y-874996D01*
X3035000Y-1759996D02*
G01*
X3035000Y-439999D01*
X3035000Y-439999D02*
G01*
X2544284Y-439999D01*
X2205718Y-439999D02*
G01*
X1715002Y-439999D01*
X3035000Y-1759996D02*
G01*
X2544284Y-1759996D01*
X2205718Y-1759996D02*
G01*
X1715002Y-1759996D01*
X1715002Y-1759996D02*
G01*
X1715002Y-1422333D01*
X1715002Y-1285661D02*
G01*
X1715002Y-1168333D01*
X1715002Y-1031661D02*
G01*
X1715002Y-914333D01*
X1715002Y-777661D02*
G01*
X1715002Y-439999D01*
D13*
X5043906Y-6161481D02*
G01*
X7833893Y-6161481D01*
X7833893Y-6161481D02*
G01*
X7833893Y-721487D01*
X5043906Y-721487D01*
X5043906Y-6161481D01*
D12*
X1438147Y-920750D02*
G01*
X238252Y-920750D01*
X238201Y-920800D02*
G01*
X238201Y-4220794D01*
X238201Y-4220794D02*
G01*
X1438198Y-4220794D01*
X1438198Y-920800D01*
X1438198Y-920800D02*
G01*
X1438198Y-1420799D01*
X238201Y-1420799D01*
X9352076Y-1599996D02*
G01*
X9152077Y-1599996D01*
X9352076Y-399999D02*
G01*
X9152077Y-399999D01*
X9652076Y-1599996D02*
G01*
X9852075Y-1599996D01*
X9852075Y-399999D01*
X9652076Y-399999D01*
X8852077Y-1599996D02*
G01*
X8652078Y-1599996D01*
X8652078Y-399999D01*
X8852077Y-399999D01*
X9152077Y-5399989D02*
G01*
X9352076Y-5399989D01*
X9152077Y-6599986D02*
G01*
X9352076Y-6599986D01*
X8852077Y-5399989D02*
G01*
X8652078Y-5399989D01*
X8652078Y-6599986D01*
X8852077Y-6599986D01*
X9652076Y-5399989D02*
G01*
X9852075Y-5399989D01*
X9852075Y-6599986D01*
X9652076Y-6599986D01*
D14*
X5715000Y-6553200D02*
G01*
X6032500Y-6553200D01*
D11*
X5715000Y-6553200D02*
G01*
X5715000Y-6807200D01*
X6223000Y-6807200D01*
X6223000Y-6553200D01*
X6032500Y-6553200D01*
X5676900Y-6235700D02*
G01*
X5676900Y-6489700D01*
X6692900Y-6489700D01*
X6692900Y-6235700D01*
X6502400Y-6235700D01*
D14*
X5676900Y-6235700D02*
G01*
X6502400Y-6235700D01*
D12*
G75*
G01*
X9339605Y-3280199D02*
G03*
X9339605Y-3730198I-102895J-225000D01*
G75*
G01*
X9414604Y-3680198D02*
G03*
X9414604Y-3330199I-150902J174999D01*
G75*
G01*
X2475001Y-5674987D02*
G03*
X2475001Y-6124986I-102895J-225000D01*
G75*
G01*
X2550000Y-6074987D02*
G03*
X2550000Y-5724987I-150902J175000D01*
G75*
G01*
X2475001Y-3274992D02*
G03*
X2475001Y-3724991I-102895J-225000D01*
G75*
G01*
X2550000Y-3674991D02*
G03*
X2550000Y-3324992I-150902J174999D01*
G75*
G01*
X2475001Y-874997D02*
G03*
X2475001Y-1324996I-102895J-225000D01*
G75*
G01*
X2550000Y-1274996D02*
G03*
X2550000Y-924997I-150902J174999D01*
D15*
G75*
G01*
X7888884Y-1460500D02*
G02*
X7888910Y-1460932I10001J372D01*
D12*
G75*
G01
X9839757Y-3095193D02*
G03X9839757Y-3095193I-90145J0D01*
G75*
G01
X9839757Y-3915207D02*
G03X9839757Y-3915207I-90145J0D01*
G75*
G01
X8819744Y-3095193D02*
G03X8819744Y-3095193I-90145J0D01*
G75*
G01
X8819744Y-3915207D02*
G03X8819744Y-3915207I-90145J0D01*
G75*
G01
X9589592Y-3504997D02*
G03X9589592Y-3504997I-350139J0D01*
G75*
G01
X2975153Y-5489981D02*
G03X2975153Y-5489981I-90145J0D01*
G75*
G01
X2975153Y-6309995D02*
G03X2975153Y-6309995I-90145J0D01*
G75*
G01
X1955140Y-5489981D02*
G03X1955140Y-5489981I-90145J0D01*
G75*
G01
X1955140Y-6309995D02*
G03X1955140Y-6309995I-90145J0D01*
G75*
G01
X2724988Y-5899785D02*
G03X2724988Y-5899785I-350139J0D01*
G75*
G01
X2975153Y-3089986D02*
G03X2975153Y-3089986I-90145J0D01*
G75*
G01
X2975153Y-3910000D02*
G03X2975153Y-3910000I-90145J0D01*
G75*
G01
X1955140Y-3089986D02*
G03X1955140Y-3089986I-90145J0D01*
G75*
G01
X1955140Y-3910000D02*
G03X1955140Y-3910000I-90145J0D01*
G75*
G01
X2724988Y-3499790D02*
G03X2724988Y-3499790I-350139J0D01*
G75*
G01
X2975153Y-689991D02*
G03X2975153Y-689991I-90145J0D01*
G75*
G01
X2975153Y-1510005D02*
G03X2975153Y-1510005I-90145J0D01*
G75*
G01
X1955140Y-689991D02*
G03X1955140Y-689991I-90145J0D01*
G75*
G01
X1955140Y-1510005D02*
G03X1955140Y-1510005I-90145J0D01*
G75*
G01
X2724988Y-1099795D02*
G03X2724988Y-1099795I-350139J0D01*
G75*
G01
X9602089Y-999998D02*
G03X9602089Y-999998I-350012J0D01*
G75*
G01
X9602089Y-5999988D02*
G03X9602089Y-5999988I-350012J0D01*
M02*
